<svg version="1.1" xmlns="http://www.w3.org/2000/svg" xmlns:xlink="http://www.w3.org/1999/xlink" width="807.17724609375" height="532"><defs/><g><text fill="#eeeeee" stroke="none" font-family="Arial" font-size="24px" font-style="normal" font-weight="normal" text-decoration="none" x="0" y="0">UNREGISTERED</text><text fill="#eeeeee" stroke="none" font-family="Arial" font-size="24px" font-style="normal" font-weight="normal" text-decoration="none" x="0" y="30">UNREGISTERED</text><text fill="#eeeeee" stroke="none" font-family="Arial" font-size="24px" font-style="normal" font-weight="normal" text-decoration="none" x="0" y="60">UNREGISTERED</text><text fill="#eeeeee" stroke="none" font-family="Arial" font-size="24px" font-style="normal" font-weight="normal" text-decoration="none" x="0" y="90">UNREGISTERED</text><text fill="#eeeeee" stroke="none" font-family="Arial" font-size="24px" font-style="normal" font-weight="normal" text-decoration="none" x="0" y="120">UNREGISTERED</text><text fill="#eeeeee" stroke="none" font-family="Arial" font-size="24px" font-style="normal" font-weight="normal" text-decoration="none" x="0" y="150">UNREGISTERED</text><text fill="#eeeeee" stroke="none" font-family="Arial" font-size="24px" font-style="normal" font-weight="normal" text-decoration="none" x="0" y="180">UNREGISTERED</text><text fill="#eeeeee" stroke="none" font-family="Arial" font-size="24px" font-style="normal" font-weight="normal" text-decoration="none" x="0" y="210">UNREGISTERED</text><text fill="#eeeeee" stroke="none" font-family="Arial" font-size="24px" font-style="normal" font-weight="normal" text-decoration="none" x="0" y="240">UNREGISTERED</text><text fill="#eeeeee" stroke="none" font-family="Arial" font-size="24px" font-style="normal" font-weight="normal" text-decoration="none" x="0" y="270">UNREGISTERED</text><text fill="#eeeeee" stroke="none" font-family="Arial" font-size="24px" font-style="normal" font-weight="normal" text-decoration="none" x="0" y="300">UNREGISTERED</text><text fill="#eeeeee" stroke="none" font-family="Arial" font-size="24px" font-style="normal" font-weight="normal" text-decoration="none" x="0" y="330">UNREGISTERED</text><text fill="#eeeeee" stroke="none" font-family="Arial" font-size="24px" font-style="normal" font-weight="normal" text-decoration="none" x="0" y="360">UNREGISTERED</text><text fill="#eeeeee" stroke="none" font-family="Arial" font-size="24px" font-style="normal" font-weight="normal" text-decoration="none" x="0" y="390">UNREGISTERED</text><text fill="#eeeeee" stroke="none" font-family="Arial" font-size="24px" font-style="normal" font-weight="normal" text-decoration="none" x="0" y="420">UNREGISTERED</text><text fill="#eeeeee" stroke="none" font-family="Arial" font-size="24px" font-style="normal" font-weight="normal" text-decoration="none" x="0" y="450">UNREGISTERED</text><text fill="#eeeeee" stroke="none" font-family="Arial" font-size="24px" font-style="normal" font-weight="normal" text-decoration="none" x="0" y="480">UNREGISTERED</text><text fill="#eeeeee" stroke="none" font-family="Arial" font-size="24px" font-style="normal" font-weight="normal" text-decoration="none" x="0" y="510">UNREGISTERED</text><text fill="#eeeeee" stroke="none" font-family="Arial" font-size="24px" font-style="normal" font-weight="normal" text-decoration="none" x="200" y="0">UNREGISTERED</text><text fill="#eeeeee" stroke="none" font-family="Arial" font-size="24px" font-style="normal" font-weight="normal" text-decoration="none" x="200" y="30">UNREGISTERED</text><text fill="#eeeeee" stroke="none" font-family="Arial" font-size="24px" font-style="normal" font-weight="normal" text-decoration="none" x="200" y="60">UNREGISTERED</text><text fill="#eeeeee" stroke="none" font-family="Arial" font-size="24px" font-style="normal" font-weight="normal" text-decoration="none" x="200" y="90">UNREGISTERED</text><text fill="#eeeeee" stroke="none" font-family="Arial" font-size="24px" font-style="normal" font-weight="normal" text-decoration="none" x="200" y="120">UNREGISTERED</text><text fill="#eeeeee" stroke="none" font-family="Arial" font-size="24px" font-style="normal" font-weight="normal" text-decoration="none" x="200" y="150">UNREGISTERED</text><text fill="#eeeeee" stroke="none" font-family="Arial" font-size="24px" font-style="normal" font-weight="normal" text-decoration="none" x="200" y="180">UNREGISTERED</text><text fill="#eeeeee" stroke="none" font-family="Arial" font-size="24px" font-style="normal" font-weight="normal" text-decoration="none" x="200" y="210">UNREGISTERED</text><text fill="#eeeeee" stroke="none" font-family="Arial" font-size="24px" font-style="normal" font-weight="normal" text-decoration="none" x="200" y="240">UNREGISTERED</text><text fill="#eeeeee" stroke="none" font-family="Arial" font-size="24px" font-style="normal" font-weight="normal" text-decoration="none" x="200" y="270">UNREGISTERED</text><text fill="#eeeeee" stroke="none" font-family="Arial" font-size="24px" font-style="normal" font-weight="normal" text-decoration="none" x="200" y="300">UNREGISTERED</text><text fill="#eeeeee" stroke="none" font-family="Arial" font-size="24px" font-style="normal" font-weight="normal" text-decoration="none" x="200" y="330">UNREGISTERED</text><text fill="#eeeeee" stroke="none" font-family="Arial" font-size="24px" font-style="normal" font-weight="normal" text-decoration="none" x="200" y="360">UNREGISTERED</text><text fill="#eeeeee" stroke="none" font-family="Arial" font-size="24px" font-style="normal" font-weight="normal" text-decoration="none" x="200" y="390">UNREGISTERED</text><text fill="#eeeeee" stroke="none" font-family="Arial" font-size="24px" font-style="normal" font-weight="normal" text-decoration="none" x="200" y="420">UNREGISTERED</text><text fill="#eeeeee" stroke="none" font-family="Arial" font-size="24px" font-style="normal" font-weight="normal" text-decoration="none" x="200" y="450">UNREGISTERED</text><text fill="#eeeeee" stroke="none" font-family="Arial" font-size="24px" font-style="normal" font-weight="normal" text-decoration="none" x="200" y="480">UNREGISTERED</text><text fill="#eeeeee" stroke="none" font-family="Arial" font-size="24px" font-style="normal" font-weight="normal" text-decoration="none" x="200" y="510">UNREGISTERED</text><text fill="#eeeeee" stroke="none" font-family="Arial" font-size="24px" font-style="normal" font-weight="normal" text-decoration="none" x="400" y="0">UNREGISTERED</text><text fill="#eeeeee" stroke="none" font-family="Arial" font-size="24px" font-style="normal" font-weight="normal" text-decoration="none" x="400" y="30">UNREGISTERED</text><text fill="#eeeeee" stroke="none" font-family="Arial" font-size="24px" font-style="normal" font-weight="normal" text-decoration="none" x="400" y="60">UNREGISTERED</text><text fill="#eeeeee" stroke="none" font-family="Arial" font-size="24px" font-style="normal" font-weight="normal" text-decoration="none" x="400" y="90">UNREGISTERED</text><text fill="#eeeeee" stroke="none" font-family="Arial" font-size="24px" font-style="normal" font-weight="normal" text-decoration="none" x="400" y="120">UNREGISTERED</text><text fill="#eeeeee" stroke="none" font-family="Arial" font-size="24px" font-style="normal" font-weight="normal" text-decoration="none" x="400" y="150">UNREGISTERED</text><text fill="#eeeeee" stroke="none" font-family="Arial" font-size="24px" font-style="normal" font-weight="normal" text-decoration="none" x="400" y="180">UNREGISTERED</text><text fill="#eeeeee" stroke="none" font-family="Arial" font-size="24px" font-style="normal" font-weight="normal" text-decoration="none" x="400" y="210">UNREGISTERED</text><text fill="#eeeeee" stroke="none" font-family="Arial" font-size="24px" font-style="normal" font-weight="normal" text-decoration="none" x="400" y="240">UNREGISTERED</text><text fill="#eeeeee" stroke="none" font-family="Arial" font-size="24px" font-style="normal" font-weight="normal" text-decoration="none" x="400" y="270">UNREGISTERED</text><text fill="#eeeeee" stroke="none" font-family="Arial" font-size="24px" font-style="normal" font-weight="normal" text-decoration="none" x="400" y="300">UNREGISTERED</text><text fill="#eeeeee" stroke="none" font-family="Arial" font-size="24px" font-style="normal" font-weight="normal" text-decoration="none" x="400" y="330">UNREGISTERED</text><text fill="#eeeeee" stroke="none" font-family="Arial" font-size="24px" font-style="normal" font-weight="normal" text-decoration="none" x="400" y="360">UNREGISTERED</text><text fill="#eeeeee" stroke="none" font-family="Arial" font-size="24px" font-style="normal" font-weight="normal" text-decoration="none" x="400" y="390">UNREGISTERED</text><text fill="#eeeeee" stroke="none" font-family="Arial" font-size="24px" font-style="normal" font-weight="normal" text-decoration="none" x="400" y="420">UNREGISTERED</text><text fill="#eeeeee" stroke="none" font-family="Arial" font-size="24px" font-style="normal" font-weight="normal" text-decoration="none" x="400" y="450">UNREGISTERED</text><text fill="#eeeeee" stroke="none" font-family="Arial" font-size="24px" font-style="normal" font-weight="normal" text-decoration="none" x="400" y="480">UNREGISTERED</text><text fill="#eeeeee" stroke="none" font-family="Arial" font-size="24px" font-style="normal" font-weight="normal" text-decoration="none" x="400" y="510">UNREGISTERED</text><text fill="#eeeeee" stroke="none" font-family="Arial" font-size="24px" font-style="normal" font-weight="normal" text-decoration="none" x="600" y="0">UNREGISTERED</text><text fill="#eeeeee" stroke="none" font-family="Arial" font-size="24px" font-style="normal" font-weight="normal" text-decoration="none" x="600" y="30">UNREGISTERED</text><text fill="#eeeeee" stroke="none" font-family="Arial" font-size="24px" font-style="normal" font-weight="normal" text-decoration="none" x="600" y="60">UNREGISTERED</text><text fill="#eeeeee" stroke="none" font-family="Arial" font-size="24px" font-style="normal" font-weight="normal" text-decoration="none" x="600" y="90">UNREGISTERED</text><text fill="#eeeeee" stroke="none" font-family="Arial" font-size="24px" font-style="normal" font-weight="normal" text-decoration="none" x="600" y="120">UNREGISTERED</text><text fill="#eeeeee" stroke="none" font-family="Arial" font-size="24px" font-style="normal" font-weight="normal" text-decoration="none" x="600" y="150">UNREGISTERED</text><text fill="#eeeeee" stroke="none" font-family="Arial" font-size="24px" font-style="normal" font-weight="normal" text-decoration="none" x="600" y="180">UNREGISTERED</text><text fill="#eeeeee" stroke="none" font-family="Arial" font-size="24px" font-style="normal" font-weight="normal" text-decoration="none" x="600" y="210">UNREGISTERED</text><text fill="#eeeeee" stroke="none" font-family="Arial" font-size="24px" font-style="normal" font-weight="normal" text-decoration="none" x="600" y="240">UNREGISTERED</text><text fill="#eeeeee" stroke="none" font-family="Arial" font-size="24px" font-style="normal" font-weight="normal" text-decoration="none" x="600" y="270">UNREGISTERED</text><text fill="#eeeeee" stroke="none" font-family="Arial" font-size="24px" font-style="normal" font-weight="normal" text-decoration="none" x="600" y="300">UNREGISTERED</text><text fill="#eeeeee" stroke="none" font-family="Arial" font-size="24px" font-style="normal" font-weight="normal" text-decoration="none" x="600" y="330">UNREGISTERED</text><text fill="#eeeeee" stroke="none" font-family="Arial" font-size="24px" font-style="normal" font-weight="normal" text-decoration="none" x="600" y="360">UNREGISTERED</text><text fill="#eeeeee" stroke="none" font-family="Arial" font-size="24px" font-style="normal" font-weight="normal" text-decoration="none" x="600" y="390">UNREGISTERED</text><text fill="#eeeeee" stroke="none" font-family="Arial" font-size="24px" font-style="normal" font-weight="normal" text-decoration="none" x="600" y="420">UNREGISTERED</text><text fill="#eeeeee" stroke="none" font-family="Arial" font-size="24px" font-style="normal" font-weight="normal" text-decoration="none" x="600" y="450">UNREGISTERED</text><text fill="#eeeeee" stroke="none" font-family="Arial" font-size="24px" font-style="normal" font-weight="normal" text-decoration="none" x="600" y="480">UNREGISTERED</text><text fill="#eeeeee" stroke="none" font-family="Arial" font-size="24px" font-style="normal" font-weight="normal" text-decoration="none" x="600" y="510">UNREGISTERED</text><text fill="#eeeeee" stroke="none" font-family="Arial" font-size="24px" font-style="normal" font-weight="normal" text-decoration="none" x="800" y="0">UNREGISTERED</text><text fill="#eeeeee" stroke="none" font-family="Arial" font-size="24px" font-style="normal" font-weight="normal" text-decoration="none" x="800" y="30">UNREGISTERED</text><text fill="#eeeeee" stroke="none" font-family="Arial" font-size="24px" font-style="normal" font-weight="normal" text-decoration="none" x="800" y="60">UNREGISTERED</text><text fill="#eeeeee" stroke="none" font-family="Arial" font-size="24px" font-style="normal" font-weight="normal" text-decoration="none" x="800" y="90">UNREGISTERED</text><text fill="#eeeeee" stroke="none" font-family="Arial" font-size="24px" font-style="normal" font-weight="normal" text-decoration="none" x="800" y="120">UNREGISTERED</text><text fill="#eeeeee" stroke="none" font-family="Arial" font-size="24px" font-style="normal" font-weight="normal" text-decoration="none" x="800" y="150">UNREGISTERED</text><text fill="#eeeeee" stroke="none" font-family="Arial" font-size="24px" font-style="normal" font-weight="normal" text-decoration="none" x="800" y="180">UNREGISTERED</text><text fill="#eeeeee" stroke="none" font-family="Arial" font-size="24px" font-style="normal" font-weight="normal" text-decoration="none" x="800" y="210">UNREGISTERED</text><text fill="#eeeeee" stroke="none" font-family="Arial" font-size="24px" font-style="normal" font-weight="normal" text-decoration="none" x="800" y="240">UNREGISTERED</text><text fill="#eeeeee" stroke="none" font-family="Arial" font-size="24px" font-style="normal" font-weight="normal" text-decoration="none" x="800" y="270">UNREGISTERED</text><text fill="#eeeeee" stroke="none" font-family="Arial" font-size="24px" font-style="normal" font-weight="normal" text-decoration="none" x="800" y="300">UNREGISTERED</text><text fill="#eeeeee" stroke="none" font-family="Arial" font-size="24px" font-style="normal" font-weight="normal" text-decoration="none" x="800" y="330">UNREGISTERED</text><text fill="#eeeeee" stroke="none" font-family="Arial" font-size="24px" font-style="normal" font-weight="normal" text-decoration="none" x="800" y="360">UNREGISTERED</text><text fill="#eeeeee" stroke="none" font-family="Arial" font-size="24px" font-style="normal" font-weight="normal" text-decoration="none" x="800" y="390">UNREGISTERED</text><text fill="#eeeeee" stroke="none" font-family="Arial" font-size="24px" font-style="normal" font-weight="normal" text-decoration="none" x="800" y="420">UNREGISTERED</text><text fill="#eeeeee" stroke="none" font-family="Arial" font-size="24px" font-style="normal" font-weight="normal" text-decoration="none" x="800" y="450">UNREGISTERED</text><text fill="#eeeeee" stroke="none" font-family="Arial" font-size="24px" font-style="normal" font-weight="normal" text-decoration="none" x="800" y="480">UNREGISTERED</text><text fill="#eeeeee" stroke="none" font-family="Arial" font-size="24px" font-style="normal" font-weight="normal" text-decoration="none" x="800" y="510">UNREGISTERED</text><g transform="translate(-85,-182) scale(1,1)"><rect fill="#ffffff" stroke="none" x="200" y="192" width="528" height="512"/></g><g transform="translate(-85,-182) scale(1,1)"><path fill="none" stroke="#000000" d="M 200 192 L 728 192 L 728 704 L 200 704 L 200 192 Z Z" stroke-miterlimit="10"/></g><g transform="translate(-85,-182) scale(1,1)"><path fill="#C0C0C0" stroke="none" d="M 247 282 C 247 271.5065888 289.7568016 263 342.5 263 C 395.2431984 263 438 271.5065888 438 282 C 438 292.4934112 395.2431984 301 342.5 301 C 289.7568016 301 247 292.4934112 247 282 Z" opacity="0.2"/></g><g transform="translate(-85,-182) scale(1,1)"><path fill="#d8f2ff" stroke="none" d="M 240 275 C 240 264.5065888 282.7568016 256 335.5 256 C 388.2431984 256 431 264.5065888 431 275 C 431 285.4934112 388.2431984 294 335.5 294 C 282.7568016 294 240 285.4934112 240 275 Z"/></g><g transform="translate(-85,-182) scale(1,1)"><path fill="none" stroke="#000000" d="M 240 275 C 240 264.5065888 282.7568016 256 335.5 256 C 388.2431984 256 431 264.5065888 431 275 C 431 285.4934112 388.2431984 294 335.5 294 C 282.7568016 294 240 285.4934112 240 275 Z" stroke-miterlimit="10"/></g><g transform="translate(-85,-182) scale(1,1)"><g><path fill="none" stroke="none"/><text fill="#000000" stroke="none" font-family="Arial" font-size="16px" font-style="normal" font-weight="bold" text-decoration="none" x="291.48046875" y="283.5">Browse bets</text></g></g><g transform="translate(-85,-182) scale(1,1)"><path fill="#ffffff" stroke="none" d="M 111.40935031960228 377.68 C 111.40935031960228 372.886167936 115.29519264454774 369 120.088623046875 369 C 124.88205344920226 369 128.76789577414772 372.886167936 128.76789577414772 377.68 C 128.76789577414772 382.473832064 124.88205344920226 386.36 120.088623046875 386.36 C 115.29519264454774 386.36 111.40935031960228 382.473832064 111.40935031960228 377.68 Z"/></g><g transform="translate(-85,-182) scale(1,1)"><path fill="none" stroke="#000000" d="M 111.40935031960228 377.68 C 111.40935031960228 372.886167936 115.29519264454774 369 120.088623046875 369 C 124.88205344920226 369 128.76789577414772 372.886167936 128.76789577414772 377.68 C 128.76789577414772 382.473832064 124.88205344920226 386.36 120.088623046875 386.36 C 115.29519264454774 386.36 111.40935031960228 382.473832064 111.40935031960228 377.68 Z" stroke-miterlimit="10"/></g><g transform="translate(-85,-182) scale(1,1)"><path fill="none" stroke="#000000" d="M 120.088623046875 386.36 L 120.088623046875 403.64" stroke-miterlimit="10"/></g><g transform="translate(-85,-182) scale(1,1)"><path fill="none" stroke="#000000" d="M 110.89880486505683 392.84 L 129.27844122869317 392.84" stroke-miterlimit="10"/></g><g transform="translate(-85,-182) scale(1,1)"><path fill="none" stroke="#000000" d="M 120.088623046875 403.64 L 107.32498668323865 421" stroke-miterlimit="10"/></g><g transform="translate(-85,-182) scale(1,1)"><path fill="none" stroke="#000000" d="M 120.088623046875 403.64 L 132.85225941051135 421" stroke-miterlimit="10"/></g><g transform="translate(-85,-182) scale(1,1)"><g><path fill="none" stroke="none"/><text fill="#000000" stroke="none" font-family="Arial" font-size="16px" font-style="normal" font-weight="bold" text-decoration="none" x="103.197998046875" y="444.5">User</text></g></g><g transform="translate(-85,-182) scale(1,1)"><path fill="none" stroke="#000000" d="M 146 393 L 303 295" stroke-miterlimit="10"/></g><g transform="translate(-85,-182) scale(1,1)"><path fill="#C0C0C0" stroke="none" d="M 391 376 C 391 366.6111584 425.0263552 359 467 359 C 508.9736448 359 543 366.6111584 543 376 C 543 385.3888416 508.9736448 393 467 393 C 425.0263552 393 391 385.3888416 391 376 Z" opacity="0.2"/></g><g transform="translate(-85,-182) scale(1,1)"><path fill="#ffffff" stroke="none" d="M 384 369 C 384 359.6111584 418.0263552 352 460 352 C 501.9736448 352 536 359.6111584 536 369 C 536 378.3888416 501.9736448 386 460 386 C 418.0263552 386 384 378.3888416 384 369 Z"/></g><g transform="translate(-85,-182) scale(1,1)"><path fill="none" stroke="#000000" d="M 384 369 C 384 359.6111584 418.0263552 352 460 352 C 501.9736448 352 536 359.6111584 536 369 C 536 378.3888416 501.9736448 386 460 386 C 418.0263552 386 384 378.3888416 384 369 Z" stroke-miterlimit="10"/></g><g transform="translate(-85,-182) scale(1,1)"><g><path fill="none" stroke="none"/><text fill="#000000" stroke="none" font-family="Arial" font-size="13px" font-style="normal" font-weight="bold" text-decoration="none" x="442.2900390625" y="376">Log in</text></g></g><g transform="translate(-85,-182) scale(1,1)"><path fill="none" stroke="#000000" d="M 362 295 L 436 351" stroke-miterlimit="10" stroke-dasharray="3"/></g><g transform="translate(-85,-182) scale(1,1)"><path fill="none" stroke="#000000" d="M 425.3560155388467 348.22410468664134 L 436 351 L 430.4364208086141 341.5107120087344" stroke-miterlimit="10"/></g><g transform="translate(-85,-182) scale(1,1)"><g><path fill="none" stroke="none"/><text fill="#000000" stroke="none" font-family="Arial" font-size="13px" font-style="normal" font-weight="normal" text-decoration="none" x="389.5" y="305.5">«include»</text></g></g><g transform="translate(-85,-182) scale(1,1)"><path fill="#C0C0C0" stroke="none" d="M 255 520 C 255 510.6111584 299.3238048 503 354 503 C 408.6761952 503 453 510.6111584 453 520 C 453 529.3888416 408.6761952 537 354 537 C 299.3238048 537 255 529.3888416 255 520 Z" opacity="0.2"/></g><g transform="translate(-85,-182) scale(1,1)"><path fill="#ffffff" stroke="none" d="M 248 513 C 248 503.6111584 292.3238048 496 347 496 C 401.6761952 496 446 503.6111584 446 513 C 446 522.3888416 401.6761952 530 347 530 C 292.3238048 530 248 522.3888416 248 513 Z"/></g><g transform="translate(-85,-182) scale(1,1)"><path fill="none" stroke="#000000" d="M 248 513 C 248 503.6111584 292.3238048 496 347 496 C 401.6761952 496 446 503.6111584 446 513 C 446 522.3888416 401.6761952 530 347 530 C 292.3238048 530 248 522.3888416 248 513 Z" stroke-miterlimit="10"/></g><g transform="translate(-85,-182) scale(1,1)"><g><path fill="none" stroke="none"/><text fill="#000000" stroke="none" font-family="Arial" font-size="13px" font-style="normal" font-weight="bold" text-decoration="none" x="285.94189453125" y="520">Manage virtual wallet</text></g></g><g transform="translate(-85,-182) scale(1,1)"><path fill="#C0C0C0" stroke="none" d="M 543 448 C 543 438.6111584 568.743624 431 600.5 431 C 632.256376 431 658 438.6111584 658 448 C 658 457.3888416 632.256376 465 600.5 465 C 568.743624 465 543 457.3888416 543 448 Z" opacity="0.2"/></g><g transform="translate(-85,-182) scale(1,1)"><path fill="#ffffff" stroke="none" d="M 536 441 C 536 431.6111584 561.743624 424 593.5 424 C 625.256376 424 651 431.6111584 651 441 C 651 450.3888416 625.256376 458 593.5 458 C 561.743624 458 536 450.3888416 536 441 Z"/></g><g transform="translate(-85,-182) scale(1,1)"><path fill="none" stroke="#000000" d="M 536 441 C 536 431.6111584 561.743624 424 593.5 424 C 625.256376 424 651 431.6111584 651 441 C 651 450.3888416 625.256376 458 593.5 458 C 561.743624 458 536 450.3888416 536 441 Z" stroke-miterlimit="10"/></g><g transform="translate(-85,-182) scale(1,1)"><g><path fill="none" stroke="none"/><text fill="#000000" stroke="none" font-family="Arial" font-size="13px" font-style="normal" font-weight="bold" text-decoration="none" x="560.61279296875" y="448">Add founds</text></g></g><g transform="translate(-85,-182) scale(1,1)"><path fill="#C0C0C0" stroke="none" d="M 543 544 C 543 534.6111584 578.1456432 527 621.5 527 C 664.8543568 527 700 534.6111584 700 544 C 700 553.3888416 664.8543568 561 621.5 561 C 578.1456432 561 543 553.3888416 543 544 Z" opacity="0.2"/></g><g transform="translate(-85,-182) scale(1,1)"><path fill="#ffffff" stroke="none" d="M 536 537 C 536 527.6111584 571.1456432 520 614.5 520 C 657.8543568 520 693 527.6111584 693 537 C 693 546.3888416 657.8543568 554 614.5 554 C 571.1456432 554 536 546.3888416 536 537 Z"/></g><g transform="translate(-85,-182) scale(1,1)"><path fill="none" stroke="#000000" d="M 536 537 C 536 527.6111584 571.1456432 520 614.5 520 C 657.8543568 520 693 527.6111584 693 537 C 693 546.3888416 657.8543568 554 614.5 554 C 571.1456432 554 536 546.3888416 536 537 Z" stroke-miterlimit="10"/></g><g transform="translate(-85,-182) scale(1,1)"><g><path fill="none" stroke="none"/><text fill="#000000" stroke="none" font-family="Arial" font-size="13px" font-style="normal" font-weight="bold" text-decoration="none" x="567.53369140625" y="544">Extract earnings</text></g></g><g transform="translate(-85,-182) scale(1,1)"><path fill="#C0C0C0" stroke="none" d="M 503 632 C 503 622.6111584 545.532944 615 598 615 C 650.467056 615 693 622.6111584 693 632 C 693 641.3888416 650.467056 649 598 649 C 545.532944 649 503 641.3888416 503 632 Z" opacity="0.2"/></g><g transform="translate(-85,-182) scale(1,1)"><path fill="#ffffff" stroke="none" d="M 496 625 C 496 615.6111584 538.532944 608 591 608 C 643.467056 608 686 615.6111584 686 625 C 686 634.3888416 643.467056 642 591 642 C 538.532944 642 496 634.3888416 496 625 Z"/></g><g transform="translate(-85,-182) scale(1,1)"><path fill="none" stroke="#000000" d="M 496 625 C 496 615.6111584 538.532944 608 591 608 C 643.467056 608 686 615.6111584 686 625 C 686 634.3888416 643.467056 642 591 642 C 538.532944 642 496 634.3888416 496 625 Z" stroke-miterlimit="10"/></g><g transform="translate(-85,-182) scale(1,1)"><g><path fill="none" stroke="none"/><text fill="#000000" stroke="none" font-family="Arial" font-size="13px" font-style="normal" font-weight="bold" text-decoration="none" x="544.385986328125" y="632">Consult balance</text></g></g><g transform="translate(-85,-182) scale(1,1)"><path fill="none" stroke="#000000" d="M 146 421 L 308 495" stroke-miterlimit="10"/></g><g transform="translate(-85,-182) scale(1,1)"><path fill="none" stroke="#000000" d="M 409 495 L 535 458" stroke-miterlimit="10" stroke-dasharray="3"/></g><g transform="translate(-85,-182) scale(1,1)"><path fill="none" stroke="#000000" d="M 526.4350974968999 464.9023506946829 L 535 458 L 524.0630003775183 456.8243983421943" stroke-miterlimit="10"/></g><g transform="translate(-85,-182) scale(1,1)"><g><path fill="none" stroke="none"/><text fill="#000000" stroke="none" font-family="Arial" font-size="13px" font-style="normal" font-weight="normal" text-decoration="none" x="436.5" y="453.5">«extend»</text></g></g><g transform="translate(-85,-182) scale(1,1)"><path fill="none" stroke="#000000" d="M 447 522 L 535 530" stroke-miterlimit="10" stroke-dasharray="3"/></g><g transform="translate(-85,-182) scale(1,1)"><path fill="none" stroke="#000000" d="M 524.4979493192318 533.272144785699 L 535 530 L 525.260172980272 524.887684514256" stroke-miterlimit="10"/></g><g transform="translate(-85,-182) scale(1,1)"><g><path fill="none" stroke="none"/><text fill="#000000" stroke="none" font-family="Arial" font-size="13px" font-style="normal" font-weight="normal" text-decoration="none" x="466.5" y="502.5">«extend»</text></g></g><g transform="translate(-85,-182) scale(1,1)"><path fill="none" stroke="#000000" d="M 386 531 L 552 607" stroke-miterlimit="10" stroke-dasharray="3"/></g><g transform="translate(-85,-182) scale(1,1)"><path fill="none" stroke="#000000" d="M 541.0073861953972 606.5969593781552 L 552 607 L 544.5120409926006 598.9420554790005" stroke-miterlimit="10"/></g><g transform="translate(-85,-182) scale(1,1)"><g><path fill="none" stroke="none"/><text fill="#000000" stroke="none" font-family="Arial" font-size="13px" font-style="normal" font-weight="normal" text-decoration="none" x="454.5" y="547.5">«extend»</text></g></g><g transform="translate(-85,-182) scale(1,1)"><path fill="#ffffff" stroke="none" d="M 848.4093503196023 441.68 C 848.4093503196023 436.886167936 852.2951926445477 433 857.088623046875 433 C 861.8820534492023 433 865.7678957741477 436.886167936 865.7678957741477 441.68 C 865.7678957741477 446.473832064 861.8820534492023 450.36 857.088623046875 450.36 C 852.2951926445477 450.36 848.4093503196023 446.473832064 848.4093503196023 441.68 Z"/></g><g transform="translate(-85,-182) scale(1,1)"><path fill="none" stroke="#000000" d="M 848.4093503196023 441.68 C 848.4093503196023 436.886167936 852.2951926445477 433 857.088623046875 433 C 861.8820534492023 433 865.7678957741477 436.886167936 865.7678957741477 441.68 C 865.7678957741477 446.473832064 861.8820534492023 450.36 857.088623046875 450.36 C 852.2951926445477 450.36 848.4093503196023 446.473832064 848.4093503196023 441.68 Z" stroke-miterlimit="10"/></g><g transform="translate(-85,-182) scale(1,1)"><path fill="none" stroke="#000000" d="M 857.088623046875 450.36 L 857.088623046875 467.64" stroke-miterlimit="10"/></g><g transform="translate(-85,-182) scale(1,1)"><path fill="none" stroke="#000000" d="M 847.8988048650568 456.84 L 866.2784412286932 456.84" stroke-miterlimit="10"/></g><g transform="translate(-85,-182) scale(1,1)"><path fill="none" stroke="#000000" d="M 857.088623046875 467.64 L 844.3249866832386 485" stroke-miterlimit="10"/></g><g transform="translate(-85,-182) scale(1,1)"><path fill="none" stroke="#000000" d="M 857.088623046875 467.64 L 869.8522594105114 485" stroke-miterlimit="10"/></g><g transform="translate(-85,-182) scale(1,1)"><g><path fill="none" stroke="none"/><text fill="#000000" stroke="none" font-family="Arial" font-size="13px" font-style="normal" font-weight="bold" text-decoration="none" x="839.02001953125" y="505.5">Peipal</text></g></g><g transform="translate(-85,-182) scale(1,1)"><path fill="none" stroke="#000000" d="M 831 468 L 652 448" stroke-miterlimit="10"/></g><g transform="translate(-85,-182) scale(1,1)"><path fill="none" stroke="#000000" d="M 831 478 L 680 519" stroke-miterlimit="10"/></g><g transform="translate(-85,-182) scale(1,1)"><path fill="#C0C0C0" stroke="none" d="M 599 296 C 599 286.6111584 621.6096176 279 649.5 279 C 677.3903824 279 700 286.6111584 700 296 C 700 305.3888416 677.3903824 313 649.5 313 C 621.6096176 313 599 305.3888416 599 296 Z" opacity="0.2"/></g><g transform="translate(-85,-182) scale(1,1)"><path fill="#ffffff" stroke="none" d="M 592 289 C 592 279.6111584 614.6096176 272 642.5 272 C 670.3903824 272 693 279.6111584 693 289 C 693 298.3888416 670.3903824 306 642.5 306 C 614.6096176 306 592 298.3888416 592 289 Z"/></g><g transform="translate(-85,-182) scale(1,1)"><path fill="none" stroke="#000000" d="M 592 289 C 592 279.6111584 614.6096176 272 642.5 272 C 670.3903824 272 693 279.6111584 693 289 C 693 298.3888416 670.3903824 306 642.5 306 C 614.6096176 306 592 298.3888416 592 289 Z" stroke-miterlimit="10"/></g><g transform="translate(-85,-182) scale(1,1)"><g><path fill="none" stroke="none"/><text fill="#000000" stroke="none" font-family="Arial" font-size="13px" font-style="normal" font-weight="bold" text-decoration="none" x="622.62548828125" y="296">Sign in</text></g></g><g transform="translate(-85,-182) scale(1,1)"><path fill="none" stroke="#000000" d="M 501 351 L 601 307" stroke-miterlimit="10" stroke-dasharray="3"/></g><g transform="translate(-85,-182) scale(1,1)"><path fill="none" stroke="#000000" d="M 593.3932862809778 314.94593647072764 L 601 307 L 590.0026155854057 307.2398667080637" stroke-miterlimit="10"/></g><g transform="translate(-85,-182) scale(1,1)"><g><path fill="none" stroke="none"/><text fill="#000000" stroke="none" font-family="Arial" font-size="13px" font-style="normal" font-weight="normal" text-decoration="none" x="510.5" y="307.5">«include»</text></g></g><g transform="translate(-85,-182) scale(1,1)"><path fill="none" stroke="#000000" d="M 361 495 L 446 387" stroke-miterlimit="10" stroke-dasharray="3"/></g><g transform="translate(-85,-182) scale(1,1)"><path fill="none" stroke="#000000" d="M 443.02264546037753 397.5893984694783 L 446 387 L 436.40685694858183 392.38252788149094" stroke-miterlimit="10"/></g><g transform="translate(-85,-182) scale(1,1)"><g><path fill="none" stroke="none"/><text fill="#000000" stroke="none" font-family="Arial" font-size="13px" font-style="normal" font-weight="normal" text-decoration="none" x="351.5" y="428.5">«include»</text></g></g></g></svg>