<svg version="1.1" xmlns="http://www.w3.org/2000/svg" xmlns:xlink="http://www.w3.org/1999/xlink" width="851.62158203125" height="660"><defs/><g><text fill="#eeeeee" stroke="none" font-family="Arial" font-size="24px" font-style="normal" font-weight="normal" text-decoration="none" x="0" y="0">UNREGISTERED</text><text fill="#eeeeee" stroke="none" font-family="Arial" font-size="24px" font-style="normal" font-weight="normal" text-decoration="none" x="0" y="30">UNREGISTERED</text><text fill="#eeeeee" stroke="none" font-family="Arial" font-size="24px" font-style="normal" font-weight="normal" text-decoration="none" x="0" y="60">UNREGISTERED</text><text fill="#eeeeee" stroke="none" font-family="Arial" font-size="24px" font-style="normal" font-weight="normal" text-decoration="none" x="0" y="90">UNREGISTERED</text><text fill="#eeeeee" stroke="none" font-family="Arial" font-size="24px" font-style="normal" font-weight="normal" text-decoration="none" x="0" y="120">UNREGISTERED</text><text fill="#eeeeee" stroke="none" font-family="Arial" font-size="24px" font-style="normal" font-weight="normal" text-decoration="none" x="0" y="150">UNREGISTERED</text><text fill="#eeeeee" stroke="none" font-family="Arial" font-size="24px" font-style="normal" font-weight="normal" text-decoration="none" x="0" y="180">UNREGISTERED</text><text fill="#eeeeee" stroke="none" font-family="Arial" font-size="24px" font-style="normal" font-weight="normal" text-decoration="none" x="0" y="210">UNREGISTERED</text><text fill="#eeeeee" stroke="none" font-family="Arial" font-size="24px" font-style="normal" font-weight="normal" text-decoration="none" x="0" y="240">UNREGISTERED</text><text fill="#eeeeee" stroke="none" font-family="Arial" font-size="24px" font-style="normal" font-weight="normal" text-decoration="none" x="0" y="270">UNREGISTERED</text><text fill="#eeeeee" stroke="none" font-family="Arial" font-size="24px" font-style="normal" font-weight="normal" text-decoration="none" x="0" y="300">UNREGISTERED</text><text fill="#eeeeee" stroke="none" font-family="Arial" font-size="24px" font-style="normal" font-weight="normal" text-decoration="none" x="0" y="330">UNREGISTERED</text><text fill="#eeeeee" stroke="none" font-family="Arial" font-size="24px" font-style="normal" font-weight="normal" text-decoration="none" x="0" y="360">UNREGISTERED</text><text fill="#eeeeee" stroke="none" font-family="Arial" font-size="24px" font-style="normal" font-weight="normal" text-decoration="none" x="0" y="390">UNREGISTERED</text><text fill="#eeeeee" stroke="none" font-family="Arial" font-size="24px" font-style="normal" font-weight="normal" text-decoration="none" x="0" y="420">UNREGISTERED</text><text fill="#eeeeee" stroke="none" font-family="Arial" font-size="24px" font-style="normal" font-weight="normal" text-decoration="none" x="0" y="450">UNREGISTERED</text><text fill="#eeeeee" stroke="none" font-family="Arial" font-size="24px" font-style="normal" font-weight="normal" text-decoration="none" x="0" y="480">UNREGISTERED</text><text fill="#eeeeee" stroke="none" font-family="Arial" font-size="24px" font-style="normal" font-weight="normal" text-decoration="none" x="0" y="510">UNREGISTERED</text><text fill="#eeeeee" stroke="none" font-family="Arial" font-size="24px" font-style="normal" font-weight="normal" text-decoration="none" x="0" y="540">UNREGISTERED</text><text fill="#eeeeee" stroke="none" font-family="Arial" font-size="24px" font-style="normal" font-weight="normal" text-decoration="none" x="0" y="570">UNREGISTERED</text><text fill="#eeeeee" stroke="none" font-family="Arial" font-size="24px" font-style="normal" font-weight="normal" text-decoration="none" x="0" y="600">UNREGISTERED</text><text fill="#eeeeee" stroke="none" font-family="Arial" font-size="24px" font-style="normal" font-weight="normal" text-decoration="none" x="0" y="630">UNREGISTERED</text><text fill="#eeeeee" stroke="none" font-family="Arial" font-size="24px" font-style="normal" font-weight="normal" text-decoration="none" x="200" y="0">UNREGISTERED</text><text fill="#eeeeee" stroke="none" font-family="Arial" font-size="24px" font-style="normal" font-weight="normal" text-decoration="none" x="200" y="30">UNREGISTERED</text><text fill="#eeeeee" stroke="none" font-family="Arial" font-size="24px" font-style="normal" font-weight="normal" text-decoration="none" x="200" y="60">UNREGISTERED</text><text fill="#eeeeee" stroke="none" font-family="Arial" font-size="24px" font-style="normal" font-weight="normal" text-decoration="none" x="200" y="90">UNREGISTERED</text><text fill="#eeeeee" stroke="none" font-family="Arial" font-size="24px" font-style="normal" font-weight="normal" text-decoration="none" x="200" y="120">UNREGISTERED</text><text fill="#eeeeee" stroke="none" font-family="Arial" font-size="24px" font-style="normal" font-weight="normal" text-decoration="none" x="200" y="150">UNREGISTERED</text><text fill="#eeeeee" stroke="none" font-family="Arial" font-size="24px" font-style="normal" font-weight="normal" text-decoration="none" x="200" y="180">UNREGISTERED</text><text fill="#eeeeee" stroke="none" font-family="Arial" font-size="24px" font-style="normal" font-weight="normal" text-decoration="none" x="200" y="210">UNREGISTERED</text><text fill="#eeeeee" stroke="none" font-family="Arial" font-size="24px" font-style="normal" font-weight="normal" text-decoration="none" x="200" y="240">UNREGISTERED</text><text fill="#eeeeee" stroke="none" font-family="Arial" font-size="24px" font-style="normal" font-weight="normal" text-decoration="none" x="200" y="270">UNREGISTERED</text><text fill="#eeeeee" stroke="none" font-family="Arial" font-size="24px" font-style="normal" font-weight="normal" text-decoration="none" x="200" y="300">UNREGISTERED</text><text fill="#eeeeee" stroke="none" font-family="Arial" font-size="24px" font-style="normal" font-weight="normal" text-decoration="none" x="200" y="330">UNREGISTERED</text><text fill="#eeeeee" stroke="none" font-family="Arial" font-size="24px" font-style="normal" font-weight="normal" text-decoration="none" x="200" y="360">UNREGISTERED</text><text fill="#eeeeee" stroke="none" font-family="Arial" font-size="24px" font-style="normal" font-weight="normal" text-decoration="none" x="200" y="390">UNREGISTERED</text><text fill="#eeeeee" stroke="none" font-family="Arial" font-size="24px" font-style="normal" font-weight="normal" text-decoration="none" x="200" y="420">UNREGISTERED</text><text fill="#eeeeee" stroke="none" font-family="Arial" font-size="24px" font-style="normal" font-weight="normal" text-decoration="none" x="200" y="450">UNREGISTERED</text><text fill="#eeeeee" stroke="none" font-family="Arial" font-size="24px" font-style="normal" font-weight="normal" text-decoration="none" x="200" y="480">UNREGISTERED</text><text fill="#eeeeee" stroke="none" font-family="Arial" font-size="24px" font-style="normal" font-weight="normal" text-decoration="none" x="200" y="510">UNREGISTERED</text><text fill="#eeeeee" stroke="none" font-family="Arial" font-size="24px" font-style="normal" font-weight="normal" text-decoration="none" x="200" y="540">UNREGISTERED</text><text fill="#eeeeee" stroke="none" font-family="Arial" font-size="24px" font-style="normal" font-weight="normal" text-decoration="none" x="200" y="570">UNREGISTERED</text><text fill="#eeeeee" stroke="none" font-family="Arial" font-size="24px" font-style="normal" font-weight="normal" text-decoration="none" x="200" y="600">UNREGISTERED</text><text fill="#eeeeee" stroke="none" font-family="Arial" font-size="24px" font-style="normal" font-weight="normal" text-decoration="none" x="200" y="630">UNREGISTERED</text><text fill="#eeeeee" stroke="none" font-family="Arial" font-size="24px" font-style="normal" font-weight="normal" text-decoration="none" x="400" y="0">UNREGISTERED</text><text fill="#eeeeee" stroke="none" font-family="Arial" font-size="24px" font-style="normal" font-weight="normal" text-decoration="none" x="400" y="30">UNREGISTERED</text><text fill="#eeeeee" stroke="none" font-family="Arial" font-size="24px" font-style="normal" font-weight="normal" text-decoration="none" x="400" y="60">UNREGISTERED</text><text fill="#eeeeee" stroke="none" font-family="Arial" font-size="24px" font-style="normal" font-weight="normal" text-decoration="none" x="400" y="90">UNREGISTERED</text><text fill="#eeeeee" stroke="none" font-family="Arial" font-size="24px" font-style="normal" font-weight="normal" text-decoration="none" x="400" y="120">UNREGISTERED</text><text fill="#eeeeee" stroke="none" font-family="Arial" font-size="24px" font-style="normal" font-weight="normal" text-decoration="none" x="400" y="150">UNREGISTERED</text><text fill="#eeeeee" stroke="none" font-family="Arial" font-size="24px" font-style="normal" font-weight="normal" text-decoration="none" x="400" y="180">UNREGISTERED</text><text fill="#eeeeee" stroke="none" font-family="Arial" font-size="24px" font-style="normal" font-weight="normal" text-decoration="none" x="400" y="210">UNREGISTERED</text><text fill="#eeeeee" stroke="none" font-family="Arial" font-size="24px" font-style="normal" font-weight="normal" text-decoration="none" x="400" y="240">UNREGISTERED</text><text fill="#eeeeee" stroke="none" font-family="Arial" font-size="24px" font-style="normal" font-weight="normal" text-decoration="none" x="400" y="270">UNREGISTERED</text><text fill="#eeeeee" stroke="none" font-family="Arial" font-size="24px" font-style="normal" font-weight="normal" text-decoration="none" x="400" y="300">UNREGISTERED</text><text fill="#eeeeee" stroke="none" font-family="Arial" font-size="24px" font-style="normal" font-weight="normal" text-decoration="none" x="400" y="330">UNREGISTERED</text><text fill="#eeeeee" stroke="none" font-family="Arial" font-size="24px" font-style="normal" font-weight="normal" text-decoration="none" x="400" y="360">UNREGISTERED</text><text fill="#eeeeee" stroke="none" font-family="Arial" font-size="24px" font-style="normal" font-weight="normal" text-decoration="none" x="400" y="390">UNREGISTERED</text><text fill="#eeeeee" stroke="none" font-family="Arial" font-size="24px" font-style="normal" font-weight="normal" text-decoration="none" x="400" y="420">UNREGISTERED</text><text fill="#eeeeee" stroke="none" font-family="Arial" font-size="24px" font-style="normal" font-weight="normal" text-decoration="none" x="400" y="450">UNREGISTERED</text><text fill="#eeeeee" stroke="none" font-family="Arial" font-size="24px" font-style="normal" font-weight="normal" text-decoration="none" x="400" y="480">UNREGISTERED</text><text fill="#eeeeee" stroke="none" font-family="Arial" font-size="24px" font-style="normal" font-weight="normal" text-decoration="none" x="400" y="510">UNREGISTERED</text><text fill="#eeeeee" stroke="none" font-family="Arial" font-size="24px" font-style="normal" font-weight="normal" text-decoration="none" x="400" y="540">UNREGISTERED</text><text fill="#eeeeee" stroke="none" font-family="Arial" font-size="24px" font-style="normal" font-weight="normal" text-decoration="none" x="400" y="570">UNREGISTERED</text><text fill="#eeeeee" stroke="none" font-family="Arial" font-size="24px" font-style="normal" font-weight="normal" text-decoration="none" x="400" y="600">UNREGISTERED</text><text fill="#eeeeee" stroke="none" font-family="Arial" font-size="24px" font-style="normal" font-weight="normal" text-decoration="none" x="400" y="630">UNREGISTERED</text><text fill="#eeeeee" stroke="none" font-family="Arial" font-size="24px" font-style="normal" font-weight="normal" text-decoration="none" x="600" y="0">UNREGISTERED</text><text fill="#eeeeee" stroke="none" font-family="Arial" font-size="24px" font-style="normal" font-weight="normal" text-decoration="none" x="600" y="30">UNREGISTERED</text><text fill="#eeeeee" stroke="none" font-family="Arial" font-size="24px" font-style="normal" font-weight="normal" text-decoration="none" x="600" y="60">UNREGISTERED</text><text fill="#eeeeee" stroke="none" font-family="Arial" font-size="24px" font-style="normal" font-weight="normal" text-decoration="none" x="600" y="90">UNREGISTERED</text><text fill="#eeeeee" stroke="none" font-family="Arial" font-size="24px" font-style="normal" font-weight="normal" text-decoration="none" x="600" y="120">UNREGISTERED</text><text fill="#eeeeee" stroke="none" font-family="Arial" font-size="24px" font-style="normal" font-weight="normal" text-decoration="none" x="600" y="150">UNREGISTERED</text><text fill="#eeeeee" stroke="none" font-family="Arial" font-size="24px" font-style="normal" font-weight="normal" text-decoration="none" x="600" y="180">UNREGISTERED</text><text fill="#eeeeee" stroke="none" font-family="Arial" font-size="24px" font-style="normal" font-weight="normal" text-decoration="none" x="600" y="210">UNREGISTERED</text><text fill="#eeeeee" stroke="none" font-family="Arial" font-size="24px" font-style="normal" font-weight="normal" text-decoration="none" x="600" y="240">UNREGISTERED</text><text fill="#eeeeee" stroke="none" font-family="Arial" font-size="24px" font-style="normal" font-weight="normal" text-decoration="none" x="600" y="270">UNREGISTERED</text><text fill="#eeeeee" stroke="none" font-family="Arial" font-size="24px" font-style="normal" font-weight="normal" text-decoration="none" x="600" y="300">UNREGISTERED</text><text fill="#eeeeee" stroke="none" font-family="Arial" font-size="24px" font-style="normal" font-weight="normal" text-decoration="none" x="600" y="330">UNREGISTERED</text><text fill="#eeeeee" stroke="none" font-family="Arial" font-size="24px" font-style="normal" font-weight="normal" text-decoration="none" x="600" y="360">UNREGISTERED</text><text fill="#eeeeee" stroke="none" font-family="Arial" font-size="24px" font-style="normal" font-weight="normal" text-decoration="none" x="600" y="390">UNREGISTERED</text><text fill="#eeeeee" stroke="none" font-family="Arial" font-size="24px" font-style="normal" font-weight="normal" text-decoration="none" x="600" y="420">UNREGISTERED</text><text fill="#eeeeee" stroke="none" font-family="Arial" font-size="24px" font-style="normal" font-weight="normal" text-decoration="none" x="600" y="450">UNREGISTERED</text><text fill="#eeeeee" stroke="none" font-family="Arial" font-size="24px" font-style="normal" font-weight="normal" text-decoration="none" x="600" y="480">UNREGISTERED</text><text fill="#eeeeee" stroke="none" font-family="Arial" font-size="24px" font-style="normal" font-weight="normal" text-decoration="none" x="600" y="510">UNREGISTERED</text><text fill="#eeeeee" stroke="none" font-family="Arial" font-size="24px" font-style="normal" font-weight="normal" text-decoration="none" x="600" y="540">UNREGISTERED</text><text fill="#eeeeee" stroke="none" font-family="Arial" font-size="24px" font-style="normal" font-weight="normal" text-decoration="none" x="600" y="570">UNREGISTERED</text><text fill="#eeeeee" stroke="none" font-family="Arial" font-size="24px" font-style="normal" font-weight="normal" text-decoration="none" x="600" y="600">UNREGISTERED</text><text fill="#eeeeee" stroke="none" font-family="Arial" font-size="24px" font-style="normal" font-weight="normal" text-decoration="none" x="600" y="630">UNREGISTERED</text><text fill="#eeeeee" stroke="none" font-family="Arial" font-size="24px" font-style="normal" font-weight="normal" text-decoration="none" x="800" y="0">UNREGISTERED</text><text fill="#eeeeee" stroke="none" font-family="Arial" font-size="24px" font-style="normal" font-weight="normal" text-decoration="none" x="800" y="30">UNREGISTERED</text><text fill="#eeeeee" stroke="none" font-family="Arial" font-size="24px" font-style="normal" font-weight="normal" text-decoration="none" x="800" y="60">UNREGISTERED</text><text fill="#eeeeee" stroke="none" font-family="Arial" font-size="24px" font-style="normal" font-weight="normal" text-decoration="none" x="800" y="90">UNREGISTERED</text><text fill="#eeeeee" stroke="none" font-family="Arial" font-size="24px" font-style="normal" font-weight="normal" text-decoration="none" x="800" y="120">UNREGISTERED</text><text fill="#eeeeee" stroke="none" font-family="Arial" font-size="24px" font-style="normal" font-weight="normal" text-decoration="none" x="800" y="150">UNREGISTERED</text><text fill="#eeeeee" stroke="none" font-family="Arial" font-size="24px" font-style="normal" font-weight="normal" text-decoration="none" x="800" y="180">UNREGISTERED</text><text fill="#eeeeee" stroke="none" font-family="Arial" font-size="24px" font-style="normal" font-weight="normal" text-decoration="none" x="800" y="210">UNREGISTERED</text><text fill="#eeeeee" stroke="none" font-family="Arial" font-size="24px" font-style="normal" font-weight="normal" text-decoration="none" x="800" y="240">UNREGISTERED</text><text fill="#eeeeee" stroke="none" font-family="Arial" font-size="24px" font-style="normal" font-weight="normal" text-decoration="none" x="800" y="270">UNREGISTERED</text><text fill="#eeeeee" stroke="none" font-family="Arial" font-size="24px" font-style="normal" font-weight="normal" text-decoration="none" x="800" y="300">UNREGISTERED</text><text fill="#eeeeee" stroke="none" font-family="Arial" font-size="24px" font-style="normal" font-weight="normal" text-decoration="none" x="800" y="330">UNREGISTERED</text><text fill="#eeeeee" stroke="none" font-family="Arial" font-size="24px" font-style="normal" font-weight="normal" text-decoration="none" x="800" y="360">UNREGISTERED</text><text fill="#eeeeee" stroke="none" font-family="Arial" font-size="24px" font-style="normal" font-weight="normal" text-decoration="none" x="800" y="390">UNREGISTERED</text><text fill="#eeeeee" stroke="none" font-family="Arial" font-size="24px" font-style="normal" font-weight="normal" text-decoration="none" x="800" y="420">UNREGISTERED</text><text fill="#eeeeee" stroke="none" font-family="Arial" font-size="24px" font-style="normal" font-weight="normal" text-decoration="none" x="800" y="450">UNREGISTERED</text><text fill="#eeeeee" stroke="none" font-family="Arial" font-size="24px" font-style="normal" font-weight="normal" text-decoration="none" x="800" y="480">UNREGISTERED</text><text fill="#eeeeee" stroke="none" font-family="Arial" font-size="24px" font-style="normal" font-weight="normal" text-decoration="none" x="800" y="510">UNREGISTERED</text><text fill="#eeeeee" stroke="none" font-family="Arial" font-size="24px" font-style="normal" font-weight="normal" text-decoration="none" x="800" y="540">UNREGISTERED</text><text fill="#eeeeee" stroke="none" font-family="Arial" font-size="24px" font-style="normal" font-weight="normal" text-decoration="none" x="800" y="570">UNREGISTERED</text><text fill="#eeeeee" stroke="none" font-family="Arial" font-size="24px" font-style="normal" font-weight="normal" text-decoration="none" x="800" y="600">UNREGISTERED</text><text fill="#eeeeee" stroke="none" font-family="Arial" font-size="24px" font-style="normal" font-weight="normal" text-decoration="none" x="800" y="630">UNREGISTERED</text><g transform="translate(-179,-22) scale(1,1)"><rect fill="#ffffd8" stroke="none" x="840" y="280" width="180.62158203125" height="160"/></g><g transform="translate(-179,-22) scale(1,1)"><path fill="none" stroke="#3f0000" d="M 840 280 L 1020.62158203125 280 L 1020.62158203125 440 L 840 440 L 840 280 Z Z" stroke-miterlimit="10"/></g><g transform="translate(-179,-22) scale(1,1)"><path fill="none" stroke="#3f0000" d="M 840 305 L 1020.62158203125 305" stroke-miterlimit="10"/></g><g transform="translate(-179,-22) scale(1,1)"><path fill="none" stroke="#3f0000" d="M 840 403 L 1020.62158203125 403" stroke-miterlimit="10"/></g><g transform="translate(-179,-22) scale(1,1)"><g><path fill="none" stroke="none"/><text fill="#000000" stroke="none" font-family="Arial" font-size="13px" font-style="normal" font-weight="bold" text-decoration="none" x="913.689453125" y="299.5">Event</text></g></g><g transform="translate(-179,-22) scale(1,1)"><g><path fill="none" stroke="none"/><text fill="#000000" stroke="none" font-family="Arial" font-size="13px" font-style="normal" font-weight="normal" text-decoration="none" x="845" y="322.5">+eventID: int</text></g></g><g transform="translate(-179,-22) scale(1,1)"><g><path fill="none" stroke="none"/><text fill="#000000" stroke="none" font-family="Arial" font-size="13px" font-style="normal" font-weight="normal" text-decoration="none" x="845" y="337.5">+description: String</text></g></g><g transform="translate(-179,-22) scale(1,1)"><g><path fill="none" stroke="none"/><text fill="#000000" stroke="none" font-family="Arial" font-size="13px" font-style="normal" font-weight="normal" text-decoration="none" x="845" y="352.5">+eventDate: Date</text></g></g><g transform="translate(-179,-22) scale(1,1)"><g><path fill="none" stroke="none"/><text fill="#000000" stroke="none" font-family="Arial" font-size="13px" font-style="normal" font-weight="normal" text-decoration="none" x="845" y="367.5">+posibleResults: List&lt;Result&gt;</text></g></g><g transform="translate(-179,-22) scale(1,1)"><g><path fill="none" stroke="none"/><text fill="#000000" stroke="none" font-family="Arial" font-size="13px" font-style="normal" font-weight="normal" text-decoration="none" x="845" y="382.5">+canDraw: boolean</text></g></g><g transform="translate(-179,-22) scale(1,1)"><g><path fill="none" stroke="none"/><text fill="#000000" stroke="none" font-family="Arial" font-size="13px" font-style="normal" font-weight="normal" text-decoration="none" x="845" y="397.5">+questions: List&lt;Question&gt;</text></g></g><g transform="translate(-179,-22) scale(1,1)"><g><path fill="none" stroke="none"/><text fill="#000000" stroke="none" font-family="Arial" font-size="13px" font-style="normal" font-weight="normal" text-decoration="none" x="845" y="420.5">+addQuestion(q, minBet)</text></g></g><g transform="translate(-179,-22) scale(1,1)"><g><path fill="none" stroke="none"/><text fill="#000000" stroke="none" font-family="Arial" font-size="13px" font-style="normal" font-weight="normal" text-decoration="none" x="845" y="435.5">+doesQuestionExist(q)</text></g></g><g transform="translate(-179,-22) scale(1,1)"><rect fill="#C0C0C0" stroke="none" x="495" y="335" width="187.12158203125" height="117" opacity="0.2"/></g><g transform="translate(-179,-22) scale(1,1)"><rect fill="#ffffd8" stroke="none" x="488" y="328" width="187.12158203125" height="117"/></g><g transform="translate(-179,-22) scale(1,1)"><path fill="none" stroke="#3f0000" d="M 488 328 L 675.12158203125 328 L 675.12158203125 445 L 488 445 L 488 328 Z Z" stroke-miterlimit="10"/></g><g transform="translate(-179,-22) scale(1,1)"><path fill="none" stroke="#3f0000" d="M 488 353 L 675.12158203125 353" stroke-miterlimit="10"/></g><g transform="translate(-179,-22) scale(1,1)"><path fill="none" stroke="#3f0000" d="M 488 436 L 675.12158203125 436" stroke-miterlimit="10"/></g><g transform="translate(-179,-22) scale(1,1)"><g><path fill="none" stroke="none"/><text fill="#000000" stroke="none" font-family="Arial" font-size="13px" font-style="normal" font-weight="bold" text-decoration="none" x="555.544921875" y="347.5">Question</text></g></g><g transform="translate(-179,-22) scale(1,1)"><g><path fill="none" stroke="none"/><text fill="#000000" stroke="none" font-family="Arial" font-size="13px" font-style="normal" font-weight="normal" text-decoration="none" x="493" y="370.5">+questionID: int</text></g></g><g transform="translate(-179,-22) scale(1,1)"><g><path fill="none" stroke="none"/><text fill="#000000" stroke="none" font-family="Arial" font-size="13px" font-style="normal" font-weight="normal" text-decoration="none" x="493" y="385.5">+question: String</text></g></g><g transform="translate(-179,-22) scale(1,1)"><g><path fill="none" stroke="none"/><text fill="#000000" stroke="none" font-family="Arial" font-size="13px" font-style="normal" font-weight="normal" text-decoration="none" x="493" y="400.5">+betMinimum: float</text></g></g><g transform="translate(-179,-22) scale(1,1)"><g><path fill="none" stroke="none"/><text fill="#000000" stroke="none" font-family="Arial" font-size="13px" font-style="normal" font-weight="normal" text-decoration="none" x="493" y="415.5">+result: String</text></g></g><g transform="translate(-179,-22) scale(1,1)"><g><path fill="none" stroke="none"/><text fill="#000000" stroke="none" font-family="Arial" font-size="13px" font-style="normal" font-weight="normal" text-decoration="none" x="493" y="430.5">+posibleResults: List&lt;Results&gt;</text></g></g><g transform="translate(-179,-22) scale(1,1)"><rect fill="#C0C0C0" stroke="none" x="855" y="607" width="101.853515625" height="72" opacity="0.2"/></g><g transform="translate(-179,-22) scale(1,1)"><rect fill="#ffffd8" stroke="none" x="848" y="600" width="101.853515625" height="72"/></g><g transform="translate(-179,-22) scale(1,1)"><path fill="none" stroke="#000000" d="M 848 600 L 949.853515625 600 L 949.853515625 672 L 848 672 L 848 600 Z Z" stroke-miterlimit="10"/></g><g transform="translate(-179,-22) scale(1,1)"><path fill="none" stroke="#000000" d="M 848 625 L 949.853515625 625" stroke-miterlimit="10"/></g><g transform="translate(-179,-22) scale(1,1)"><path fill="none" stroke="#000000" d="M 848 663 L 949.853515625 663" stroke-miterlimit="10"/></g><g transform="translate(-179,-22) scale(1,1)"><g><path fill="none" stroke="none"/><text fill="#000000" stroke="none" font-family="Arial" font-size="13px" font-style="normal" font-weight="bold" text-decoration="none" x="880.502685546875" y="619.5">Result</text></g></g><g transform="translate(-179,-22) scale(1,1)"><g><path fill="none" stroke="none"/><text fill="#000000" stroke="none" font-family="Arial" font-size="13px" font-style="normal" font-weight="normal" text-decoration="none" x="853" y="642.5">+Menber: String</text></g></g><g transform="translate(-179,-22) scale(1,1)"><g><path fill="none" stroke="none"/><text fill="#000000" stroke="none" font-family="Arial" font-size="13px" font-style="normal" font-weight="normal" text-decoration="none" x="853" y="657.5">+value: Double</text></g></g><g transform="translate(-179,-22) scale(1,1)"><path fill="none" stroke="#000000" d="M 904 440 L 904 600" stroke-miterlimit="10"/></g><g transform="translate(-179,-22) scale(1,1)"><path fill="none" stroke="#000000" d="M 899.790482243984 589.8373251423759 L 904 600 L 908.209517756016 589.8373251423759" stroke-miterlimit="10"/></g><g transform="translate(-179,-22) scale(1,1)"><path fill="none" stroke="#000000" d="M 577 445 L 577 636 L 848 636" stroke-miterlimit="10"/></g><g transform="translate(-179,-22) scale(1,1)"><path fill="none" stroke="#000000" d="M 837.8373251423759 640.209517756016 L 848 636 L 837.8373251423758 631.790482243984" stroke-miterlimit="10"/></g><g transform="translate(-179,-22) scale(1,1)"><rect fill="#C0C0C0" stroke="none" x="247" y="63" width="166.37744140625" height="117" opacity="0.2"/></g><g transform="translate(-179,-22) scale(1,1)"><rect fill="#ffffff" stroke="none" x="240" y="56" width="166.37744140625" height="117"/></g><g transform="translate(-179,-22) scale(1,1)"><path fill="none" stroke="#000000" d="M 240 56 L 406.37744140625 56 L 406.37744140625 173 L 240 173 L 240 56 Z Z" stroke-miterlimit="10"/></g><g transform="translate(-179,-22) scale(1,1)"><path fill="none" stroke="#000000" d="M 240 81 L 406.37744140625 81" stroke-miterlimit="10"/></g><g transform="translate(-179,-22) scale(1,1)"><path fill="none" stroke="#000000" d="M 240 164 L 406.37744140625 164" stroke-miterlimit="10"/></g><g transform="translate(-179,-22) scale(1,1)"><g><path fill="none" stroke="none"/><text fill="#000000" stroke="none" font-family="Arial" font-size="13px" font-style="normal" font-weight="bold" text-decoration="none" x="309.465087890625" y="75.5">User</text></g></g><g transform="translate(-179,-22) scale(1,1)"><g><path fill="none" stroke="none"/><text fill="#000000" stroke="none" font-family="Arial" font-size="13px" font-style="normal" font-weight="normal" text-decoration="none" x="245" y="98.5">+userID: int</text></g></g><g transform="translate(-179,-22) scale(1,1)"><g><path fill="none" stroke="none"/><text fill="#000000" stroke="none" font-family="Arial" font-size="13px" font-style="normal" font-weight="normal" text-decoration="none" x="245" y="113.5">+virtualWallet: VirtualWallet</text></g></g><g transform="translate(-179,-22) scale(1,1)"><g><path fill="none" stroke="none"/><text fill="#000000" stroke="none" font-family="Arial" font-size="13px" font-style="normal" font-weight="normal" text-decoration="none" x="245" y="128.5">+password: String</text></g></g><g transform="translate(-179,-22) scale(1,1)"><g><path fill="none" stroke="none"/><text fill="#000000" stroke="none" font-family="Arial" font-size="13px" font-style="normal" font-weight="normal" text-decoration="none" x="245" y="143.5">+username: String</text></g></g><g transform="translate(-179,-22) scale(1,1)"><g><path fill="none" stroke="none"/><text fill="#000000" stroke="none" font-family="Arial" font-size="13px" font-style="normal" font-weight="normal" text-decoration="none" x="245" y="158.5">+wallet: VirtuallWallet</text></g></g><g transform="translate(-179,-22) scale(1,1)"><rect fill="#C0C0C0" stroke="none" x="196" y="286" width="193.60888671875" height="117" opacity="0.2"/></g><g transform="translate(-179,-22) scale(1,1)"><rect fill="#ffffff" stroke="none" x="189" y="279" width="193.60888671875" height="117"/></g><g transform="translate(-179,-22) scale(1,1)"><path fill="none" stroke="#000000" d="M 189 279 L 382.60888671875 279 L 382.60888671875 396 L 189 396 L 189 279 Z Z" stroke-miterlimit="10"/></g><g transform="translate(-179,-22) scale(1,1)"><path fill="none" stroke="#000000" d="M 189 304 L 382.60888671875 304" stroke-miterlimit="10"/></g><g transform="translate(-179,-22) scale(1,1)"><path fill="none" stroke="#000000" d="M 189 387 L 382.60888671875 387" stroke-miterlimit="10"/></g><g transform="translate(-179,-22) scale(1,1)"><g><path fill="none" stroke="none"/><text fill="#000000" stroke="none" font-family="Arial" font-size="13px" font-style="normal" font-weight="bold" text-decoration="none" x="249.679931640625" y="298.5">VirtualWallet</text></g></g><g transform="translate(-179,-22) scale(1,1)"><g><path fill="none" stroke="none"/><text fill="#000000" stroke="none" font-family="Arial" font-size="13px" font-style="normal" font-weight="normal" text-decoration="none" x="194" y="321.5">+user: User</text></g></g><g transform="translate(-179,-22) scale(1,1)"><g><path fill="none" stroke="none"/><text fill="#000000" stroke="none" font-family="Arial" font-size="13px" font-style="normal" font-weight="normal" text-decoration="none" x="194" y="336.5">+money: double</text></g></g><g transform="translate(-179,-22) scale(1,1)"><g><path fill="none" stroke="none"/><text fill="#000000" stroke="none" font-family="Arial" font-size="13px" font-style="normal" font-weight="normal" text-decoration="none" x="194" y="351.5">+movements: List&lt;Movements&gt;</text></g></g><g transform="translate(-179,-22) scale(1,1)"><g><path fill="none" stroke="none"/><text fill="#000000" stroke="none" font-family="Arial" font-size="13px" font-style="normal" font-weight="normal" text-decoration="none" x="194" y="366.5">+id: int</text></g></g><g transform="translate(-179,-22) scale(1,1)"><g><path fill="none" stroke="none"/><text fill="#000000" stroke="none" font-family="Arial" font-size="13px" font-style="normal" font-weight="normal" text-decoration="none" x="194" y="381.5">+points: double</text></g></g><g transform="translate(-179,-22) scale(1,1)"><path fill="none" stroke="#000000" d="M 320 279 L 320 173" stroke-miterlimit="10"/></g><g transform="translate(-179,-22) scale(1,1)"><path fill="#FFFFFF" stroke="none" d="M 324.209517756016 183.16267485762415 L 320 173 L 315.790482243984 183.16267485762415 L 320 195"/></g><g transform="translate(-179,-22) scale(1,1)"><path fill="none" stroke="#000000" d="M 324.209517756016 183.16267485762415 L 320 173 L 315.790482243984 183.16267485762415 L 320 195 L 324.209517756016 183.16267485762415" stroke-miterlimit="10"/></g><g transform="translate(-179,-22) scale(1,1)"><rect fill="#C0C0C0" stroke="none" x="228" y="454" width="111.95263671875" height="117" opacity="0.2"/></g><g transform="translate(-179,-22) scale(1,1)"><rect fill="#ffffff" stroke="none" x="221" y="447" width="111.95263671875" height="117"/></g><g transform="translate(-179,-22) scale(1,1)"><path fill="none" stroke="#000000" d="M 221 447 L 332.95263671875 447 L 332.95263671875 564 L 221 564 L 221 447 Z Z" stroke-miterlimit="10"/></g><g transform="translate(-179,-22) scale(1,1)"><path fill="none" stroke="#000000" d="M 221 472 L 332.95263671875 472" stroke-miterlimit="10"/></g><g transform="translate(-179,-22) scale(1,1)"><path fill="none" stroke="#000000" d="M 221 555 L 332.95263671875 555" stroke-miterlimit="10"/></g><g transform="translate(-179,-22) scale(1,1)"><g><path fill="none" stroke="none"/><text fill="#000000" stroke="none" font-family="Arial" font-size="13px" font-style="normal" font-weight="bold" text-decoration="none" x="246.63134765625" y="466.5">Movement</text></g></g><g transform="translate(-179,-22) scale(1,1)"><g><path fill="none" stroke="none"/><text fill="#000000" stroke="none" font-family="Arial" font-size="13px" font-style="normal" font-weight="normal" text-decoration="none" x="226" y="489.5">+id: int</text></g></g><g transform="translate(-179,-22) scale(1,1)"><g><path fill="none" stroke="none"/><text fill="#000000" stroke="none" font-family="Arial" font-size="13px" font-style="normal" font-weight="normal" text-decoration="none" x="226" y="504.5">+vw: VirtualWallet</text></g></g><g transform="translate(-179,-22) scale(1,1)"><g><path fill="none" stroke="none"/><text fill="#000000" stroke="none" font-family="Arial" font-size="13px" font-style="normal" font-weight="normal" text-decoration="none" x="226" y="519.5">+movDate: Date</text></g></g><g transform="translate(-179,-22) scale(1,1)"><g><path fill="none" stroke="none"/><text fill="#000000" stroke="none" font-family="Arial" font-size="13px" font-style="normal" font-weight="normal" text-decoration="none" x="226" y="534.5">+amount: double</text></g></g><g transform="translate(-179,-22) scale(1,1)"><g><path fill="none" stroke="none"/><text fill="#000000" stroke="none" font-family="Arial" font-size="13px" font-style="normal" font-weight="normal" text-decoration="none" x="226" y="549.5">+option: char</text></g></g><g transform="translate(-179,-22) scale(1,1)"><path fill="none" stroke="#000000" d="M 275 447 L 275 396" stroke-miterlimit="10"/></g><g transform="translate(-179,-22) scale(1,1)"><path fill="#FFFFFF" stroke="none" d="M 279.209517756016 406.16267485762415 L 275 396 L 270.790482243984 406.16267485762415 L 275 418"/></g><g transform="translate(-179,-22) scale(1,1)"><path fill="none" stroke="#000000" d="M 279.209517756016 406.16267485762415 L 275 396 L 270.790482243984 406.16267485762415 L 275 418 L 279.209517756016 406.16267485762415" stroke-miterlimit="10"/></g><g transform="translate(-179,-22) scale(1,1)"><rect fill="#C0C0C0" stroke="none" x="495" y="39" width="171.95703125" height="87" opacity="0.2"/></g><g transform="translate(-179,-22) scale(1,1)"><rect fill="#ffffd8" stroke="none" x="488" y="32" width="171.95703125" height="87"/></g><g transform="translate(-179,-22) scale(1,1)"><path fill="none" stroke="#000000" d="M 488 32 L 659.95703125 32 L 659.95703125 119 L 488 119 L 488 32 Z Z" stroke-miterlimit="10"/></g><g transform="translate(-179,-22) scale(1,1)"><path fill="none" stroke="#000000" d="M 488 57 L 659.95703125 57" stroke-miterlimit="10"/></g><g transform="translate(-179,-22) scale(1,1)"><path fill="none" stroke="#000000" d="M 488 110 L 659.95703125 110" stroke-miterlimit="10"/></g><g transform="translate(-179,-22) scale(1,1)"><g><path fill="none" stroke="none"/><text fill="#000000" stroke="none" font-family="Arial" font-size="13px" font-style="normal" font-weight="bold" text-decoration="none" x="558.442626953125" y="51.5">Sport</text></g></g><g transform="translate(-179,-22) scale(1,1)"><g><path fill="none" stroke="none"/><text fill="#000000" stroke="none" font-family="Arial" font-size="13px" font-style="normal" font-weight="normal" text-decoration="none" x="493" y="74.5">+sportName: String</text></g></g><g transform="translate(-179,-22) scale(1,1)"><g><path fill="none" stroke="none"/><text fill="#000000" stroke="none" font-family="Arial" font-size="13px" font-style="normal" font-weight="normal" text-decoration="none" x="493" y="89.5">+sportID: int</text></g></g><g transform="translate(-179,-22) scale(1,1)"><g><path fill="none" stroke="none"/><text fill="#000000" stroke="none" font-family="Arial" font-size="13px" font-style="normal" font-weight="normal" text-decoration="none" x="493" y="104.5">+categories: List&lt;Category&gt;</text></g></g><g transform="translate(-179,-22) scale(1,1)"><rect fill="#C0C0C0" stroke="none" x="799" y="39" width="142.3134765625" height="87" opacity="0.2"/></g><g transform="translate(-179,-22) scale(1,1)"><rect fill="#ffffd8" stroke="none" x="792" y="32" width="142.3134765625" height="87"/></g><g transform="translate(-179,-22) scale(1,1)"><path fill="none" stroke="#000000" d="M 792 32 L 934.3134765625 32 L 934.3134765625 119 L 792 119 L 792 32 Z Z" stroke-miterlimit="10"/></g><g transform="translate(-179,-22) scale(1,1)"><path fill="none" stroke="#000000" d="M 792 57 L 934.3134765625 57" stroke-miterlimit="10"/></g><g transform="translate(-179,-22) scale(1,1)"><path fill="none" stroke="#000000" d="M 792 110 L 934.3134765625 110" stroke-miterlimit="10"/></g><g transform="translate(-179,-22) scale(1,1)"><g><path fill="none" stroke="none"/><text fill="#000000" stroke="none" font-family="Arial" font-size="13px" font-style="normal" font-weight="bold" text-decoration="none" x="836.7822265625" y="51.5">Category</text></g></g><g transform="translate(-179,-22) scale(1,1)"><g><path fill="none" stroke="none"/><text fill="#000000" stroke="none" font-family="Arial" font-size="13px" font-style="normal" font-weight="normal" text-decoration="none" x="797" y="74.5">+categoryName: String</text></g></g><g transform="translate(-179,-22) scale(1,1)"><g><path fill="none" stroke="none"/><text fill="#000000" stroke="none" font-family="Arial" font-size="13px" font-style="normal" font-weight="normal" text-decoration="none" x="797" y="89.5">+categoryID: int</text></g></g><g transform="translate(-179,-22) scale(1,1)"><g><path fill="none" stroke="none"/><text fill="#000000" stroke="none" font-family="Arial" font-size="13px" font-style="normal" font-weight="normal" text-decoration="none" x="797" y="104.5">+events: List&lt;Event&gt;</text></g></g><g transform="translate(-179,-22) scale(1,1)"><path fill="none" stroke="#000000" d="M 792 75 L 660 75" stroke-miterlimit="10"/></g><g transform="translate(-179,-22) scale(1,1)"><path fill="#000000" stroke="none" d="M 670.1626748576241 70.79048224398402 L 660 75 L 670.1626748576241 79.20951775601598 L 682 75"/></g><g transform="translate(-179,-22) scale(1,1)"><path fill="none" stroke="#000000" d="M 670.1626748576241 70.79048224398402 L 660 75 L 670.1626748576241 79.20951775601598 L 682 75 L 670.1626748576241 70.79048224398402" stroke-miterlimit="10"/></g><g transform="translate(-179,-22) scale(1,1)"><path fill="none" stroke="#000000" d="M 873 280 L 873 119" stroke-miterlimit="10"/></g><g transform="translate(-179,-22) scale(1,1)"><path fill="#000000" stroke="none" d="M 877.209517756016 129.16267485762415 L 873 119 L 868.790482243984 129.16267485762415 L 873 141"/></g><g transform="translate(-179,-22) scale(1,1)"><path fill="none" stroke="#000000" d="M 877.209517756016 129.16267485762415 L 873 119 L 868.790482243984 129.16267485762415 L 873 141 L 877.209517756016 129.16267485762415" stroke-miterlimit="10"/></g><g transform="translate(-179,-22) scale(1,1)"><path fill="none" stroke="#000000" d="M 675 381 L 840 381" stroke-miterlimit="10"/></g><g transform="translate(-179,-22) scale(1,1)"><path fill="#000000" stroke="none" d="M 829.8373251423759 385.209517756016 L 840 381 L 829.8373251423758 376.790482243984 L 818 381"/></g><g transform="translate(-179,-22) scale(1,1)"><path fill="none" stroke="#000000" d="M 829.8373251423759 385.209517756016 L 840 381 L 829.8373251423758 376.790482243984 L 818 381 L 829.8373251423759 385.209517756016" stroke-miterlimit="10"/></g></g></svg>