<svg version="1.1" xmlns="http://www.w3.org/2000/svg" xmlns:xlink="http://www.w3.org/1999/xlink" width="832.91357421875" height="708"><defs/><g><text fill="#eeeeee" stroke="none" font-family="Arial" font-size="24px" font-style="normal" font-weight="normal" text-decoration="none" x="0" y="0">UNREGISTERED</text><text fill="#eeeeee" stroke="none" font-family="Arial" font-size="24px" font-style="normal" font-weight="normal" text-decoration="none" x="0" y="30">UNREGISTERED</text><text fill="#eeeeee" stroke="none" font-family="Arial" font-size="24px" font-style="normal" font-weight="normal" text-decoration="none" x="0" y="60">UNREGISTERED</text><text fill="#eeeeee" stroke="none" font-family="Arial" font-size="24px" font-style="normal" font-weight="normal" text-decoration="none" x="0" y="90">UNREGISTERED</text><text fill="#eeeeee" stroke="none" font-family="Arial" font-size="24px" font-style="normal" font-weight="normal" text-decoration="none" x="0" y="120">UNREGISTERED</text><text fill="#eeeeee" stroke="none" font-family="Arial" font-size="24px" font-style="normal" font-weight="normal" text-decoration="none" x="0" y="150">UNREGISTERED</text><text fill="#eeeeee" stroke="none" font-family="Arial" font-size="24px" font-style="normal" font-weight="normal" text-decoration="none" x="0" y="180">UNREGISTERED</text><text fill="#eeeeee" stroke="none" font-family="Arial" font-size="24px" font-style="normal" font-weight="normal" text-decoration="none" x="0" y="210">UNREGISTERED</text><text fill="#eeeeee" stroke="none" font-family="Arial" font-size="24px" font-style="normal" font-weight="normal" text-decoration="none" x="0" y="240">UNREGISTERED</text><text fill="#eeeeee" stroke="none" font-family="Arial" font-size="24px" font-style="normal" font-weight="normal" text-decoration="none" x="0" y="270">UNREGISTERED</text><text fill="#eeeeee" stroke="none" font-family="Arial" font-size="24px" font-style="normal" font-weight="normal" text-decoration="none" x="0" y="300">UNREGISTERED</text><text fill="#eeeeee" stroke="none" font-family="Arial" font-size="24px" font-style="normal" font-weight="normal" text-decoration="none" x="0" y="330">UNREGISTERED</text><text fill="#eeeeee" stroke="none" font-family="Arial" font-size="24px" font-style="normal" font-weight="normal" text-decoration="none" x="0" y="360">UNREGISTERED</text><text fill="#eeeeee" stroke="none" font-family="Arial" font-size="24px" font-style="normal" font-weight="normal" text-decoration="none" x="0" y="390">UNREGISTERED</text><text fill="#eeeeee" stroke="none" font-family="Arial" font-size="24px" font-style="normal" font-weight="normal" text-decoration="none" x="0" y="420">UNREGISTERED</text><text fill="#eeeeee" stroke="none" font-family="Arial" font-size="24px" font-style="normal" font-weight="normal" text-decoration="none" x="0" y="450">UNREGISTERED</text><text fill="#eeeeee" stroke="none" font-family="Arial" font-size="24px" font-style="normal" font-weight="normal" text-decoration="none" x="0" y="480">UNREGISTERED</text><text fill="#eeeeee" stroke="none" font-family="Arial" font-size="24px" font-style="normal" font-weight="normal" text-decoration="none" x="0" y="510">UNREGISTERED</text><text fill="#eeeeee" stroke="none" font-family="Arial" font-size="24px" font-style="normal" font-weight="normal" text-decoration="none" x="0" y="540">UNREGISTERED</text><text fill="#eeeeee" stroke="none" font-family="Arial" font-size="24px" font-style="normal" font-weight="normal" text-decoration="none" x="0" y="570">UNREGISTERED</text><text fill="#eeeeee" stroke="none" font-family="Arial" font-size="24px" font-style="normal" font-weight="normal" text-decoration="none" x="0" y="600">UNREGISTERED</text><text fill="#eeeeee" stroke="none" font-family="Arial" font-size="24px" font-style="normal" font-weight="normal" text-decoration="none" x="0" y="630">UNREGISTERED</text><text fill="#eeeeee" stroke="none" font-family="Arial" font-size="24px" font-style="normal" font-weight="normal" text-decoration="none" x="0" y="660">UNREGISTERED</text><text fill="#eeeeee" stroke="none" font-family="Arial" font-size="24px" font-style="normal" font-weight="normal" text-decoration="none" x="0" y="690">UNREGISTERED</text><text fill="#eeeeee" stroke="none" font-family="Arial" font-size="24px" font-style="normal" font-weight="normal" text-decoration="none" x="200" y="0">UNREGISTERED</text><text fill="#eeeeee" stroke="none" font-family="Arial" font-size="24px" font-style="normal" font-weight="normal" text-decoration="none" x="200" y="30">UNREGISTERED</text><text fill="#eeeeee" stroke="none" font-family="Arial" font-size="24px" font-style="normal" font-weight="normal" text-decoration="none" x="200" y="60">UNREGISTERED</text><text fill="#eeeeee" stroke="none" font-family="Arial" font-size="24px" font-style="normal" font-weight="normal" text-decoration="none" x="200" y="90">UNREGISTERED</text><text fill="#eeeeee" stroke="none" font-family="Arial" font-size="24px" font-style="normal" font-weight="normal" text-decoration="none" x="200" y="120">UNREGISTERED</text><text fill="#eeeeee" stroke="none" font-family="Arial" font-size="24px" font-style="normal" font-weight="normal" text-decoration="none" x="200" y="150">UNREGISTERED</text><text fill="#eeeeee" stroke="none" font-family="Arial" font-size="24px" font-style="normal" font-weight="normal" text-decoration="none" x="200" y="180">UNREGISTERED</text><text fill="#eeeeee" stroke="none" font-family="Arial" font-size="24px" font-style="normal" font-weight="normal" text-decoration="none" x="200" y="210">UNREGISTERED</text><text fill="#eeeeee" stroke="none" font-family="Arial" font-size="24px" font-style="normal" font-weight="normal" text-decoration="none" x="200" y="240">UNREGISTERED</text><text fill="#eeeeee" stroke="none" font-family="Arial" font-size="24px" font-style="normal" font-weight="normal" text-decoration="none" x="200" y="270">UNREGISTERED</text><text fill="#eeeeee" stroke="none" font-family="Arial" font-size="24px" font-style="normal" font-weight="normal" text-decoration="none" x="200" y="300">UNREGISTERED</text><text fill="#eeeeee" stroke="none" font-family="Arial" font-size="24px" font-style="normal" font-weight="normal" text-decoration="none" x="200" y="330">UNREGISTERED</text><text fill="#eeeeee" stroke="none" font-family="Arial" font-size="24px" font-style="normal" font-weight="normal" text-decoration="none" x="200" y="360">UNREGISTERED</text><text fill="#eeeeee" stroke="none" font-family="Arial" font-size="24px" font-style="normal" font-weight="normal" text-decoration="none" x="200" y="390">UNREGISTERED</text><text fill="#eeeeee" stroke="none" font-family="Arial" font-size="24px" font-style="normal" font-weight="normal" text-decoration="none" x="200" y="420">UNREGISTERED</text><text fill="#eeeeee" stroke="none" font-family="Arial" font-size="24px" font-style="normal" font-weight="normal" text-decoration="none" x="200" y="450">UNREGISTERED</text><text fill="#eeeeee" stroke="none" font-family="Arial" font-size="24px" font-style="normal" font-weight="normal" text-decoration="none" x="200" y="480">UNREGISTERED</text><text fill="#eeeeee" stroke="none" font-family="Arial" font-size="24px" font-style="normal" font-weight="normal" text-decoration="none" x="200" y="510">UNREGISTERED</text><text fill="#eeeeee" stroke="none" font-family="Arial" font-size="24px" font-style="normal" font-weight="normal" text-decoration="none" x="200" y="540">UNREGISTERED</text><text fill="#eeeeee" stroke="none" font-family="Arial" font-size="24px" font-style="normal" font-weight="normal" text-decoration="none" x="200" y="570">UNREGISTERED</text><text fill="#eeeeee" stroke="none" font-family="Arial" font-size="24px" font-style="normal" font-weight="normal" text-decoration="none" x="200" y="600">UNREGISTERED</text><text fill="#eeeeee" stroke="none" font-family="Arial" font-size="24px" font-style="normal" font-weight="normal" text-decoration="none" x="200" y="630">UNREGISTERED</text><text fill="#eeeeee" stroke="none" font-family="Arial" font-size="24px" font-style="normal" font-weight="normal" text-decoration="none" x="200" y="660">UNREGISTERED</text><text fill="#eeeeee" stroke="none" font-family="Arial" font-size="24px" font-style="normal" font-weight="normal" text-decoration="none" x="200" y="690">UNREGISTERED</text><text fill="#eeeeee" stroke="none" font-family="Arial" font-size="24px" font-style="normal" font-weight="normal" text-decoration="none" x="400" y="0">UNREGISTERED</text><text fill="#eeeeee" stroke="none" font-family="Arial" font-size="24px" font-style="normal" font-weight="normal" text-decoration="none" x="400" y="30">UNREGISTERED</text><text fill="#eeeeee" stroke="none" font-family="Arial" font-size="24px" font-style="normal" font-weight="normal" text-decoration="none" x="400" y="60">UNREGISTERED</text><text fill="#eeeeee" stroke="none" font-family="Arial" font-size="24px" font-style="normal" font-weight="normal" text-decoration="none" x="400" y="90">UNREGISTERED</text><text fill="#eeeeee" stroke="none" font-family="Arial" font-size="24px" font-style="normal" font-weight="normal" text-decoration="none" x="400" y="120">UNREGISTERED</text><text fill="#eeeeee" stroke="none" font-family="Arial" font-size="24px" font-style="normal" font-weight="normal" text-decoration="none" x="400" y="150">UNREGISTERED</text><text fill="#eeeeee" stroke="none" font-family="Arial" font-size="24px" font-style="normal" font-weight="normal" text-decoration="none" x="400" y="180">UNREGISTERED</text><text fill="#eeeeee" stroke="none" font-family="Arial" font-size="24px" font-style="normal" font-weight="normal" text-decoration="none" x="400" y="210">UNREGISTERED</text><text fill="#eeeeee" stroke="none" font-family="Arial" font-size="24px" font-style="normal" font-weight="normal" text-decoration="none" x="400" y="240">UNREGISTERED</text><text fill="#eeeeee" stroke="none" font-family="Arial" font-size="24px" font-style="normal" font-weight="normal" text-decoration="none" x="400" y="270">UNREGISTERED</text><text fill="#eeeeee" stroke="none" font-family="Arial" font-size="24px" font-style="normal" font-weight="normal" text-decoration="none" x="400" y="300">UNREGISTERED</text><text fill="#eeeeee" stroke="none" font-family="Arial" font-size="24px" font-style="normal" font-weight="normal" text-decoration="none" x="400" y="330">UNREGISTERED</text><text fill="#eeeeee" stroke="none" font-family="Arial" font-size="24px" font-style="normal" font-weight="normal" text-decoration="none" x="400" y="360">UNREGISTERED</text><text fill="#eeeeee" stroke="none" font-family="Arial" font-size="24px" font-style="normal" font-weight="normal" text-decoration="none" x="400" y="390">UNREGISTERED</text><text fill="#eeeeee" stroke="none" font-family="Arial" font-size="24px" font-style="normal" font-weight="normal" text-decoration="none" x="400" y="420">UNREGISTERED</text><text fill="#eeeeee" stroke="none" font-family="Arial" font-size="24px" font-style="normal" font-weight="normal" text-decoration="none" x="400" y="450">UNREGISTERED</text><text fill="#eeeeee" stroke="none" font-family="Arial" font-size="24px" font-style="normal" font-weight="normal" text-decoration="none" x="400" y="480">UNREGISTERED</text><text fill="#eeeeee" stroke="none" font-family="Arial" font-size="24px" font-style="normal" font-weight="normal" text-decoration="none" x="400" y="510">UNREGISTERED</text><text fill="#eeeeee" stroke="none" font-family="Arial" font-size="24px" font-style="normal" font-weight="normal" text-decoration="none" x="400" y="540">UNREGISTERED</text><text fill="#eeeeee" stroke="none" font-family="Arial" font-size="24px" font-style="normal" font-weight="normal" text-decoration="none" x="400" y="570">UNREGISTERED</text><text fill="#eeeeee" stroke="none" font-family="Arial" font-size="24px" font-style="normal" font-weight="normal" text-decoration="none" x="400" y="600">UNREGISTERED</text><text fill="#eeeeee" stroke="none" font-family="Arial" font-size="24px" font-style="normal" font-weight="normal" text-decoration="none" x="400" y="630">UNREGISTERED</text><text fill="#eeeeee" stroke="none" font-family="Arial" font-size="24px" font-style="normal" font-weight="normal" text-decoration="none" x="400" y="660">UNREGISTERED</text><text fill="#eeeeee" stroke="none" font-family="Arial" font-size="24px" font-style="normal" font-weight="normal" text-decoration="none" x="400" y="690">UNREGISTERED</text><text fill="#eeeeee" stroke="none" font-family="Arial" font-size="24px" font-style="normal" font-weight="normal" text-decoration="none" x="600" y="0">UNREGISTERED</text><text fill="#eeeeee" stroke="none" font-family="Arial" font-size="24px" font-style="normal" font-weight="normal" text-decoration="none" x="600" y="30">UNREGISTERED</text><text fill="#eeeeee" stroke="none" font-family="Arial" font-size="24px" font-style="normal" font-weight="normal" text-decoration="none" x="600" y="60">UNREGISTERED</text><text fill="#eeeeee" stroke="none" font-family="Arial" font-size="24px" font-style="normal" font-weight="normal" text-decoration="none" x="600" y="90">UNREGISTERED</text><text fill="#eeeeee" stroke="none" font-family="Arial" font-size="24px" font-style="normal" font-weight="normal" text-decoration="none" x="600" y="120">UNREGISTERED</text><text fill="#eeeeee" stroke="none" font-family="Arial" font-size="24px" font-style="normal" font-weight="normal" text-decoration="none" x="600" y="150">UNREGISTERED</text><text fill="#eeeeee" stroke="none" font-family="Arial" font-size="24px" font-style="normal" font-weight="normal" text-decoration="none" x="600" y="180">UNREGISTERED</text><text fill="#eeeeee" stroke="none" font-family="Arial" font-size="24px" font-style="normal" font-weight="normal" text-decoration="none" x="600" y="210">UNREGISTERED</text><text fill="#eeeeee" stroke="none" font-family="Arial" font-size="24px" font-style="normal" font-weight="normal" text-decoration="none" x="600" y="240">UNREGISTERED</text><text fill="#eeeeee" stroke="none" font-family="Arial" font-size="24px" font-style="normal" font-weight="normal" text-decoration="none" x="600" y="270">UNREGISTERED</text><text fill="#eeeeee" stroke="none" font-family="Arial" font-size="24px" font-style="normal" font-weight="normal" text-decoration="none" x="600" y="300">UNREGISTERED</text><text fill="#eeeeee" stroke="none" font-family="Arial" font-size="24px" font-style="normal" font-weight="normal" text-decoration="none" x="600" y="330">UNREGISTERED</text><text fill="#eeeeee" stroke="none" font-family="Arial" font-size="24px" font-style="normal" font-weight="normal" text-decoration="none" x="600" y="360">UNREGISTERED</text><text fill="#eeeeee" stroke="none" font-family="Arial" font-size="24px" font-style="normal" font-weight="normal" text-decoration="none" x="600" y="390">UNREGISTERED</text><text fill="#eeeeee" stroke="none" font-family="Arial" font-size="24px" font-style="normal" font-weight="normal" text-decoration="none" x="600" y="420">UNREGISTERED</text><text fill="#eeeeee" stroke="none" font-family="Arial" font-size="24px" font-style="normal" font-weight="normal" text-decoration="none" x="600" y="450">UNREGISTERED</text><text fill="#eeeeee" stroke="none" font-family="Arial" font-size="24px" font-style="normal" font-weight="normal" text-decoration="none" x="600" y="480">UNREGISTERED</text><text fill="#eeeeee" stroke="none" font-family="Arial" font-size="24px" font-style="normal" font-weight="normal" text-decoration="none" x="600" y="510">UNREGISTERED</text><text fill="#eeeeee" stroke="none" font-family="Arial" font-size="24px" font-style="normal" font-weight="normal" text-decoration="none" x="600" y="540">UNREGISTERED</text><text fill="#eeeeee" stroke="none" font-family="Arial" font-size="24px" font-style="normal" font-weight="normal" text-decoration="none" x="600" y="570">UNREGISTERED</text><text fill="#eeeeee" stroke="none" font-family="Arial" font-size="24px" font-style="normal" font-weight="normal" text-decoration="none" x="600" y="600">UNREGISTERED</text><text fill="#eeeeee" stroke="none" font-family="Arial" font-size="24px" font-style="normal" font-weight="normal" text-decoration="none" x="600" y="630">UNREGISTERED</text><text fill="#eeeeee" stroke="none" font-family="Arial" font-size="24px" font-style="normal" font-weight="normal" text-decoration="none" x="600" y="660">UNREGISTERED</text><text fill="#eeeeee" stroke="none" font-family="Arial" font-size="24px" font-style="normal" font-weight="normal" text-decoration="none" x="600" y="690">UNREGISTERED</text><text fill="#eeeeee" stroke="none" font-family="Arial" font-size="24px" font-style="normal" font-weight="normal" text-decoration="none" x="800" y="0">UNREGISTERED</text><text fill="#eeeeee" stroke="none" font-family="Arial" font-size="24px" font-style="normal" font-weight="normal" text-decoration="none" x="800" y="30">UNREGISTERED</text><text fill="#eeeeee" stroke="none" font-family="Arial" font-size="24px" font-style="normal" font-weight="normal" text-decoration="none" x="800" y="60">UNREGISTERED</text><text fill="#eeeeee" stroke="none" font-family="Arial" font-size="24px" font-style="normal" font-weight="normal" text-decoration="none" x="800" y="90">UNREGISTERED</text><text fill="#eeeeee" stroke="none" font-family="Arial" font-size="24px" font-style="normal" font-weight="normal" text-decoration="none" x="800" y="120">UNREGISTERED</text><text fill="#eeeeee" stroke="none" font-family="Arial" font-size="24px" font-style="normal" font-weight="normal" text-decoration="none" x="800" y="150">UNREGISTERED</text><text fill="#eeeeee" stroke="none" font-family="Arial" font-size="24px" font-style="normal" font-weight="normal" text-decoration="none" x="800" y="180">UNREGISTERED</text><text fill="#eeeeee" stroke="none" font-family="Arial" font-size="24px" font-style="normal" font-weight="normal" text-decoration="none" x="800" y="210">UNREGISTERED</text><text fill="#eeeeee" stroke="none" font-family="Arial" font-size="24px" font-style="normal" font-weight="normal" text-decoration="none" x="800" y="240">UNREGISTERED</text><text fill="#eeeeee" stroke="none" font-family="Arial" font-size="24px" font-style="normal" font-weight="normal" text-decoration="none" x="800" y="270">UNREGISTERED</text><text fill="#eeeeee" stroke="none" font-family="Arial" font-size="24px" font-style="normal" font-weight="normal" text-decoration="none" x="800" y="300">UNREGISTERED</text><text fill="#eeeeee" stroke="none" font-family="Arial" font-size="24px" font-style="normal" font-weight="normal" text-decoration="none" x="800" y="330">UNREGISTERED</text><text fill="#eeeeee" stroke="none" font-family="Arial" font-size="24px" font-style="normal" font-weight="normal" text-decoration="none" x="800" y="360">UNREGISTERED</text><text fill="#eeeeee" stroke="none" font-family="Arial" font-size="24px" font-style="normal" font-weight="normal" text-decoration="none" x="800" y="390">UNREGISTERED</text><text fill="#eeeeee" stroke="none" font-family="Arial" font-size="24px" font-style="normal" font-weight="normal" text-decoration="none" x="800" y="420">UNREGISTERED</text><text fill="#eeeeee" stroke="none" font-family="Arial" font-size="24px" font-style="normal" font-weight="normal" text-decoration="none" x="800" y="450">UNREGISTERED</text><text fill="#eeeeee" stroke="none" font-family="Arial" font-size="24px" font-style="normal" font-weight="normal" text-decoration="none" x="800" y="480">UNREGISTERED</text><text fill="#eeeeee" stroke="none" font-family="Arial" font-size="24px" font-style="normal" font-weight="normal" text-decoration="none" x="800" y="510">UNREGISTERED</text><text fill="#eeeeee" stroke="none" font-family="Arial" font-size="24px" font-style="normal" font-weight="normal" text-decoration="none" x="800" y="540">UNREGISTERED</text><text fill="#eeeeee" stroke="none" font-family="Arial" font-size="24px" font-style="normal" font-weight="normal" text-decoration="none" x="800" y="570">UNREGISTERED</text><text fill="#eeeeee" stroke="none" font-family="Arial" font-size="24px" font-style="normal" font-weight="normal" text-decoration="none" x="800" y="600">UNREGISTERED</text><text fill="#eeeeee" stroke="none" font-family="Arial" font-size="24px" font-style="normal" font-weight="normal" text-decoration="none" x="800" y="630">UNREGISTERED</text><text fill="#eeeeee" stroke="none" font-family="Arial" font-size="24px" font-style="normal" font-weight="normal" text-decoration="none" x="800" y="660">UNREGISTERED</text><text fill="#eeeeee" stroke="none" font-family="Arial" font-size="24px" font-style="normal" font-weight="normal" text-decoration="none" x="800" y="690">UNREGISTERED</text><g transform="translate(-62,-182) scale(1,1)"><rect fill="#ffffff" stroke="none" x="200" y="192" width="528" height="688"/></g><g transform="translate(-62,-182) scale(1,1)"><path fill="none" stroke="#000000" d="M 200 192 L 728 192 L 728 880 L 200 880 L 200 192 Z Z" stroke-miterlimit="10"/></g><g transform="translate(-62,-182) scale(1,1)"><path fill="#C0C0C0" stroke="none" d="M 247 322 C 247 311.5065888 289.7568016 303 342.5 303 C 395.2431984 303 438 311.5065888 438 322 C 438 332.4934112 395.2431984 341 342.5 341 C 289.7568016 341 247 332.4934112 247 322 Z" opacity="0.2"/></g><g transform="translate(-62,-182) scale(1,1)"><path fill="#d8f2ff" stroke="none" d="M 240 315 C 240 304.5065888 282.7568016 296 335.5 296 C 388.2431984 296 431 304.5065888 431 315 C 431 325.4934112 388.2431984 334 335.5 334 C 282.7568016 334 240 325.4934112 240 315 Z"/></g><g transform="translate(-62,-182) scale(1,1)"><path fill="none" stroke="#000000" d="M 240 315 C 240 304.5065888 282.7568016 296 335.5 296 C 388.2431984 296 431 304.5065888 431 315 C 431 325.4934112 388.2431984 334 335.5 334 C 282.7568016 334 240 325.4934112 240 315 Z" stroke-miterlimit="10"/></g><g transform="translate(-62,-182) scale(1,1)"><g><path fill="none" stroke="none"/><text fill="#000000" stroke="none" font-family="Arial" font-size="16px" font-style="normal" font-weight="bold" text-decoration="none" x="291.48046875" y="323.5">Browse bets</text></g></g><g transform="translate(-62,-182) scale(1,1)"><path fill="#ffffff" stroke="none" d="M 111.40935031960228 377.68 C 111.40935031960228 372.886167936 115.29519264454774 369 120.088623046875 369 C 124.88205344920226 369 128.76789577414772 372.886167936 128.76789577414772 377.68 C 128.76789577414772 382.473832064 124.88205344920226 386.36 120.088623046875 386.36 C 115.29519264454774 386.36 111.40935031960228 382.473832064 111.40935031960228 377.68 Z"/></g><g transform="translate(-62,-182) scale(1,1)"><path fill="none" stroke="#000000" d="M 111.40935031960228 377.68 C 111.40935031960228 372.886167936 115.29519264454774 369 120.088623046875 369 C 124.88205344920226 369 128.76789577414772 372.886167936 128.76789577414772 377.68 C 128.76789577414772 382.473832064 124.88205344920226 386.36 120.088623046875 386.36 C 115.29519264454774 386.36 111.40935031960228 382.473832064 111.40935031960228 377.68 Z" stroke-miterlimit="10"/></g><g transform="translate(-62,-182) scale(1,1)"><path fill="none" stroke="#000000" d="M 120.088623046875 386.36 L 120.088623046875 403.64" stroke-miterlimit="10"/></g><g transform="translate(-62,-182) scale(1,1)"><path fill="none" stroke="#000000" d="M 110.89880486505683 392.84 L 129.27844122869317 392.84" stroke-miterlimit="10"/></g><g transform="translate(-62,-182) scale(1,1)"><path fill="none" stroke="#000000" d="M 120.088623046875 403.64 L 107.32498668323865 421" stroke-miterlimit="10"/></g><g transform="translate(-62,-182) scale(1,1)"><path fill="none" stroke="#000000" d="M 120.088623046875 403.64 L 132.85225941051135 421" stroke-miterlimit="10"/></g><g transform="translate(-62,-182) scale(1,1)"><g><path fill="none" stroke="none"/><text fill="#000000" stroke="none" font-family="Arial" font-size="16px" font-style="normal" font-weight="bold" text-decoration="none" x="103.197998046875" y="444.5">User</text></g></g><g transform="translate(-62,-182) scale(1,1)"><path fill="none" stroke="#000000" d="M 146 398 L 289 335" stroke-miterlimit="10"/></g><g transform="translate(-62,-182) scale(1,1)"><path fill="#C0C0C0" stroke="none" d="M 423 416 C 423 406.6111584 457.0263552 399 499 399 C 540.9736448 399 575 406.6111584 575 416 C 575 425.3888416 540.9736448 433 499 433 C 457.0263552 433 423 425.3888416 423 416 Z" opacity="0.2"/></g><g transform="translate(-62,-182) scale(1,1)"><path fill="#ffffff" stroke="none" d="M 416 409 C 416 399.6111584 450.0263552 392 492 392 C 533.9736448 392 568 399.6111584 568 409 C 568 418.3888416 533.9736448 426 492 426 C 450.0263552 426 416 418.3888416 416 409 Z"/></g><g transform="translate(-62,-182) scale(1,1)"><path fill="none" stroke="#000000" d="M 416 409 C 416 399.6111584 450.0263552 392 492 392 C 533.9736448 392 568 399.6111584 568 409 C 568 418.3888416 533.9736448 426 492 426 C 450.0263552 426 416 418.3888416 416 409 Z" stroke-miterlimit="10"/></g><g transform="translate(-62,-182) scale(1,1)"><g><path fill="none" stroke="none"/><text fill="#000000" stroke="none" font-family="Arial" font-size="13px" font-style="normal" font-weight="bold" text-decoration="none" x="474.2900390625" y="416">Log in</text></g></g><g transform="translate(-62,-182) scale(1,1)"><path fill="none" stroke="#000000" d="M 368 335 L 462 391" stroke-miterlimit="10" stroke-dasharray="3"/></g><g transform="translate(-62,-182) scale(1,1)"><path fill="none" stroke="#000000" d="M 451.1147773673909 389.41509361836904 L 462 391 L 455.4236833117539 382.18228721175973" stroke-miterlimit="10"/></g><g transform="translate(-62,-182) scale(1,1)"><g><path fill="none" stroke="none"/><text fill="#000000" stroke="none" font-family="Arial" font-size="13px" font-style="normal" font-weight="normal" text-decoration="none" x="402.5" y="343.5">«include»</text></g></g><g transform="translate(-62,-182) scale(1,1)"><path fill="#C0C0C0" stroke="none" d="M 239 568 C 239 558.6111584 283.3238048 551 338 551 C 392.6761952 551 437 558.6111584 437 568 C 437 577.3888416 392.6761952 585 338 585 C 283.3238048 585 239 577.3888416 239 568 Z" opacity="0.2"/></g><g transform="translate(-62,-182) scale(1,1)"><path fill="#ffffff" stroke="none" d="M 232 561 C 232 551.6111584 276.3238048 544 331 544 C 385.6761952 544 430 551.6111584 430 561 C 430 570.3888416 385.6761952 578 331 578 C 276.3238048 578 232 570.3888416 232 561 Z"/></g><g transform="translate(-62,-182) scale(1,1)"><path fill="none" stroke="#000000" d="M 232 561 C 232 551.6111584 276.3238048 544 331 544 C 385.6761952 544 430 551.6111584 430 561 C 430 570.3888416 385.6761952 578 331 578 C 276.3238048 578 232 570.3888416 232 561 Z" stroke-miterlimit="10"/></g><g transform="translate(-62,-182) scale(1,1)"><g><path fill="none" stroke="none"/><text fill="#000000" stroke="none" font-family="Arial" font-size="13px" font-style="normal" font-weight="bold" text-decoration="none" x="269.94189453125" y="568">Manage virtual wallet</text></g></g><g transform="translate(-62,-182) scale(1,1)"><path fill="#C0C0C0" stroke="none" d="M 591 480 C 591 470.6111584 616.743624 463 648.5 463 C 680.256376 463 706 470.6111584 706 480 C 706 489.3888416 680.256376 497 648.5 497 C 616.743624 497 591 489.3888416 591 480 Z" opacity="0.2"/></g><g transform="translate(-62,-182) scale(1,1)"><path fill="#ffffff" stroke="none" d="M 584 473 C 584 463.6111584 609.743624 456 641.5 456 C 673.256376 456 699 463.6111584 699 473 C 699 482.3888416 673.256376 490 641.5 490 C 609.743624 490 584 482.3888416 584 473 Z"/></g><g transform="translate(-62,-182) scale(1,1)"><path fill="none" stroke="#000000" d="M 584 473 C 584 463.6111584 609.743624 456 641.5 456 C 673.256376 456 699 463.6111584 699 473 C 699 482.3888416 673.256376 490 641.5 490 C 609.743624 490 584 482.3888416 584 473 Z" stroke-miterlimit="10"/></g><g transform="translate(-62,-182) scale(1,1)"><g><path fill="none" stroke="none"/><text fill="#000000" stroke="none" font-family="Arial" font-size="13px" font-style="normal" font-weight="bold" text-decoration="none" x="608.61279296875" y="480">Add founds</text></g></g><g transform="translate(-62,-182) scale(1,1)"><path fill="#C0C0C0" stroke="none" d="M 551 560 C 551 550.6111584 586.1456432 543 629.5 543 C 672.8543568 543 708 550.6111584 708 560 C 708 569.3888416 672.8543568 577 629.5 577 C 586.1456432 577 551 569.3888416 551 560 Z" opacity="0.2"/></g><g transform="translate(-62,-182) scale(1,1)"><path fill="#ffffff" stroke="none" d="M 544 553 C 544 543.6111584 579.1456432 536 622.5 536 C 665.8543568 536 701 543.6111584 701 553 C 701 562.3888416 665.8543568 570 622.5 570 C 579.1456432 570 544 562.3888416 544 553 Z"/></g><g transform="translate(-62,-182) scale(1,1)"><path fill="none" stroke="#000000" d="M 544 553 C 544 543.6111584 579.1456432 536 622.5 536 C 665.8543568 536 701 543.6111584 701 553 C 701 562.3888416 665.8543568 570 622.5 570 C 579.1456432 570 544 562.3888416 544 553 Z" stroke-miterlimit="10"/></g><g transform="translate(-62,-182) scale(1,1)"><g><path fill="none" stroke="none"/><text fill="#000000" stroke="none" font-family="Arial" font-size="13px" font-style="normal" font-weight="bold" text-decoration="none" x="575.53369140625" y="560">Extract earnings</text></g></g><g transform="translate(-62,-182) scale(1,1)"><path fill="#C0C0C0" stroke="none" d="M 511 640 C 511 630.6111584 553.532944 623 606 623 C 658.467056 623 701 630.6111584 701 640 C 701 649.3888416 658.467056 657 606 657 C 553.532944 657 511 649.3888416 511 640 Z" opacity="0.2"/></g><g transform="translate(-62,-182) scale(1,1)"><path fill="#ffffff" stroke="none" d="M 504 633 C 504 623.6111584 546.532944 616 599 616 C 651.467056 616 694 623.6111584 694 633 C 694 642.3888416 651.467056 650 599 650 C 546.532944 650 504 642.3888416 504 633 Z"/></g><g transform="translate(-62,-182) scale(1,1)"><path fill="none" stroke="#000000" d="M 504 633 C 504 623.6111584 546.532944 616 599 616 C 651.467056 616 694 623.6111584 694 633 C 694 642.3888416 651.467056 650 599 650 C 546.532944 650 504 642.3888416 504 633 Z" stroke-miterlimit="10"/></g><g transform="translate(-62,-182) scale(1,1)"><g><path fill="none" stroke="none"/><text fill="#000000" stroke="none" font-family="Arial" font-size="13px" font-style="normal" font-weight="bold" text-decoration="none" x="552.385986328125" y="640">Consult balance</text></g></g><g transform="translate(-62,-182) scale(1,1)"><path fill="none" stroke="#000000" d="M 146 428 L 306 543" stroke-miterlimit="10"/></g><g transform="translate(-62,-182) scale(1,1)"><path fill="none" stroke="#000000" d="M 394 543 L 583 489" stroke-miterlimit="10" stroke-dasharray="3"/></g><g transform="translate(-62,-182) scale(1,1)"><path fill="none" stroke="#000000" d="M 574.3847882181439 495.8394536297695 L 583 489 L 572.0719012864703 487.7443493689122" stroke-miterlimit="10"/></g><g transform="translate(-62,-182) scale(1,1)"><g><path fill="none" stroke="none"/><text fill="#000000" stroke="none" font-family="Arial" font-size="13px" font-style="normal" font-weight="normal" text-decoration="none" x="452.5" y="493.5">«extend»</text></g></g><g transform="translate(-62,-182) scale(1,1)"><path fill="none" stroke="#000000" d="M 431 558 L 543 555" stroke-miterlimit="10" stroke-dasharray="3"/></g><g transform="translate(-62,-182) scale(1,1)"><path fill="none" stroke="#000000" d="M 532.9536834239884 559.4801253614777 L 543 555 L 532.7282543994887 551.064108446822" stroke-miterlimit="10"/></g><g transform="translate(-62,-182) scale(1,1)"><g><path fill="none" stroke="none"/><text fill="#000000" stroke="none" font-family="Arial" font-size="13px" font-style="normal" font-weight="normal" text-decoration="none" x="459.5" y="532.5">«extend»</text></g></g><g transform="translate(-62,-182) scale(1,1)"><path fill="none" stroke="#000000" d="M 398 579 L 532 615" stroke-miterlimit="10" stroke-dasharray="3"/></g><g transform="translate(-62,-182) scale(1,1)"><path fill="none" stroke="#000000" d="M 521.0931612629231 616.428589781357 L 532 615 L 523.2775348457734 608.2978658896361" stroke-miterlimit="10"/></g><g transform="translate(-62,-182) scale(1,1)"><g><path fill="none" stroke="none"/><text fill="#000000" stroke="none" font-family="Arial" font-size="13px" font-style="normal" font-weight="normal" text-decoration="none" x="445.5" y="574.5">«extend»</text></g></g><g transform="translate(-62,-182) scale(1,1)"><path fill="#C0C0C0" stroke="none" d="M 575 280 C 575 270.6111584 597.6096176 263 625.5 263 C 653.3903824 263 676 270.6111584 676 280 C 676 289.3888416 653.3903824 297 625.5 297 C 597.6096176 297 575 289.3888416 575 280 Z" opacity="0.2"/></g><g transform="translate(-62,-182) scale(1,1)"><path fill="#ffffff" stroke="none" d="M 568 273 C 568 263.6111584 590.6096176 256 618.5 256 C 646.3903824 256 669 263.6111584 669 273 C 669 282.3888416 646.3903824 290 618.5 290 C 590.6096176 290 568 282.3888416 568 273 Z"/></g><g transform="translate(-62,-182) scale(1,1)"><path fill="none" stroke="#000000" d="M 568 273 C 568 263.6111584 590.6096176 256 618.5 256 C 646.3903824 256 669 263.6111584 669 273 C 669 282.3888416 646.3903824 290 618.5 290 C 590.6096176 290 568 282.3888416 568 273 Z" stroke-miterlimit="10"/></g><g transform="translate(-62,-182) scale(1,1)"><g><path fill="none" stroke="none"/><text fill="#000000" stroke="none" font-family="Arial" font-size="13px" font-style="normal" font-weight="bold" text-decoration="none" x="596.45458984375" y="280">Sign up</text></g></g><g transform="translate(-62,-182) scale(1,1)"><path fill="none" stroke="#000000" d="M 509 391 L 601 291" stroke-miterlimit="10" stroke-dasharray="3"/></g><g transform="translate(-62,-182) scale(1,1)"><path fill="none" stroke="#000000" d="M 597.2172092782506 301.3291090784949 L 601 291 L 591.0213799558221 295.6289461018608" stroke-miterlimit="10"/></g><g transform="translate(-62,-182) scale(1,1)"><g><path fill="none" stroke="none"/><text fill="#000000" stroke="none" font-family="Arial" font-size="13px" font-style="normal" font-weight="normal" text-decoration="none" x="504.5" y="326.5">«include»</text></g></g><g transform="translate(-62,-182) scale(1,1)"><path fill="none" stroke="#000000" d="M 350 543 L 473 427" stroke-miterlimit="10" stroke-dasharray="3"/></g><g transform="translate(-62,-182) scale(1,1)"><path fill="none" stroke="#000000" d="M 468.49476262453817 437.035080278241 L 473 427 L 462.71844278646023 430.9101894154515" stroke-miterlimit="10"/></g><g transform="translate(-62,-182) scale(1,1)"><g><path fill="none" stroke="none"/><text fill="#000000" stroke="none" font-family="Arial" font-size="13px" font-style="normal" font-weight="normal" text-decoration="none" x="362.5" y="469.5">«include»</text></g></g><g transform="translate(-62,-182) scale(1,1)"><path fill="#ffffff" stroke="none" d="M 837.7775143821023 697.6800000000001 C 837.7775143821023 692.8861679360001 841.6633567070477 689 846.456787109375 689 C 851.2502175117023 689 855.1360598366477 692.8861679360001 855.1360598366477 697.6800000000001 C 855.1360598366477 702.473832064 851.2502175117023 706.36 846.456787109375 706.36 C 841.6633567070477 706.36 837.7775143821023 702.473832064 837.7775143821023 697.6800000000001 Z"/></g><g transform="translate(-62,-182) scale(1,1)"><path fill="none" stroke="#000000" d="M 837.7775143821023 697.6800000000001 C 837.7775143821023 692.8861679360001 841.6633567070477 689 846.456787109375 689 C 851.2502175117023 689 855.1360598366477 692.8861679360001 855.1360598366477 697.6800000000001 C 855.1360598366477 702.473832064 851.2502175117023 706.36 846.456787109375 706.36 C 841.6633567070477 706.36 837.7775143821023 702.473832064 837.7775143821023 697.6800000000001 Z" stroke-miterlimit="10"/></g><g transform="translate(-62,-182) scale(1,1)"><path fill="none" stroke="#000000" d="M 846.456787109375 706.36 L 846.456787109375 723.64" stroke-miterlimit="10"/></g><g transform="translate(-62,-182) scale(1,1)"><path fill="none" stroke="#000000" d="M 837.2669689275568 712.84 L 855.6466052911932 712.84" stroke-miterlimit="10"/></g><g transform="translate(-62,-182) scale(1,1)"><path fill="none" stroke="#000000" d="M 846.456787109375 723.64 L 833.6931507457386 741" stroke-miterlimit="10"/></g><g transform="translate(-62,-182) scale(1,1)"><path fill="none" stroke="#000000" d="M 846.456787109375 723.64 L 859.2204234730114 741" stroke-miterlimit="10"/></g><g transform="translate(-62,-182) scale(1,1)"><g><path fill="none" stroke="none"/><text fill="#000000" stroke="none" font-family="Arial" font-size="13px" font-style="normal" font-weight="bold" text-decoration="none" x="814.302734375" y="761.5">Events API</text></g></g><g transform="translate(-62,-182) scale(1,1)"><path fill="#C0C0C0" stroke="none" d="M 383 699 C 383 687.954304 425.9806592 679 479 679 C 532.0193408 679 575 687.954304 575 699 C 575 710.045696 532.0193408 719 479 719 C 425.9806592 719 383 710.045696 383 699 Z" opacity="0.2"/></g><g transform="translate(-62,-182) scale(1,1)"><path fill="#ffffff" stroke="none" d="M 376 692 C 376 680.954304 418.9806592 672 472 672 C 525.0193408 672 568 680.954304 568 692 C 568 703.045696 525.0193408 712 472 712 C 418.9806592 712 376 703.045696 376 692 Z"/></g><g transform="translate(-62,-182) scale(1,1)"><path fill="none" stroke="#000000" d="M 376 692 C 376 680.954304 418.9806592 672 472 672 C 525.0193408 672 568 680.954304 568 692 C 568 703.045696 525.0193408 712 472 712 C 418.9806592 712 376 703.045696 376 692 Z" stroke-miterlimit="10"/></g><g transform="translate(-62,-182) scale(1,1)"><g><path fill="none" stroke="none"/><text fill="#000000" stroke="none" font-family="Arial" font-size="13px" font-style="normal" font-weight="bold" text-decoration="none" x="426.109619140625" y="699">Get events data</text></g></g><g transform="translate(-62,-182) scale(1,1)"><path fill="none" stroke="#000000" d="M 569 701 L 807 723" stroke-miterlimit="10"/></g><g transform="translate(-62,-182) scale(1,1)"><path fill="#C0C0C0" stroke="none" d="M 423 240 C 423 230.6111584 445.6096176 223 473.5 223 C 501.3903824 223 524 230.6111584 524 240 C 524 249.3888416 501.3903824 257 473.5 257 C 445.6096176 257 423 249.3888416 423 240 Z" opacity="0.2"/></g><g transform="translate(-62,-182) scale(1,1)"><path fill="#ffffff" stroke="none" d="M 416 233 C 416 223.6111584 438.6096176 216 466.5 216 C 494.3903824 216 517 223.6111584 517 233 C 517 242.3888416 494.3903824 250 466.5 250 C 438.6096176 250 416 242.3888416 416 233 Z"/></g><g transform="translate(-62,-182) scale(1,1)"><path fill="none" stroke="#000000" d="M 416 233 C 416 223.6111584 438.6096176 216 466.5 216 C 494.3903824 216 517 223.6111584 517 233 C 517 242.3888416 494.3903824 250 466.5 250 C 438.6096176 250 416 242.3888416 416 233 Z" stroke-miterlimit="10"/></g><g transform="translate(-62,-182) scale(1,1)"><g><path fill="none" stroke="none"/><text fill="#000000" stroke="none" font-family="Arial" font-size="13px" font-style="normal" font-weight="bold" text-decoration="none" x="456.74365234375" y="240">Bet</text></g></g><g transform="translate(-62,-182) scale(1,1)"><path fill="none" stroke="#000000" d="M 367 295 L 437 251" stroke-miterlimit="10" stroke-dasharray="3"/></g><g transform="translate(-62,-182) scale(1,1)"><path fill="none" stroke="#000000" d="M 430.63609359663076 259.97221796932934 L 437 251 L 426.1557224589446 252.84435479573764" stroke-miterlimit="10"/></g><g transform="translate(-62,-182) scale(1,1)"><g><path fill="none" stroke="none"/><text fill="#000000" stroke="none" font-family="Arial" font-size="13px" font-style="normal" font-weight="normal" text-decoration="none" x="359.5" y="253.5">«extend»</text></g></g><g transform="translate(-62,-182) scale(1,1)"><path fill="#ffffff" stroke="none" d="M 88.40935031960227 793.6800000000001 C 88.40935031960227 788.8861679360001 92.29519264454773 785 97.088623046875 785 C 101.88205344920227 785 105.76789577414773 788.8861679360001 105.76789577414773 793.6800000000001 C 105.76789577414773 798.473832064 101.88205344920227 802.36 97.088623046875 802.36 C 92.29519264454773 802.36 88.40935031960227 798.473832064 88.40935031960227 793.6800000000001 Z"/></g><g transform="translate(-62,-182) scale(1,1)"><path fill="none" stroke="#000000" d="M 88.40935031960227 793.6800000000001 C 88.40935031960227 788.8861679360001 92.29519264454773 785 97.088623046875 785 C 101.88205344920227 785 105.76789577414773 788.8861679360001 105.76789577414773 793.6800000000001 C 105.76789577414773 798.473832064 101.88205344920227 802.36 97.088623046875 802.36 C 92.29519264454773 802.36 88.40935031960227 798.473832064 88.40935031960227 793.6800000000001 Z" stroke-miterlimit="10"/></g><g transform="translate(-62,-182) scale(1,1)"><path fill="none" stroke="#000000" d="M 97.088623046875 802.36 L 97.088623046875 819.64" stroke-miterlimit="10"/></g><g transform="translate(-62,-182) scale(1,1)"><path fill="none" stroke="#000000" d="M 87.89880486505682 808.84 L 106.27844122869318 808.84" stroke-miterlimit="10"/></g><g transform="translate(-62,-182) scale(1,1)"><path fill="none" stroke="#000000" d="M 97.088623046875 819.64 L 84.32498668323863 837" stroke-miterlimit="10"/></g><g transform="translate(-62,-182) scale(1,1)"><path fill="none" stroke="#000000" d="M 97.088623046875 819.64 L 109.85225941051137 837" stroke-miterlimit="10"/></g><g transform="translate(-62,-182) scale(1,1)"><g><path fill="none" stroke="none"/><text fill="#000000" stroke="none" font-family="Arial" font-size="13px" font-style="normal" font-weight="bold" text-decoration="none" x="78.66455078125" y="857.5">Admin</text></g></g><g transform="translate(-62,-182) scale(1,1)"><path fill="#C0C0C0" stroke="none" d="M 263 840 C 263 830.6111584 290.7583424 823 325 823 C 359.2416576 823 387 830.6111584 387 840 C 387 849.3888416 359.2416576 857 325 857 C 290.7583424 857 263 849.3888416 263 840 Z" opacity="0.2"/></g><g transform="translate(-62,-182) scale(1,1)"><path fill="#ffffff" stroke="none" d="M 256 833 C 256 823.6111584 283.7583424 816 318 816 C 352.2416576 816 380 823.6111584 380 833 C 380 842.3888416 352.2416576 850 318 850 C 283.7583424 850 256 842.3888416 256 833 Z"/></g><g transform="translate(-62,-182) scale(1,1)"><path fill="none" stroke="#000000" d="M 256 833 C 256 823.6111584 283.7583424 816 318 816 C 352.2416576 816 380 823.6111584 380 833 C 380 842.3888416 352.2416576 850 318 850 C 283.7583424 850 256 842.3888416 256 833 Z" stroke-miterlimit="10"/></g><g transform="translate(-62,-182) scale(1,1)"><g><path fill="none" stroke="none"/><text fill="#000000" stroke="none" font-family="Arial" font-size="13px" font-style="normal" font-weight="bold" text-decoration="none" x="280.0537109375" y="840">Manage data</text></g></g><g transform="translate(-62,-182) scale(1,1)"><path fill="#C0C0C0" stroke="none" d="M 271 776 C 271 766.6111584 293.6096176 759 321.5 759 C 349.3903824 759 372 766.6111584 372 776 C 372 785.3888416 349.3903824 793 321.5 793 C 293.6096176 793 271 785.3888416 271 776 Z" opacity="0.2"/></g><g transform="translate(-62,-182) scale(1,1)"><path fill="#ffffff" stroke="none" d="M 264 769 C 264 759.6111584 286.6096176 752 314.5 752 C 342.3903824 752 365 759.6111584 365 769 C 365 778.3888416 342.3903824 786 314.5 786 C 286.6096176 786 264 778.3888416 264 769 Z"/></g><g transform="translate(-62,-182) scale(1,1)"><path fill="none" stroke="#000000" d="M 264 769 C 264 759.6111584 286.6096176 752 314.5 752 C 342.3903824 752 365 759.6111584 365 769 C 365 778.3888416 342.3903824 786 314.5 786 C 286.6096176 786 264 778.3888416 264 769 Z" stroke-miterlimit="10"/></g><g transform="translate(-62,-182) scale(1,1)"><g><path fill="none" stroke="none"/><text fill="#000000" stroke="none" font-family="Arial" font-size="13px" font-style="normal" font-weight="bold" text-decoration="none" x="296.7900390625" y="776">Log in</text></g></g><g transform="translate(-62,-182) scale(1,1)"><path fill="#C0C0C0" stroke="none" d="M 471 800 C 471 790.6111584 496.5197664 783 528 783 C 559.4802336 783 585 790.6111584 585 800 C 585 809.3888416 559.4802336 817 528 817 C 496.5197664 817 471 809.3888416 471 800 Z" opacity="0.2"/></g><g transform="translate(-62,-182) scale(1,1)"><path fill="#ffffff" stroke="none" d="M 464 793 C 464 783.6111584 489.5197664 776 521 776 C 552.4802336 776 578 783.6111584 578 793 C 578 802.3888416 552.4802336 810 521 810 C 489.5197664 810 464 802.3888416 464 793 Z"/></g><g transform="translate(-62,-182) scale(1,1)"><path fill="none" stroke="#000000" d="M 464 793 C 464 783.6111584 489.5197664 776 521 776 C 552.4802336 776 578 783.6111584 578 793 C 578 802.3888416 552.4802336 810 521 810 C 489.5197664 810 464 802.3888416 464 793 Z" stroke-miterlimit="10"/></g><g transform="translate(-62,-182) scale(1,1)"><g><path fill="none" stroke="none"/><text fill="#000000" stroke="none" font-family="Arial" font-size="13px" font-style="normal" font-weight="bold" text-decoration="none" x="486.681396484375" y="800">Delete User</text></g></g><g transform="translate(-62,-182) scale(1,1)"><path fill="#C0C0C0" stroke="none" d="M 471 864 C 471 854.6111584 498.5344848 847 532.5 847 C 566.4655152 847 594 854.6111584 594 864 C 594 873.3888416 566.4655152 881 532.5 881 C 498.5344848 881 471 873.3888416 471 864 Z" opacity="0.2"/></g><g transform="translate(-62,-182) scale(1,1)"><path fill="#ffffff" stroke="none" d="M 464 857 C 464 847.6111584 491.5344848 840 525.5 840 C 559.4655152 840 587 847.6111584 587 857 C 587 866.3888416 559.4655152 874 525.5 874 C 491.5344848 874 464 866.3888416 464 857 Z"/></g><g transform="translate(-62,-182) scale(1,1)"><path fill="none" stroke="#000000" d="M 464 857 C 464 847.6111584 491.5344848 840 525.5 840 C 559.4655152 840 587 847.6111584 587 857 C 587 866.3888416 559.4655152 874 525.5 874 C 491.5344848 874 464 866.3888416 464 857 Z" stroke-miterlimit="10"/></g><g transform="translate(-62,-182) scale(1,1)"><g><path fill="none" stroke="none"/><text fill="#000000" stroke="none" font-family="Arial" font-size="13px" font-style="normal" font-weight="bold" text-decoration="none" x="488.28369140625" y="864">Delete Event</text></g></g><g transform="translate(-62,-182) scale(1,1)"><path fill="none" stroke="#000000" d="M 381 840 L 463 850" stroke-miterlimit="10" stroke-dasharray="3"/></g><g transform="translate(-62,-182) scale(1,1)"><path fill="none" stroke="#000000" d="M 452.40248215537775 852.9483241906061 L 463 850 L 453.4216432400082 844.5912032966361" stroke-miterlimit="10"/></g><g transform="translate(-62,-182) scale(1,1)"><g><path fill="none" stroke="none"/><text fill="#000000" stroke="none" font-family="Arial" font-size="13px" font-style="normal" font-weight="normal" text-decoration="none" x="398.5" y="821.5">«extend»</text></g></g><g transform="translate(-62,-182) scale(1,1)"><path fill="none" stroke="#000000" d="M 381 821 L 463 804" stroke-miterlimit="10" stroke-dasharray="3"/></g><g transform="translate(-62,-182) scale(1,1)"><path fill="none" stroke="#000000" d="M 453.9034598138235 810.1848974640875 L 463 804 L 452.1943918112189 801.9411576868184" stroke-miterlimit="10"/></g><g transform="translate(-62,-182) scale(1,1)"><g><path fill="none" stroke="none"/><text fill="#000000" stroke="none" font-family="Arial" font-size="13px" font-style="normal" font-weight="normal" text-decoration="none" x="389.5" y="788.5">«extend»</text></g></g><g transform="translate(-62,-182) scale(1,1)"><path fill="none" stroke="#000000" d="M 317 815 L 315 787" stroke-miterlimit="10" stroke-dasharray="3"/></g><g transform="translate(-62,-182) scale(1,1)"><path fill="none" stroke="#000000" d="M 319.9228807114221 796.8369327283004 L 315 787 L 311.5252404957619 797.4367641722762" stroke-miterlimit="10"/></g><g transform="translate(-62,-182) scale(1,1)"><g><path fill="none" stroke="none"/><text fill="#000000" stroke="none" font-family="Arial" font-size="13px" font-style="normal" font-weight="normal" text-decoration="none" x="258.5" y="809.5">«include»</text></g></g><g transform="translate(-62,-182) scale(1,1)"><path fill="none" stroke="#000000" d="M 123 824 L 255 830" stroke-miterlimit="10"/></g></g></svg>