<svg version="1.1" xmlns="http://www.w3.org/2000/svg" xmlns:xlink="http://www.w3.org/1999/xlink" width="1115.736328125" height="738"><defs/><g><text fill="#eeeeee" stroke="none" font-family="Arial" font-size="24px" font-style="normal" font-weight="normal" text-decoration="none" x="0" y="0">UNREGISTERED</text><text fill="#eeeeee" stroke="none" font-family="Arial" font-size="24px" font-style="normal" font-weight="normal" text-decoration="none" x="0" y="30">UNREGISTERED</text><text fill="#eeeeee" stroke="none" font-family="Arial" font-size="24px" font-style="normal" font-weight="normal" text-decoration="none" x="0" y="60">UNREGISTERED</text><text fill="#eeeeee" stroke="none" font-family="Arial" font-size="24px" font-style="normal" font-weight="normal" text-decoration="none" x="0" y="90">UNREGISTERED</text><text fill="#eeeeee" stroke="none" font-family="Arial" font-size="24px" font-style="normal" font-weight="normal" text-decoration="none" x="0" y="120">UNREGISTERED</text><text fill="#eeeeee" stroke="none" font-family="Arial" font-size="24px" font-style="normal" font-weight="normal" text-decoration="none" x="0" y="150">UNREGISTERED</text><text fill="#eeeeee" stroke="none" font-family="Arial" font-size="24px" font-style="normal" font-weight="normal" text-decoration="none" x="0" y="180">UNREGISTERED</text><text fill="#eeeeee" stroke="none" font-family="Arial" font-size="24px" font-style="normal" font-weight="normal" text-decoration="none" x="0" y="210">UNREGISTERED</text><text fill="#eeeeee" stroke="none" font-family="Arial" font-size="24px" font-style="normal" font-weight="normal" text-decoration="none" x="0" y="240">UNREGISTERED</text><text fill="#eeeeee" stroke="none" font-family="Arial" font-size="24px" font-style="normal" font-weight="normal" text-decoration="none" x="0" y="270">UNREGISTERED</text><text fill="#eeeeee" stroke="none" font-family="Arial" font-size="24px" font-style="normal" font-weight="normal" text-decoration="none" x="0" y="300">UNREGISTERED</text><text fill="#eeeeee" stroke="none" font-family="Arial" font-size="24px" font-style="normal" font-weight="normal" text-decoration="none" x="0" y="330">UNREGISTERED</text><text fill="#eeeeee" stroke="none" font-family="Arial" font-size="24px" font-style="normal" font-weight="normal" text-decoration="none" x="0" y="360">UNREGISTERED</text><text fill="#eeeeee" stroke="none" font-family="Arial" font-size="24px" font-style="normal" font-weight="normal" text-decoration="none" x="0" y="390">UNREGISTERED</text><text fill="#eeeeee" stroke="none" font-family="Arial" font-size="24px" font-style="normal" font-weight="normal" text-decoration="none" x="0" y="420">UNREGISTERED</text><text fill="#eeeeee" stroke="none" font-family="Arial" font-size="24px" font-style="normal" font-weight="normal" text-decoration="none" x="0" y="450">UNREGISTERED</text><text fill="#eeeeee" stroke="none" font-family="Arial" font-size="24px" font-style="normal" font-weight="normal" text-decoration="none" x="0" y="480">UNREGISTERED</text><text fill="#eeeeee" stroke="none" font-family="Arial" font-size="24px" font-style="normal" font-weight="normal" text-decoration="none" x="0" y="510">UNREGISTERED</text><text fill="#eeeeee" stroke="none" font-family="Arial" font-size="24px" font-style="normal" font-weight="normal" text-decoration="none" x="0" y="540">UNREGISTERED</text><text fill="#eeeeee" stroke="none" font-family="Arial" font-size="24px" font-style="normal" font-weight="normal" text-decoration="none" x="0" y="570">UNREGISTERED</text><text fill="#eeeeee" stroke="none" font-family="Arial" font-size="24px" font-style="normal" font-weight="normal" text-decoration="none" x="0" y="600">UNREGISTERED</text><text fill="#eeeeee" stroke="none" font-family="Arial" font-size="24px" font-style="normal" font-weight="normal" text-decoration="none" x="0" y="630">UNREGISTERED</text><text fill="#eeeeee" stroke="none" font-family="Arial" font-size="24px" font-style="normal" font-weight="normal" text-decoration="none" x="0" y="660">UNREGISTERED</text><text fill="#eeeeee" stroke="none" font-family="Arial" font-size="24px" font-style="normal" font-weight="normal" text-decoration="none" x="0" y="690">UNREGISTERED</text><text fill="#eeeeee" stroke="none" font-family="Arial" font-size="24px" font-style="normal" font-weight="normal" text-decoration="none" x="0" y="720">UNREGISTERED</text><text fill="#eeeeee" stroke="none" font-family="Arial" font-size="24px" font-style="normal" font-weight="normal" text-decoration="none" x="200" y="0">UNREGISTERED</text><text fill="#eeeeee" stroke="none" font-family="Arial" font-size="24px" font-style="normal" font-weight="normal" text-decoration="none" x="200" y="30">UNREGISTERED</text><text fill="#eeeeee" stroke="none" font-family="Arial" font-size="24px" font-style="normal" font-weight="normal" text-decoration="none" x="200" y="60">UNREGISTERED</text><text fill="#eeeeee" stroke="none" font-family="Arial" font-size="24px" font-style="normal" font-weight="normal" text-decoration="none" x="200" y="90">UNREGISTERED</text><text fill="#eeeeee" stroke="none" font-family="Arial" font-size="24px" font-style="normal" font-weight="normal" text-decoration="none" x="200" y="120">UNREGISTERED</text><text fill="#eeeeee" stroke="none" font-family="Arial" font-size="24px" font-style="normal" font-weight="normal" text-decoration="none" x="200" y="150">UNREGISTERED</text><text fill="#eeeeee" stroke="none" font-family="Arial" font-size="24px" font-style="normal" font-weight="normal" text-decoration="none" x="200" y="180">UNREGISTERED</text><text fill="#eeeeee" stroke="none" font-family="Arial" font-size="24px" font-style="normal" font-weight="normal" text-decoration="none" x="200" y="210">UNREGISTERED</text><text fill="#eeeeee" stroke="none" font-family="Arial" font-size="24px" font-style="normal" font-weight="normal" text-decoration="none" x="200" y="240">UNREGISTERED</text><text fill="#eeeeee" stroke="none" font-family="Arial" font-size="24px" font-style="normal" font-weight="normal" text-decoration="none" x="200" y="270">UNREGISTERED</text><text fill="#eeeeee" stroke="none" font-family="Arial" font-size="24px" font-style="normal" font-weight="normal" text-decoration="none" x="200" y="300">UNREGISTERED</text><text fill="#eeeeee" stroke="none" font-family="Arial" font-size="24px" font-style="normal" font-weight="normal" text-decoration="none" x="200" y="330">UNREGISTERED</text><text fill="#eeeeee" stroke="none" font-family="Arial" font-size="24px" font-style="normal" font-weight="normal" text-decoration="none" x="200" y="360">UNREGISTERED</text><text fill="#eeeeee" stroke="none" font-family="Arial" font-size="24px" font-style="normal" font-weight="normal" text-decoration="none" x="200" y="390">UNREGISTERED</text><text fill="#eeeeee" stroke="none" font-family="Arial" font-size="24px" font-style="normal" font-weight="normal" text-decoration="none" x="200" y="420">UNREGISTERED</text><text fill="#eeeeee" stroke="none" font-family="Arial" font-size="24px" font-style="normal" font-weight="normal" text-decoration="none" x="200" y="450">UNREGISTERED</text><text fill="#eeeeee" stroke="none" font-family="Arial" font-size="24px" font-style="normal" font-weight="normal" text-decoration="none" x="200" y="480">UNREGISTERED</text><text fill="#eeeeee" stroke="none" font-family="Arial" font-size="24px" font-style="normal" font-weight="normal" text-decoration="none" x="200" y="510">UNREGISTERED</text><text fill="#eeeeee" stroke="none" font-family="Arial" font-size="24px" font-style="normal" font-weight="normal" text-decoration="none" x="200" y="540">UNREGISTERED</text><text fill="#eeeeee" stroke="none" font-family="Arial" font-size="24px" font-style="normal" font-weight="normal" text-decoration="none" x="200" y="570">UNREGISTERED</text><text fill="#eeeeee" stroke="none" font-family="Arial" font-size="24px" font-style="normal" font-weight="normal" text-decoration="none" x="200" y="600">UNREGISTERED</text><text fill="#eeeeee" stroke="none" font-family="Arial" font-size="24px" font-style="normal" font-weight="normal" text-decoration="none" x="200" y="630">UNREGISTERED</text><text fill="#eeeeee" stroke="none" font-family="Arial" font-size="24px" font-style="normal" font-weight="normal" text-decoration="none" x="200" y="660">UNREGISTERED</text><text fill="#eeeeee" stroke="none" font-family="Arial" font-size="24px" font-style="normal" font-weight="normal" text-decoration="none" x="200" y="690">UNREGISTERED</text><text fill="#eeeeee" stroke="none" font-family="Arial" font-size="24px" font-style="normal" font-weight="normal" text-decoration="none" x="200" y="720">UNREGISTERED</text><text fill="#eeeeee" stroke="none" font-family="Arial" font-size="24px" font-style="normal" font-weight="normal" text-decoration="none" x="400" y="0">UNREGISTERED</text><text fill="#eeeeee" stroke="none" font-family="Arial" font-size="24px" font-style="normal" font-weight="normal" text-decoration="none" x="400" y="30">UNREGISTERED</text><text fill="#eeeeee" stroke="none" font-family="Arial" font-size="24px" font-style="normal" font-weight="normal" text-decoration="none" x="400" y="60">UNREGISTERED</text><text fill="#eeeeee" stroke="none" font-family="Arial" font-size="24px" font-style="normal" font-weight="normal" text-decoration="none" x="400" y="90">UNREGISTERED</text><text fill="#eeeeee" stroke="none" font-family="Arial" font-size="24px" font-style="normal" font-weight="normal" text-decoration="none" x="400" y="120">UNREGISTERED</text><text fill="#eeeeee" stroke="none" font-family="Arial" font-size="24px" font-style="normal" font-weight="normal" text-decoration="none" x="400" y="150">UNREGISTERED</text><text fill="#eeeeee" stroke="none" font-family="Arial" font-size="24px" font-style="normal" font-weight="normal" text-decoration="none" x="400" y="180">UNREGISTERED</text><text fill="#eeeeee" stroke="none" font-family="Arial" font-size="24px" font-style="normal" font-weight="normal" text-decoration="none" x="400" y="210">UNREGISTERED</text><text fill="#eeeeee" stroke="none" font-family="Arial" font-size="24px" font-style="normal" font-weight="normal" text-decoration="none" x="400" y="240">UNREGISTERED</text><text fill="#eeeeee" stroke="none" font-family="Arial" font-size="24px" font-style="normal" font-weight="normal" text-decoration="none" x="400" y="270">UNREGISTERED</text><text fill="#eeeeee" stroke="none" font-family="Arial" font-size="24px" font-style="normal" font-weight="normal" text-decoration="none" x="400" y="300">UNREGISTERED</text><text fill="#eeeeee" stroke="none" font-family="Arial" font-size="24px" font-style="normal" font-weight="normal" text-decoration="none" x="400" y="330">UNREGISTERED</text><text fill="#eeeeee" stroke="none" font-family="Arial" font-size="24px" font-style="normal" font-weight="normal" text-decoration="none" x="400" y="360">UNREGISTERED</text><text fill="#eeeeee" stroke="none" font-family="Arial" font-size="24px" font-style="normal" font-weight="normal" text-decoration="none" x="400" y="390">UNREGISTERED</text><text fill="#eeeeee" stroke="none" font-family="Arial" font-size="24px" font-style="normal" font-weight="normal" text-decoration="none" x="400" y="420">UNREGISTERED</text><text fill="#eeeeee" stroke="none" font-family="Arial" font-size="24px" font-style="normal" font-weight="normal" text-decoration="none" x="400" y="450">UNREGISTERED</text><text fill="#eeeeee" stroke="none" font-family="Arial" font-size="24px" font-style="normal" font-weight="normal" text-decoration="none" x="400" y="480">UNREGISTERED</text><text fill="#eeeeee" stroke="none" font-family="Arial" font-size="24px" font-style="normal" font-weight="normal" text-decoration="none" x="400" y="510">UNREGISTERED</text><text fill="#eeeeee" stroke="none" font-family="Arial" font-size="24px" font-style="normal" font-weight="normal" text-decoration="none" x="400" y="540">UNREGISTERED</text><text fill="#eeeeee" stroke="none" font-family="Arial" font-size="24px" font-style="normal" font-weight="normal" text-decoration="none" x="400" y="570">UNREGISTERED</text><text fill="#eeeeee" stroke="none" font-family="Arial" font-size="24px" font-style="normal" font-weight="normal" text-decoration="none" x="400" y="600">UNREGISTERED</text><text fill="#eeeeee" stroke="none" font-family="Arial" font-size="24px" font-style="normal" font-weight="normal" text-decoration="none" x="400" y="630">UNREGISTERED</text><text fill="#eeeeee" stroke="none" font-family="Arial" font-size="24px" font-style="normal" font-weight="normal" text-decoration="none" x="400" y="660">UNREGISTERED</text><text fill="#eeeeee" stroke="none" font-family="Arial" font-size="24px" font-style="normal" font-weight="normal" text-decoration="none" x="400" y="690">UNREGISTERED</text><text fill="#eeeeee" stroke="none" font-family="Arial" font-size="24px" font-style="normal" font-weight="normal" text-decoration="none" x="400" y="720">UNREGISTERED</text><text fill="#eeeeee" stroke="none" font-family="Arial" font-size="24px" font-style="normal" font-weight="normal" text-decoration="none" x="600" y="0">UNREGISTERED</text><text fill="#eeeeee" stroke="none" font-family="Arial" font-size="24px" font-style="normal" font-weight="normal" text-decoration="none" x="600" y="30">UNREGISTERED</text><text fill="#eeeeee" stroke="none" font-family="Arial" font-size="24px" font-style="normal" font-weight="normal" text-decoration="none" x="600" y="60">UNREGISTERED</text><text fill="#eeeeee" stroke="none" font-family="Arial" font-size="24px" font-style="normal" font-weight="normal" text-decoration="none" x="600" y="90">UNREGISTERED</text><text fill="#eeeeee" stroke="none" font-family="Arial" font-size="24px" font-style="normal" font-weight="normal" text-decoration="none" x="600" y="120">UNREGISTERED</text><text fill="#eeeeee" stroke="none" font-family="Arial" font-size="24px" font-style="normal" font-weight="normal" text-decoration="none" x="600" y="150">UNREGISTERED</text><text fill="#eeeeee" stroke="none" font-family="Arial" font-size="24px" font-style="normal" font-weight="normal" text-decoration="none" x="600" y="180">UNREGISTERED</text><text fill="#eeeeee" stroke="none" font-family="Arial" font-size="24px" font-style="normal" font-weight="normal" text-decoration="none" x="600" y="210">UNREGISTERED</text><text fill="#eeeeee" stroke="none" font-family="Arial" font-size="24px" font-style="normal" font-weight="normal" text-decoration="none" x="600" y="240">UNREGISTERED</text><text fill="#eeeeee" stroke="none" font-family="Arial" font-size="24px" font-style="normal" font-weight="normal" text-decoration="none" x="600" y="270">UNREGISTERED</text><text fill="#eeeeee" stroke="none" font-family="Arial" font-size="24px" font-style="normal" font-weight="normal" text-decoration="none" x="600" y="300">UNREGISTERED</text><text fill="#eeeeee" stroke="none" font-family="Arial" font-size="24px" font-style="normal" font-weight="normal" text-decoration="none" x="600" y="330">UNREGISTERED</text><text fill="#eeeeee" stroke="none" font-family="Arial" font-size="24px" font-style="normal" font-weight="normal" text-decoration="none" x="600" y="360">UNREGISTERED</text><text fill="#eeeeee" stroke="none" font-family="Arial" font-size="24px" font-style="normal" font-weight="normal" text-decoration="none" x="600" y="390">UNREGISTERED</text><text fill="#eeeeee" stroke="none" font-family="Arial" font-size="24px" font-style="normal" font-weight="normal" text-decoration="none" x="600" y="420">UNREGISTERED</text><text fill="#eeeeee" stroke="none" font-family="Arial" font-size="24px" font-style="normal" font-weight="normal" text-decoration="none" x="600" y="450">UNREGISTERED</text><text fill="#eeeeee" stroke="none" font-family="Arial" font-size="24px" font-style="normal" font-weight="normal" text-decoration="none" x="600" y="480">UNREGISTERED</text><text fill="#eeeeee" stroke="none" font-family="Arial" font-size="24px" font-style="normal" font-weight="normal" text-decoration="none" x="600" y="510">UNREGISTERED</text><text fill="#eeeeee" stroke="none" font-family="Arial" font-size="24px" font-style="normal" font-weight="normal" text-decoration="none" x="600" y="540">UNREGISTERED</text><text fill="#eeeeee" stroke="none" font-family="Arial" font-size="24px" font-style="normal" font-weight="normal" text-decoration="none" x="600" y="570">UNREGISTERED</text><text fill="#eeeeee" stroke="none" font-family="Arial" font-size="24px" font-style="normal" font-weight="normal" text-decoration="none" x="600" y="600">UNREGISTERED</text><text fill="#eeeeee" stroke="none" font-family="Arial" font-size="24px" font-style="normal" font-weight="normal" text-decoration="none" x="600" y="630">UNREGISTERED</text><text fill="#eeeeee" stroke="none" font-family="Arial" font-size="24px" font-style="normal" font-weight="normal" text-decoration="none" x="600" y="660">UNREGISTERED</text><text fill="#eeeeee" stroke="none" font-family="Arial" font-size="24px" font-style="normal" font-weight="normal" text-decoration="none" x="600" y="690">UNREGISTERED</text><text fill="#eeeeee" stroke="none" font-family="Arial" font-size="24px" font-style="normal" font-weight="normal" text-decoration="none" x="600" y="720">UNREGISTERED</text><text fill="#eeeeee" stroke="none" font-family="Arial" font-size="24px" font-style="normal" font-weight="normal" text-decoration="none" x="800" y="0">UNREGISTERED</text><text fill="#eeeeee" stroke="none" font-family="Arial" font-size="24px" font-style="normal" font-weight="normal" text-decoration="none" x="800" y="30">UNREGISTERED</text><text fill="#eeeeee" stroke="none" font-family="Arial" font-size="24px" font-style="normal" font-weight="normal" text-decoration="none" x="800" y="60">UNREGISTERED</text><text fill="#eeeeee" stroke="none" font-family="Arial" font-size="24px" font-style="normal" font-weight="normal" text-decoration="none" x="800" y="90">UNREGISTERED</text><text fill="#eeeeee" stroke="none" font-family="Arial" font-size="24px" font-style="normal" font-weight="normal" text-decoration="none" x="800" y="120">UNREGISTERED</text><text fill="#eeeeee" stroke="none" font-family="Arial" font-size="24px" font-style="normal" font-weight="normal" text-decoration="none" x="800" y="150">UNREGISTERED</text><text fill="#eeeeee" stroke="none" font-family="Arial" font-size="24px" font-style="normal" font-weight="normal" text-decoration="none" x="800" y="180">UNREGISTERED</text><text fill="#eeeeee" stroke="none" font-family="Arial" font-size="24px" font-style="normal" font-weight="normal" text-decoration="none" x="800" y="210">UNREGISTERED</text><text fill="#eeeeee" stroke="none" font-family="Arial" font-size="24px" font-style="normal" font-weight="normal" text-decoration="none" x="800" y="240">UNREGISTERED</text><text fill="#eeeeee" stroke="none" font-family="Arial" font-size="24px" font-style="normal" font-weight="normal" text-decoration="none" x="800" y="270">UNREGISTERED</text><text fill="#eeeeee" stroke="none" font-family="Arial" font-size="24px" font-style="normal" font-weight="normal" text-decoration="none" x="800" y="300">UNREGISTERED</text><text fill="#eeeeee" stroke="none" font-family="Arial" font-size="24px" font-style="normal" font-weight="normal" text-decoration="none" x="800" y="330">UNREGISTERED</text><text fill="#eeeeee" stroke="none" font-family="Arial" font-size="24px" font-style="normal" font-weight="normal" text-decoration="none" x="800" y="360">UNREGISTERED</text><text fill="#eeeeee" stroke="none" font-family="Arial" font-size="24px" font-style="normal" font-weight="normal" text-decoration="none" x="800" y="390">UNREGISTERED</text><text fill="#eeeeee" stroke="none" font-family="Arial" font-size="24px" font-style="normal" font-weight="normal" text-decoration="none" x="800" y="420">UNREGISTERED</text><text fill="#eeeeee" stroke="none" font-family="Arial" font-size="24px" font-style="normal" font-weight="normal" text-decoration="none" x="800" y="450">UNREGISTERED</text><text fill="#eeeeee" stroke="none" font-family="Arial" font-size="24px" font-style="normal" font-weight="normal" text-decoration="none" x="800" y="480">UNREGISTERED</text><text fill="#eeeeee" stroke="none" font-family="Arial" font-size="24px" font-style="normal" font-weight="normal" text-decoration="none" x="800" y="510">UNREGISTERED</text><text fill="#eeeeee" stroke="none" font-family="Arial" font-size="24px" font-style="normal" font-weight="normal" text-decoration="none" x="800" y="540">UNREGISTERED</text><text fill="#eeeeee" stroke="none" font-family="Arial" font-size="24px" font-style="normal" font-weight="normal" text-decoration="none" x="800" y="570">UNREGISTERED</text><text fill="#eeeeee" stroke="none" font-family="Arial" font-size="24px" font-style="normal" font-weight="normal" text-decoration="none" x="800" y="600">UNREGISTERED</text><text fill="#eeeeee" stroke="none" font-family="Arial" font-size="24px" font-style="normal" font-weight="normal" text-decoration="none" x="800" y="630">UNREGISTERED</text><text fill="#eeeeee" stroke="none" font-family="Arial" font-size="24px" font-style="normal" font-weight="normal" text-decoration="none" x="800" y="660">UNREGISTERED</text><text fill="#eeeeee" stroke="none" font-family="Arial" font-size="24px" font-style="normal" font-weight="normal" text-decoration="none" x="800" y="690">UNREGISTERED</text><text fill="#eeeeee" stroke="none" font-family="Arial" font-size="24px" font-style="normal" font-weight="normal" text-decoration="none" x="800" y="720">UNREGISTERED</text><text fill="#eeeeee" stroke="none" font-family="Arial" font-size="24px" font-style="normal" font-weight="normal" text-decoration="none" x="1000" y="0">UNREGISTERED</text><text fill="#eeeeee" stroke="none" font-family="Arial" font-size="24px" font-style="normal" font-weight="normal" text-decoration="none" x="1000" y="30">UNREGISTERED</text><text fill="#eeeeee" stroke="none" font-family="Arial" font-size="24px" font-style="normal" font-weight="normal" text-decoration="none" x="1000" y="60">UNREGISTERED</text><text fill="#eeeeee" stroke="none" font-family="Arial" font-size="24px" font-style="normal" font-weight="normal" text-decoration="none" x="1000" y="90">UNREGISTERED</text><text fill="#eeeeee" stroke="none" font-family="Arial" font-size="24px" font-style="normal" font-weight="normal" text-decoration="none" x="1000" y="120">UNREGISTERED</text><text fill="#eeeeee" stroke="none" font-family="Arial" font-size="24px" font-style="normal" font-weight="normal" text-decoration="none" x="1000" y="150">UNREGISTERED</text><text fill="#eeeeee" stroke="none" font-family="Arial" font-size="24px" font-style="normal" font-weight="normal" text-decoration="none" x="1000" y="180">UNREGISTERED</text><text fill="#eeeeee" stroke="none" font-family="Arial" font-size="24px" font-style="normal" font-weight="normal" text-decoration="none" x="1000" y="210">UNREGISTERED</text><text fill="#eeeeee" stroke="none" font-family="Arial" font-size="24px" font-style="normal" font-weight="normal" text-decoration="none" x="1000" y="240">UNREGISTERED</text><text fill="#eeeeee" stroke="none" font-family="Arial" font-size="24px" font-style="normal" font-weight="normal" text-decoration="none" x="1000" y="270">UNREGISTERED</text><text fill="#eeeeee" stroke="none" font-family="Arial" font-size="24px" font-style="normal" font-weight="normal" text-decoration="none" x="1000" y="300">UNREGISTERED</text><text fill="#eeeeee" stroke="none" font-family="Arial" font-size="24px" font-style="normal" font-weight="normal" text-decoration="none" x="1000" y="330">UNREGISTERED</text><text fill="#eeeeee" stroke="none" font-family="Arial" font-size="24px" font-style="normal" font-weight="normal" text-decoration="none" x="1000" y="360">UNREGISTERED</text><text fill="#eeeeee" stroke="none" font-family="Arial" font-size="24px" font-style="normal" font-weight="normal" text-decoration="none" x="1000" y="390">UNREGISTERED</text><text fill="#eeeeee" stroke="none" font-family="Arial" font-size="24px" font-style="normal" font-weight="normal" text-decoration="none" x="1000" y="420">UNREGISTERED</text><text fill="#eeeeee" stroke="none" font-family="Arial" font-size="24px" font-style="normal" font-weight="normal" text-decoration="none" x="1000" y="450">UNREGISTERED</text><text fill="#eeeeee" stroke="none" font-family="Arial" font-size="24px" font-style="normal" font-weight="normal" text-decoration="none" x="1000" y="480">UNREGISTERED</text><text fill="#eeeeee" stroke="none" font-family="Arial" font-size="24px" font-style="normal" font-weight="normal" text-decoration="none" x="1000" y="510">UNREGISTERED</text><text fill="#eeeeee" stroke="none" font-family="Arial" font-size="24px" font-style="normal" font-weight="normal" text-decoration="none" x="1000" y="540">UNREGISTERED</text><text fill="#eeeeee" stroke="none" font-family="Arial" font-size="24px" font-style="normal" font-weight="normal" text-decoration="none" x="1000" y="570">UNREGISTERED</text><text fill="#eeeeee" stroke="none" font-family="Arial" font-size="24px" font-style="normal" font-weight="normal" text-decoration="none" x="1000" y="600">UNREGISTERED</text><text fill="#eeeeee" stroke="none" font-family="Arial" font-size="24px" font-style="normal" font-weight="normal" text-decoration="none" x="1000" y="630">UNREGISTERED</text><text fill="#eeeeee" stroke="none" font-family="Arial" font-size="24px" font-style="normal" font-weight="normal" text-decoration="none" x="1000" y="660">UNREGISTERED</text><text fill="#eeeeee" stroke="none" font-family="Arial" font-size="24px" font-style="normal" font-weight="normal" text-decoration="none" x="1000" y="690">UNREGISTERED</text><text fill="#eeeeee" stroke="none" font-family="Arial" font-size="24px" font-style="normal" font-weight="normal" text-decoration="none" x="1000" y="720">UNREGISTERED</text><g transform="translate(-118,-30) scale(1,1)"><path fill="#ffffff" stroke="none" d="M 184.8631454190341 47.3 C 184.8631454190341 43.82060576 187.7415471412159 41 191.292236328125 41 C 194.8429255150341 41 197.72132723721592 43.82060576 197.72132723721592 47.3 C 197.72132723721592 50.779394239999995 194.8429255150341 53.6 191.292236328125 53.6 C 187.7415471412159 53.6 184.8631454190341 50.779394239999995 184.8631454190341 47.3 Z"/></g><g transform="translate(-118,-30) scale(1,1)"><path fill="none" stroke="#000000" d="M 184.8631454190341 47.3 C 184.8631454190341 43.82060576 187.7415471412159 41 191.292236328125 41 C 194.8429255150341 41 197.72132723721592 43.82060576 197.72132723721592 47.3 C 197.72132723721592 50.779394239999995 194.8429255150341 53.6 191.292236328125 53.6 C 187.7415471412159 53.6 184.8631454190341 50.779394239999995 184.8631454190341 47.3 Z" stroke-miterlimit="10"/></g><g transform="translate(-118,-30) scale(1,1)"><path fill="none" stroke="#000000" d="M 191.292236328125 53.6 L 191.292236328125 66.4" stroke-miterlimit="10"/></g><g transform="translate(-118,-30) scale(1,1)"><path fill="none" stroke="#000000" d="M 184.4849636008523 58.4 L 198.09950905539773 58.4" stroke-miterlimit="10"/></g><g transform="translate(-118,-30) scale(1,1)"><path fill="none" stroke="#000000" d="M 191.292236328125 66.4 L 181.83769087357956 79" stroke-miterlimit="10"/></g><g transform="translate(-118,-30) scale(1,1)"><path fill="none" stroke="#000000" d="M 191.292236328125 66.4 L 200.74678178267047 79" stroke-miterlimit="10"/></g><g transform="translate(-118,-30) scale(1,1)"><g><path fill="none" stroke="none"/><text fill="#000000" stroke="none" font-family="Arial" font-size="13px" font-style="normal" font-weight="bold" text-decoration="none" x="149.74365234375" y="99.5">Lifeline1: User</text></g></g><g transform="translate(-118,-30) scale(1,1)"><path fill="none" stroke="#000000" d="M 192.5 105 L 192.5 752" stroke-miterlimit="10" stroke-dasharray="3"/></g><g transform="translate(-118,-30) scale(1,1)"><rect fill="#C0C0C0" stroke="none" x="391" y="47" width="71.736328125" height="39" opacity="0.2"/></g><g transform="translate(-118,-30) scale(1,1)"><rect fill="#ffffff" stroke="none" x="384" y="40" width="71.736328125" height="39"/></g><g transform="translate(-118,-30) scale(1,1)"><path fill="none" stroke="#000000" d="M 384 40 L 455.736328125 40 L 455.736328125 79 L 384 79 L 384 40 Z Z" stroke-miterlimit="10"/></g><g transform="translate(-118,-30) scale(1,1)"><g><path fill="none" stroke="none"/><text fill="#000000" stroke="none" font-family="Arial" font-size="13px" font-style="normal" font-weight="bold" text-decoration="none" x="408.312255859375" y="59.5">GUI</text></g></g><g transform="translate(-118,-30) scale(1,1)"><path fill="none" stroke="#000000" d="M 420.5 80 L 420.5 758" stroke-miterlimit="10" stroke-dasharray="3"/></g><g transform="translate(-118,-30) scale(1,1)"><rect fill="#C0C0C0" stroke="none" x="687" y="47" width="71.736328125" height="39" opacity="0.2"/></g><g transform="translate(-118,-30) scale(1,1)"><rect fill="#ffffff" stroke="none" x="680" y="40" width="71.736328125" height="39"/></g><g transform="translate(-118,-30) scale(1,1)"><path fill="none" stroke="#000000" d="M 680 40 L 751.736328125 40 L 751.736328125 79 L 680 79 L 680 40 Z Z" stroke-miterlimit="10"/></g><g transform="translate(-118,-30) scale(1,1)"><g><path fill="none" stroke="none"/><text fill="#000000" stroke="none" font-family="Arial" font-size="13px" font-style="normal" font-weight="bold" text-decoration="none" x="707.917724609375" y="59.5">BL</text></g></g><g transform="translate(-118,-30) scale(1,1)"><path fill="none" stroke="#000000" d="M 716.5 80 L 716.5 721" stroke-miterlimit="10" stroke-dasharray="3"/></g><g transform="translate(-118,-30) scale(1,1)"><rect fill="#C0C0C0" stroke="none" x="967" y="47" width="107.12451171875" height="39" opacity="0.2"/></g><g transform="translate(-118,-30) scale(1,1)"><rect fill="#ffffff" stroke="none" x="960" y="40" width="107.12451171875" height="39"/></g><g transform="translate(-118,-30) scale(1,1)"><path fill="none" stroke="#000000" d="M 960 40 L 1067.12451171875 40 L 1067.12451171875 79 L 960 79 L 960 40 Z Z" stroke-miterlimit="10"/></g><g transform="translate(-118,-30) scale(1,1)"><g><path fill="none" stroke="none"/><text fill="#000000" stroke="none" font-family="Arial" font-size="13px" font-style="normal" font-weight="bold" text-decoration="none" x="972.734130859375" y="59.5">UserSingleton</text></g></g><g transform="translate(-118,-30) scale(1,1)"><path fill="none" stroke="#000000" d="M 1014.5 80 L 1014.5 697" stroke-miterlimit="10" stroke-dasharray="3"/></g><g transform="translate(-118,-30) scale(1,1)"><rect fill="#C0C0C0" stroke="none" x="1159" y="47" width="71.736328125" height="39" opacity="0.2"/></g><g transform="translate(-118,-30) scale(1,1)"><rect fill="#ffffff" stroke="none" x="1152" y="40" width="71.736328125" height="39"/></g><g transform="translate(-118,-30) scale(1,1)"><path fill="none" stroke="#000000" d="M 1152 40 L 1223.736328125 40 L 1223.736328125 79 L 1152 79 L 1152 40 Z Z" stroke-miterlimit="10"/></g><g transform="translate(-118,-30) scale(1,1)"><g><path fill="none" stroke="none"/><text fill="#000000" stroke="none" font-family="Arial" font-size="13px" font-style="normal" font-weight="bold" text-decoration="none" x="1173.424072265625" y="59.5">DAM</text></g></g><g transform="translate(-118,-30) scale(1,1)"><path fill="none" stroke="#000000" d="M 1188.5 80 L 1188.5 728" stroke-miterlimit="10" stroke-dasharray="3"/></g><g transform="translate(-118,-30) scale(1,1)"><path fill="none" stroke="#000000" d="M 128 112 L 951 112 L 951 295 L 128 295 L 128 112" stroke-miterlimit="10"/></g><g transform="translate(-118,-30) scale(1,1)"><path fill="#ffffff" stroke="none" d="M 128 112 L 128 134 L 284.91796875 134 L 295.91796875 123 L 295.91796875 112 L 128 112"/></g><g transform="translate(-118,-30) scale(1,1)"><path fill="none" stroke="#000000" d="M 128 112 L 128 134 L 284.91796875 134 L 295.91796875 123 L 295.91796875 112 L 128 112 L 128 112" stroke-miterlimit="10"/></g><g transform="translate(-118,-30) scale(1,1)"><g><path fill="none" stroke="none"/><text fill="#000000" stroke="none" font-family="Arial" font-size="13px" font-style="normal" font-weight="normal" text-decoration="none" x="163.578125" y="129.5">exists bet availables</text></g></g><g transform="translate(-118,-30) scale(1,1)"><g><path fill="none" stroke="none"/><text fill="#000000" stroke="none" font-family="Arial" font-size="13px" font-style="normal" font-weight="bold" text-decoration="none" x="133" y="129.5">loop</text></g></g><g transform="translate(-118,-30) scale(1,1)"><path fill="none" stroke="#000000" d="M 192 152 L 413 152" stroke-miterlimit="10"/></g><g transform="translate(-118,-30) scale(1,1)"><path fill="#000000" stroke="none" d="M 402.83732514237585 156.209517756016 L 413 152 L 402.83732514237585 147.790482243984"/></g><g transform="translate(-118,-30) scale(1,1)"><path fill="none" stroke="#000000" d="M 402.83732514237585 156.209517756016 L 413 152 L 402.83732514237585 147.790482243984 L 402.83732514237585 156.209517756016" stroke-miterlimit="10"/></g><g transform="translate(-118,-30) scale(1,1)"><g><path fill="none" stroke="none"/><text fill="#000000" stroke="none" font-family="Arial" font-size="13px" font-style="normal" font-weight="normal" text-decoration="none" x="265.75" y="148.5">1 : singleBet</text></g></g><g transform="translate(-118,-30) scale(1,1)"><rect fill="#ffffff" stroke="none" x="413" y="152" width="13" height="139"/></g><g transform="translate(-118,-30) scale(1,1)"><path fill="none" stroke="#000000" d="M 413 152 L 426 152 L 426 291 L 413 291 L 413 152 Z Z" stroke-miterlimit="10"/></g><g transform="translate(-118,-30) scale(1,1)"><path fill="none" stroke="#000000" d="M 426 168 L 709 168" stroke-miterlimit="10"/></g><g transform="translate(-118,-30) scale(1,1)"><path fill="#000000" stroke="none" d="M 698.8373251423759 172.209517756016 L 709 168 L 698.8373251423758 163.790482243984"/></g><g transform="translate(-118,-30) scale(1,1)"><path fill="none" stroke="#000000" d="M 698.8373251423759 172.209517756016 L 709 168 L 698.8373251423758 163.790482243984 L 698.8373251423759 172.209517756016" stroke-miterlimit="10"/></g><g transform="translate(-118,-30) scale(1,1)"><g><path fill="none" stroke="none"/><text fill="#000000" stroke="none" font-family="Arial" font-size="13px" font-style="normal" font-weight="normal" text-decoration="none" x="502.75" y="164.5">2 : storeBet(singleBet)</text></g></g><g transform="translate(-118,-30) scale(1,1)"><rect fill="#ffffff" stroke="none" x="709" y="168" width="13" height="28"/></g><g transform="translate(-118,-30) scale(1,1)"><path fill="none" stroke="#000000" d="M 709 168 L 722 168 L 722 196 L 709 196 L 709 168 Z Z" stroke-miterlimit="10"/></g><g transform="translate(-118,-30) scale(1,1)"><path fill="none" stroke="#000000" d="M 722 184 L 752 184 L 752 204 L 722 204" stroke-miterlimit="10"/></g><g transform="translate(-118,-30) scale(1,1)"><path fill="#000000" stroke="none" d="M 732.1626748576241 199.790482243984 L 722 204 L 732.1626748576241 208.209517756016"/></g><g transform="translate(-118,-30) scale(1,1)"><path fill="none" stroke="#000000" d="M 732.1626748576241 199.790482243984 L 722 204 L 732.1626748576241 208.209517756016 L 732.1626748576241 199.790482243984" stroke-miterlimit="10"/></g><g transform="translate(-118,-30) scale(1,1)"><g><path fill="none" stroke="none"/><text fill="#000000" stroke="none" font-family="Arial" font-size="13px" font-style="normal" font-weight="normal" text-decoration="none" x="759.5" y="196.5">3 : addBet(singleBet)</text></g></g><g transform="translate(-118,-30) scale(1,1)"><rect fill="#ffffff" stroke="none" x="709" y="204" width="13" height="28"/></g><g transform="translate(-118,-30) scale(1,1)"><path fill="none" stroke="#000000" d="M 709 204 L 722 204 L 722 232 L 709 232 L 709 204 Z Z" stroke-miterlimit="10"/></g><g transform="translate(-118,-30) scale(1,1)"><path fill="none" stroke="#000000" d="M 426 232 L 456 232 L 456 252 L 433 252" stroke-miterlimit="10"/></g><g transform="translate(-118,-30) scale(1,1)"><path fill="#000000" stroke="none" d="M 443.16267485762415 247.790482243984 L 433 252 L 443.16267485762415 256.209517756016"/></g><g transform="translate(-118,-30) scale(1,1)"><path fill="none" stroke="#000000" d="M 443.16267485762415 247.790482243984 L 433 252 L 443.16267485762415 256.209517756016 L 443.16267485762415 247.790482243984" stroke-miterlimit="10"/></g><g transform="translate(-118,-30) scale(1,1)"><g><path fill="none" stroke="none"/><text fill="#000000" stroke="none" font-family="Arial" font-size="13px" font-style="normal" font-weight="normal" text-decoration="none" x="463.5" y="247.5">4 : displayBetSummary(singleBet)</text></g></g><g transform="translate(-118,-30) scale(1,1)"><rect fill="#ffffff" stroke="none" x="420" y="252" width="13" height="28"/></g><g transform="translate(-118,-30) scale(1,1)"><path fill="none" stroke="#000000" d="M 420 252 L 433 252 L 433 280 L 420 280 L 420 252 Z Z" stroke-miterlimit="10"/></g><g transform="translate(-118,-30) scale(1,1)"><path fill="none" stroke="#000000" d="M 192 315 L 413 315" stroke-miterlimit="10"/></g><g transform="translate(-118,-30) scale(1,1)"><path fill="#000000" stroke="none" d="M 402.83732514237585 319.209517756016 L 413 315 L 402.83732514237585 310.790482243984"/></g><g transform="translate(-118,-30) scale(1,1)"><path fill="none" stroke="#000000" d="M 402.83732514237585 319.209517756016 L 413 315 L 402.83732514237585 310.790482243984 L 402.83732514237585 319.209517756016" stroke-miterlimit="10"/></g><g transform="translate(-118,-30) scale(1,1)"><g><path fill="none" stroke="none"/><text fill="#000000" stroke="none" font-family="Arial" font-size="13px" font-style="normal" font-weight="normal" text-decoration="none" x="247.5" y="311.5">5 : *proccess bets*</text></g></g><g transform="translate(-118,-30) scale(1,1)"><rect fill="#ffffff" stroke="none" x="413" y="315" width="13" height="109"/></g><g transform="translate(-118,-30) scale(1,1)"><path fill="none" stroke="#000000" d="M 413 315 L 426 315 L 426 424 L 413 424 L 413 315 Z Z" stroke-miterlimit="10"/></g><g transform="translate(-118,-30) scale(1,1)"><path fill="none" stroke="#000000" d="M 426 332 L 709 332" stroke-miterlimit="10"/></g><g transform="translate(-118,-30) scale(1,1)"><path fill="#000000" stroke="none" d="M 698.8373251423759 336.209517756016 L 709 332 L 698.8373251423758 327.790482243984"/></g><g transform="translate(-118,-30) scale(1,1)"><path fill="none" stroke="#000000" d="M 698.8373251423759 336.209517756016 L 709 332 L 698.8373251423758 327.790482243984 L 698.8373251423759 336.209517756016" stroke-miterlimit="10"/></g><g transform="translate(-118,-30) scale(1,1)"><g><path fill="none" stroke="none"/><text fill="#000000" stroke="none" font-family="Arial" font-size="13px" font-style="normal" font-weight="normal" text-decoration="none" x="489.5" y="328.5">6 : earnings = proccessBet</text></g></g><g transform="translate(-118,-30) scale(1,1)"><rect fill="#ffffff" stroke="none" x="709" y="332" width="13" height="95"/></g><g transform="translate(-118,-30) scale(1,1)"><path fill="none" stroke="#000000" d="M 709 332 L 722 332 L 722 427 L 709 427 L 709 332 Z Z" stroke-miterlimit="10"/></g><g transform="translate(-118,-30) scale(1,1)"><path fill="none" stroke="#000000" d="M 722 376 L 752 376 L 752 396 L 729 396" stroke-miterlimit="10"/></g><g transform="translate(-118,-30) scale(1,1)"><path fill="#000000" stroke="none" d="M 739.1626748576241 391.790482243984 L 729 396 L 739.1626748576241 400.209517756016"/></g><g transform="translate(-118,-30) scale(1,1)"><path fill="none" stroke="#000000" d="M 739.1626748576241 391.790482243984 L 729 396 L 739.1626748576241 400.209517756016 L 739.1626748576241 391.790482243984" stroke-miterlimit="10"/></g><g transform="translate(-118,-30) scale(1,1)"><g><path fill="none" stroke="none"/><text fill="#000000" stroke="none" font-family="Arial" font-size="13px" font-style="normal" font-weight="normal" text-decoration="none" x="766.5" y="391.5">7 : calculateEarnings</text></g></g><g transform="translate(-118,-30) scale(1,1)"><rect fill="#ffffff" stroke="none" x="716" y="396" width="13" height="28"/></g><g transform="translate(-118,-30) scale(1,1)"><path fill="none" stroke="#000000" d="M 716 396 L 729 396 L 729 424 L 716 424 L 716 396 Z Z" stroke-miterlimit="10"/></g><g transform="translate(-118,-30) scale(1,1)"><path fill="none" stroke="#000000" d="M 716 408 L 426 408" stroke-miterlimit="10" stroke-dasharray="3"/></g><g transform="translate(-118,-30) scale(1,1)"><path fill="none" stroke="#000000" d="M 436.16267485762415 403.790482243984 L 426 408 L 436.16267485762415 412.209517756016" stroke-miterlimit="10"/></g><g transform="translate(-118,-30) scale(1,1)"><g><path fill="none" stroke="none"/><text fill="#000000" stroke="none" font-family="Arial" font-size="13px" font-style="normal" font-weight="normal" text-decoration="none" x="536.5" y="424.5">8 : earnings</text></g></g><g transform="translate(-118,-30) scale(1,1)"><path fill="none" stroke="#000000" d="M 420 424 L 450 424 L 450 444 L 426 444" stroke-miterlimit="10"/></g><g transform="translate(-118,-30) scale(1,1)"><path fill="#000000" stroke="none" d="M 436.16267485762415 439.790482243984 L 426 444 L 436.16267485762415 448.209517756016"/></g><g transform="translate(-118,-30) scale(1,1)"><path fill="none" stroke="#000000" d="M 436.16267485762415 439.790482243984 L 426 444 L 436.16267485762415 448.209517756016 L 436.16267485762415 439.790482243984" stroke-miterlimit="10"/></g><g transform="translate(-118,-30) scale(1,1)"><g><path fill="none" stroke="none"/><text fill="#000000" stroke="none" font-family="Arial" font-size="13px" font-style="normal" font-weight="normal" text-decoration="none" x="462.5" y="439.5">9 : displayBet(earnings)</text></g></g><g transform="translate(-118,-30) scale(1,1)"><rect fill="#ffffff" stroke="none" x="413" y="444" width="13" height="28"/></g><g transform="translate(-118,-30) scale(1,1)"><path fill="none" stroke="#000000" d="M 413 444 L 426 444 L 426 472 L 413 472 L 413 444 Z Z" stroke-miterlimit="10"/></g><g transform="translate(-118,-30) scale(1,1)"><path fill="none" stroke="#000000" d="M 192 528 L 413 528" stroke-miterlimit="10"/></g><g transform="translate(-118,-30) scale(1,1)"><path fill="#000000" stroke="none" d="M 402.83732514237585 532.209517756016 L 413 528 L 402.83732514237585 523.790482243984"/></g><g transform="translate(-118,-30) scale(1,1)"><path fill="none" stroke="#000000" d="M 402.83732514237585 532.209517756016 L 413 528 L 402.83732514237585 523.790482243984 L 402.83732514237585 532.209517756016" stroke-miterlimit="10"/></g><g transform="translate(-118,-30) scale(1,1)"><g><path fill="none" stroke="none"/><text fill="#000000" stroke="none" font-family="Arial" font-size="13px" font-style="normal" font-weight="normal" text-decoration="none" x="269.97998046875" y="524.5">10 : money</text></g></g><g transform="translate(-118,-30) scale(1,1)"><rect fill="#ffffff" stroke="none" x="413" y="528" width="13" height="28"/></g><g transform="translate(-118,-30) scale(1,1)"><path fill="none" stroke="#000000" d="M 413 528 L 426 528 L 426 556 L 413 556 L 413 528 Z Z" stroke-miterlimit="10"/></g><g transform="translate(-118,-30) scale(1,1)"><path fill="none" stroke="#000000" d="M 426 544 L 709 544" stroke-miterlimit="10"/></g><g transform="translate(-118,-30) scale(1,1)"><path fill="#000000" stroke="none" d="M 698.8373251423759 548.209517756016 L 709 544 L 698.8373251423758 539.790482243984"/></g><g transform="translate(-118,-30) scale(1,1)"><path fill="none" stroke="#000000" d="M 698.8373251423759 548.209517756016 L 709 544 L 698.8373251423758 539.790482243984 L 698.8373251423759 548.209517756016" stroke-miterlimit="10"/></g><g transform="translate(-118,-30) scale(1,1)"><g><path fill="none" stroke="none"/><text fill="#000000" stroke="none" font-family="Arial" font-size="13px" font-style="normal" font-weight="normal" text-decoration="none" x="473.5" y="540.5">11 : betToUser(money, earnings)</text></g></g><g transform="translate(-118,-30) scale(1,1)"><rect fill="#ffffff" stroke="none" x="709" y="544" width="13" height="28"/></g><g transform="translate(-118,-30) scale(1,1)"><path fill="none" stroke="#000000" d="M 709 544 L 722 544 L 722 572 L 709 572 L 709 544 Z Z" stroke-miterlimit="10"/></g><g transform="translate(-118,-30) scale(1,1)"><path fill="none" stroke="#000000" d="M 722 560 L 752 560 L 752 580 L 722 580" stroke-miterlimit="10"/></g><g transform="translate(-118,-30) scale(1,1)"><path fill="#000000" stroke="none" d="M 732.1626748576241 575.790482243984 L 722 580 L 732.1626748576241 584.209517756016"/></g><g transform="translate(-118,-30) scale(1,1)"><path fill="none" stroke="#000000" d="M 732.1626748576241 575.790482243984 L 722 580 L 732.1626748576241 584.209517756016 L 732.1626748576241 575.790482243984" stroke-miterlimit="10"/></g><g transform="translate(-118,-30) scale(1,1)"><g><path fill="none" stroke="none"/><text fill="#000000" stroke="none" font-family="Arial" font-size="13px" font-style="normal" font-weight="normal" text-decoration="none" x="758.5" y="575.5">12 : userBet = createBet</text></g></g><g transform="translate(-118,-30) scale(1,1)"><rect fill="#ffffff" stroke="none" x="709" y="580" width="13" height="28"/></g><g transform="translate(-118,-30) scale(1,1)"><path fill="none" stroke="#000000" d="M 709 580 L 722 580 L 722 608 L 709 608 L 709 580 Z Z" stroke-miterlimit="10"/></g><g transform="translate(-118,-30) scale(1,1)"><path fill="none" stroke="#000000" d="M 716 626 L 1007 626" stroke-miterlimit="10"/></g><g transform="translate(-118,-30) scale(1,1)"><path fill="#000000" stroke="none" d="M 996.8373251423759 630.209517756016 L 1007 626 L 996.8373251423758 621.790482243984"/></g><g transform="translate(-118,-30) scale(1,1)"><path fill="none" stroke="#000000" d="M 996.8373251423759 630.209517756016 L 1007 626 L 996.8373251423758 621.790482243984 L 996.8373251423759 630.209517756016" stroke-miterlimit="10"/></g><g transform="translate(-118,-30) scale(1,1)"><g><path fill="none" stroke="none"/><text fill="#000000" stroke="none" font-family="Arial" font-size="13px" font-style="normal" font-weight="normal" text-decoration="none" x="797.5" y="622.5">13 : storeBet(userBet)</text></g></g><g transform="translate(-118,-30) scale(1,1)"><rect fill="#ffffff" stroke="none" x="1007" y="626" width="13" height="28"/></g><g transform="translate(-118,-30) scale(1,1)"><path fill="none" stroke="#000000" d="M 1007 626 L 1020 626 L 1020 654 L 1007 654 L 1007 626 Z Z" stroke-miterlimit="10"/></g><g transform="translate(-118,-30) scale(1,1)"><path fill="none" stroke="#000000" d="M 716 655 L 1007 655" stroke-miterlimit="10"/></g><g transform="translate(-118,-30) scale(1,1)"><path fill="#000000" stroke="none" d="M 996.8373251423759 659.209517756016 L 1007 655 L 996.8373251423758 650.790482243984"/></g><g transform="translate(-118,-30) scale(1,1)"><path fill="none" stroke="#000000" d="M 996.8373251423759 659.209517756016 L 1007 655 L 996.8373251423758 650.790482243984 L 996.8373251423759 659.209517756016" stroke-miterlimit="10"/></g><g transform="translate(-118,-30) scale(1,1)"><g><path fill="none" stroke="none"/><text fill="#000000" stroke="none" font-family="Arial" font-size="13px" font-style="normal" font-weight="normal" text-decoration="none" x="805.5" y="651.5">14 : user = getUser</text></g></g><g transform="translate(-118,-30) scale(1,1)"><rect fill="#ffffff" stroke="none" x="1007" y="655" width="13" height="28"/></g><g transform="translate(-118,-30) scale(1,1)"><path fill="none" stroke="#000000" d="M 1007 655 L 1020 655 L 1020 683 L 1007 683 L 1007 655 Z Z" stroke-miterlimit="10"/></g><g transform="translate(-118,-30) scale(1,1)"><path fill="none" stroke="#000000" d="M 716 679 L 1181 679" stroke-miterlimit="10"/></g><g transform="translate(-118,-30) scale(1,1)"><path fill="#000000" stroke="none" d="M 1170.837325142376 683.209517756016 L 1181 679 L 1170.837325142376 674.790482243984"/></g><g transform="translate(-118,-30) scale(1,1)"><path fill="none" stroke="#000000" d="M 1170.837325142376 683.209517756016 L 1181 679 L 1170.837325142376 674.790482243984 L 1170.837325142376 683.209517756016" stroke-miterlimit="10"/></g><g transform="translate(-118,-30) scale(1,1)"><g><path fill="none" stroke="none"/><text fill="#000000" stroke="none" font-family="Arial" font-size="13px" font-style="normal" font-weight="normal" text-decoration="none" x="868.5" y="675.5">15 : saveBet(userBet, user)</text></g></g><g transform="translate(-118,-30) scale(1,1)"><rect fill="#ffffff" stroke="none" x="1181" y="679" width="13" height="28"/></g><g transform="translate(-118,-30) scale(1,1)"><path fill="none" stroke="#000000" d="M 1181 679 L 1194 679 L 1194 707 L 1181 707 L 1181 679 Z Z" stroke-miterlimit="10"/></g><g transform="translate(-118,-30) scale(1,1)"><path fill="none" stroke="#000000" d="M 420 696 L 450 696 L 450 716 L 426 716" stroke-miterlimit="10"/></g><g transform="translate(-118,-30) scale(1,1)"><path fill="#000000" stroke="none" d="M 436.16267485762415 711.790482243984 L 426 716 L 436.16267485762415 720.209517756016"/></g><g transform="translate(-118,-30) scale(1,1)"><path fill="none" stroke="#000000" d="M 436.16267485762415 711.790482243984 L 426 716 L 436.16267485762415 720.209517756016 L 436.16267485762415 711.790482243984" stroke-miterlimit="10"/></g><g transform="translate(-118,-30) scale(1,1)"><g><path fill="none" stroke="none"/><text fill="#000000" stroke="none" font-family="Arial" font-size="13px" font-style="normal" font-weight="normal" text-decoration="none" x="470.5" y="711.5">16 : displayConfirmationMessage</text></g></g><g transform="translate(-118,-30) scale(1,1)"><rect fill="#ffffff" stroke="none" x="413" y="716" width="13" height="28"/></g><g transform="translate(-118,-30) scale(1,1)"><path fill="none" stroke="#000000" d="M 413 716 L 426 716 L 426 744 L 413 744 L 413 716 Z Z" stroke-miterlimit="10"/></g></g></svg>