<svg version="1.1" xmlns="http://www.w3.org/2000/svg" xmlns:xlink="http://www.w3.org/1999/xlink" width="707" height="604"><defs/><g><text fill="#eeeeee" stroke="none" font-family="Arial" font-size="24px" font-style="normal" font-weight="normal" text-decoration="none" x="0" y="0">UNREGISTERED</text><text fill="#eeeeee" stroke="none" font-family="Arial" font-size="24px" font-style="normal" font-weight="normal" text-decoration="none" x="0" y="30">UNREGISTERED</text><text fill="#eeeeee" stroke="none" font-family="Arial" font-size="24px" font-style="normal" font-weight="normal" text-decoration="none" x="0" y="60">UNREGISTERED</text><text fill="#eeeeee" stroke="none" font-family="Arial" font-size="24px" font-style="normal" font-weight="normal" text-decoration="none" x="0" y="90">UNREGISTERED</text><text fill="#eeeeee" stroke="none" font-family="Arial" font-size="24px" font-style="normal" font-weight="normal" text-decoration="none" x="0" y="120">UNREGISTERED</text><text fill="#eeeeee" stroke="none" font-family="Arial" font-size="24px" font-style="normal" font-weight="normal" text-decoration="none" x="0" y="150">UNREGISTERED</text><text fill="#eeeeee" stroke="none" font-family="Arial" font-size="24px" font-style="normal" font-weight="normal" text-decoration="none" x="0" y="180">UNREGISTERED</text><text fill="#eeeeee" stroke="none" font-family="Arial" font-size="24px" font-style="normal" font-weight="normal" text-decoration="none" x="0" y="210">UNREGISTERED</text><text fill="#eeeeee" stroke="none" font-family="Arial" font-size="24px" font-style="normal" font-weight="normal" text-decoration="none" x="0" y="240">UNREGISTERED</text><text fill="#eeeeee" stroke="none" font-family="Arial" font-size="24px" font-style="normal" font-weight="normal" text-decoration="none" x="0" y="270">UNREGISTERED</text><text fill="#eeeeee" stroke="none" font-family="Arial" font-size="24px" font-style="normal" font-weight="normal" text-decoration="none" x="0" y="300">UNREGISTERED</text><text fill="#eeeeee" stroke="none" font-family="Arial" font-size="24px" font-style="normal" font-weight="normal" text-decoration="none" x="0" y="330">UNREGISTERED</text><text fill="#eeeeee" stroke="none" font-family="Arial" font-size="24px" font-style="normal" font-weight="normal" text-decoration="none" x="0" y="360">UNREGISTERED</text><text fill="#eeeeee" stroke="none" font-family="Arial" font-size="24px" font-style="normal" font-weight="normal" text-decoration="none" x="0" y="390">UNREGISTERED</text><text fill="#eeeeee" stroke="none" font-family="Arial" font-size="24px" font-style="normal" font-weight="normal" text-decoration="none" x="0" y="420">UNREGISTERED</text><text fill="#eeeeee" stroke="none" font-family="Arial" font-size="24px" font-style="normal" font-weight="normal" text-decoration="none" x="0" y="450">UNREGISTERED</text><text fill="#eeeeee" stroke="none" font-family="Arial" font-size="24px" font-style="normal" font-weight="normal" text-decoration="none" x="0" y="480">UNREGISTERED</text><text fill="#eeeeee" stroke="none" font-family="Arial" font-size="24px" font-style="normal" font-weight="normal" text-decoration="none" x="0" y="510">UNREGISTERED</text><text fill="#eeeeee" stroke="none" font-family="Arial" font-size="24px" font-style="normal" font-weight="normal" text-decoration="none" x="0" y="540">UNREGISTERED</text><text fill="#eeeeee" stroke="none" font-family="Arial" font-size="24px" font-style="normal" font-weight="normal" text-decoration="none" x="0" y="570">UNREGISTERED</text><text fill="#eeeeee" stroke="none" font-family="Arial" font-size="24px" font-style="normal" font-weight="normal" text-decoration="none" x="0" y="600">UNREGISTERED</text><text fill="#eeeeee" stroke="none" font-family="Arial" font-size="24px" font-style="normal" font-weight="normal" text-decoration="none" x="200" y="0">UNREGISTERED</text><text fill="#eeeeee" stroke="none" font-family="Arial" font-size="24px" font-style="normal" font-weight="normal" text-decoration="none" x="200" y="30">UNREGISTERED</text><text fill="#eeeeee" stroke="none" font-family="Arial" font-size="24px" font-style="normal" font-weight="normal" text-decoration="none" x="200" y="60">UNREGISTERED</text><text fill="#eeeeee" stroke="none" font-family="Arial" font-size="24px" font-style="normal" font-weight="normal" text-decoration="none" x="200" y="90">UNREGISTERED</text><text fill="#eeeeee" stroke="none" font-family="Arial" font-size="24px" font-style="normal" font-weight="normal" text-decoration="none" x="200" y="120">UNREGISTERED</text><text fill="#eeeeee" stroke="none" font-family="Arial" font-size="24px" font-style="normal" font-weight="normal" text-decoration="none" x="200" y="150">UNREGISTERED</text><text fill="#eeeeee" stroke="none" font-family="Arial" font-size="24px" font-style="normal" font-weight="normal" text-decoration="none" x="200" y="180">UNREGISTERED</text><text fill="#eeeeee" stroke="none" font-family="Arial" font-size="24px" font-style="normal" font-weight="normal" text-decoration="none" x="200" y="210">UNREGISTERED</text><text fill="#eeeeee" stroke="none" font-family="Arial" font-size="24px" font-style="normal" font-weight="normal" text-decoration="none" x="200" y="240">UNREGISTERED</text><text fill="#eeeeee" stroke="none" font-family="Arial" font-size="24px" font-style="normal" font-weight="normal" text-decoration="none" x="200" y="270">UNREGISTERED</text><text fill="#eeeeee" stroke="none" font-family="Arial" font-size="24px" font-style="normal" font-weight="normal" text-decoration="none" x="200" y="300">UNREGISTERED</text><text fill="#eeeeee" stroke="none" font-family="Arial" font-size="24px" font-style="normal" font-weight="normal" text-decoration="none" x="200" y="330">UNREGISTERED</text><text fill="#eeeeee" stroke="none" font-family="Arial" font-size="24px" font-style="normal" font-weight="normal" text-decoration="none" x="200" y="360">UNREGISTERED</text><text fill="#eeeeee" stroke="none" font-family="Arial" font-size="24px" font-style="normal" font-weight="normal" text-decoration="none" x="200" y="390">UNREGISTERED</text><text fill="#eeeeee" stroke="none" font-family="Arial" font-size="24px" font-style="normal" font-weight="normal" text-decoration="none" x="200" y="420">UNREGISTERED</text><text fill="#eeeeee" stroke="none" font-family="Arial" font-size="24px" font-style="normal" font-weight="normal" text-decoration="none" x="200" y="450">UNREGISTERED</text><text fill="#eeeeee" stroke="none" font-family="Arial" font-size="24px" font-style="normal" font-weight="normal" text-decoration="none" x="200" y="480">UNREGISTERED</text><text fill="#eeeeee" stroke="none" font-family="Arial" font-size="24px" font-style="normal" font-weight="normal" text-decoration="none" x="200" y="510">UNREGISTERED</text><text fill="#eeeeee" stroke="none" font-family="Arial" font-size="24px" font-style="normal" font-weight="normal" text-decoration="none" x="200" y="540">UNREGISTERED</text><text fill="#eeeeee" stroke="none" font-family="Arial" font-size="24px" font-style="normal" font-weight="normal" text-decoration="none" x="200" y="570">UNREGISTERED</text><text fill="#eeeeee" stroke="none" font-family="Arial" font-size="24px" font-style="normal" font-weight="normal" text-decoration="none" x="200" y="600">UNREGISTERED</text><text fill="#eeeeee" stroke="none" font-family="Arial" font-size="24px" font-style="normal" font-weight="normal" text-decoration="none" x="400" y="0">UNREGISTERED</text><text fill="#eeeeee" stroke="none" font-family="Arial" font-size="24px" font-style="normal" font-weight="normal" text-decoration="none" x="400" y="30">UNREGISTERED</text><text fill="#eeeeee" stroke="none" font-family="Arial" font-size="24px" font-style="normal" font-weight="normal" text-decoration="none" x="400" y="60">UNREGISTERED</text><text fill="#eeeeee" stroke="none" font-family="Arial" font-size="24px" font-style="normal" font-weight="normal" text-decoration="none" x="400" y="90">UNREGISTERED</text><text fill="#eeeeee" stroke="none" font-family="Arial" font-size="24px" font-style="normal" font-weight="normal" text-decoration="none" x="400" y="120">UNREGISTERED</text><text fill="#eeeeee" stroke="none" font-family="Arial" font-size="24px" font-style="normal" font-weight="normal" text-decoration="none" x="400" y="150">UNREGISTERED</text><text fill="#eeeeee" stroke="none" font-family="Arial" font-size="24px" font-style="normal" font-weight="normal" text-decoration="none" x="400" y="180">UNREGISTERED</text><text fill="#eeeeee" stroke="none" font-family="Arial" font-size="24px" font-style="normal" font-weight="normal" text-decoration="none" x="400" y="210">UNREGISTERED</text><text fill="#eeeeee" stroke="none" font-family="Arial" font-size="24px" font-style="normal" font-weight="normal" text-decoration="none" x="400" y="240">UNREGISTERED</text><text fill="#eeeeee" stroke="none" font-family="Arial" font-size="24px" font-style="normal" font-weight="normal" text-decoration="none" x="400" y="270">UNREGISTERED</text><text fill="#eeeeee" stroke="none" font-family="Arial" font-size="24px" font-style="normal" font-weight="normal" text-decoration="none" x="400" y="300">UNREGISTERED</text><text fill="#eeeeee" stroke="none" font-family="Arial" font-size="24px" font-style="normal" font-weight="normal" text-decoration="none" x="400" y="330">UNREGISTERED</text><text fill="#eeeeee" stroke="none" font-family="Arial" font-size="24px" font-style="normal" font-weight="normal" text-decoration="none" x="400" y="360">UNREGISTERED</text><text fill="#eeeeee" stroke="none" font-family="Arial" font-size="24px" font-style="normal" font-weight="normal" text-decoration="none" x="400" y="390">UNREGISTERED</text><text fill="#eeeeee" stroke="none" font-family="Arial" font-size="24px" font-style="normal" font-weight="normal" text-decoration="none" x="400" y="420">UNREGISTERED</text><text fill="#eeeeee" stroke="none" font-family="Arial" font-size="24px" font-style="normal" font-weight="normal" text-decoration="none" x="400" y="450">UNREGISTERED</text><text fill="#eeeeee" stroke="none" font-family="Arial" font-size="24px" font-style="normal" font-weight="normal" text-decoration="none" x="400" y="480">UNREGISTERED</text><text fill="#eeeeee" stroke="none" font-family="Arial" font-size="24px" font-style="normal" font-weight="normal" text-decoration="none" x="400" y="510">UNREGISTERED</text><text fill="#eeeeee" stroke="none" font-family="Arial" font-size="24px" font-style="normal" font-weight="normal" text-decoration="none" x="400" y="540">UNREGISTERED</text><text fill="#eeeeee" stroke="none" font-family="Arial" font-size="24px" font-style="normal" font-weight="normal" text-decoration="none" x="400" y="570">UNREGISTERED</text><text fill="#eeeeee" stroke="none" font-family="Arial" font-size="24px" font-style="normal" font-weight="normal" text-decoration="none" x="400" y="600">UNREGISTERED</text><text fill="#eeeeee" stroke="none" font-family="Arial" font-size="24px" font-style="normal" font-weight="normal" text-decoration="none" x="600" y="0">UNREGISTERED</text><text fill="#eeeeee" stroke="none" font-family="Arial" font-size="24px" font-style="normal" font-weight="normal" text-decoration="none" x="600" y="30">UNREGISTERED</text><text fill="#eeeeee" stroke="none" font-family="Arial" font-size="24px" font-style="normal" font-weight="normal" text-decoration="none" x="600" y="60">UNREGISTERED</text><text fill="#eeeeee" stroke="none" font-family="Arial" font-size="24px" font-style="normal" font-weight="normal" text-decoration="none" x="600" y="90">UNREGISTERED</text><text fill="#eeeeee" stroke="none" font-family="Arial" font-size="24px" font-style="normal" font-weight="normal" text-decoration="none" x="600" y="120">UNREGISTERED</text><text fill="#eeeeee" stroke="none" font-family="Arial" font-size="24px" font-style="normal" font-weight="normal" text-decoration="none" x="600" y="150">UNREGISTERED</text><text fill="#eeeeee" stroke="none" font-family="Arial" font-size="24px" font-style="normal" font-weight="normal" text-decoration="none" x="600" y="180">UNREGISTERED</text><text fill="#eeeeee" stroke="none" font-family="Arial" font-size="24px" font-style="normal" font-weight="normal" text-decoration="none" x="600" y="210">UNREGISTERED</text><text fill="#eeeeee" stroke="none" font-family="Arial" font-size="24px" font-style="normal" font-weight="normal" text-decoration="none" x="600" y="240">UNREGISTERED</text><text fill="#eeeeee" stroke="none" font-family="Arial" font-size="24px" font-style="normal" font-weight="normal" text-decoration="none" x="600" y="270">UNREGISTERED</text><text fill="#eeeeee" stroke="none" font-family="Arial" font-size="24px" font-style="normal" font-weight="normal" text-decoration="none" x="600" y="300">UNREGISTERED</text><text fill="#eeeeee" stroke="none" font-family="Arial" font-size="24px" font-style="normal" font-weight="normal" text-decoration="none" x="600" y="330">UNREGISTERED</text><text fill="#eeeeee" stroke="none" font-family="Arial" font-size="24px" font-style="normal" font-weight="normal" text-decoration="none" x="600" y="360">UNREGISTERED</text><text fill="#eeeeee" stroke="none" font-family="Arial" font-size="24px" font-style="normal" font-weight="normal" text-decoration="none" x="600" y="390">UNREGISTERED</text><text fill="#eeeeee" stroke="none" font-family="Arial" font-size="24px" font-style="normal" font-weight="normal" text-decoration="none" x="600" y="420">UNREGISTERED</text><text fill="#eeeeee" stroke="none" font-family="Arial" font-size="24px" font-style="normal" font-weight="normal" text-decoration="none" x="600" y="450">UNREGISTERED</text><text fill="#eeeeee" stroke="none" font-family="Arial" font-size="24px" font-style="normal" font-weight="normal" text-decoration="none" x="600" y="480">UNREGISTERED</text><text fill="#eeeeee" stroke="none" font-family="Arial" font-size="24px" font-style="normal" font-weight="normal" text-decoration="none" x="600" y="510">UNREGISTERED</text><text fill="#eeeeee" stroke="none" font-family="Arial" font-size="24px" font-style="normal" font-weight="normal" text-decoration="none" x="600" y="540">UNREGISTERED</text><text fill="#eeeeee" stroke="none" font-family="Arial" font-size="24px" font-style="normal" font-weight="normal" text-decoration="none" x="600" y="570">UNREGISTERED</text><text fill="#eeeeee" stroke="none" font-family="Arial" font-size="24px" font-style="normal" font-weight="normal" text-decoration="none" x="600" y="600">UNREGISTERED</text><g transform="translate(-38,-30) scale(1,1)"><path fill="none" stroke="#000000" d="M 83.05908203125 40 L 123.05908203125 40 L 123.05908203125 80 L 83.05908203125 80 L 83.05908203125 40 Z Z" stroke-miterlimit="10"/></g><g transform="translate(-38,-30) scale(1,1)"><path fill="none" stroke="#000000" d="M 83.05908203125 40 L 123.05908203125 80" stroke-miterlimit="10"/></g><g transform="translate(-38,-30) scale(1,1)"><path fill="none" stroke="#000000" d="M 123.05908203125 40 L 83.05908203125 80" stroke-miterlimit="10"/></g><g transform="translate(-38,-30) scale(1,1)"><g><path fill="none" stroke="none"/><text fill="#000000" stroke="none" font-family="Arial" font-size="13px" font-style="normal" font-weight="bold" text-decoration="none" x="84.635009765625" y="99.5">Admin</text></g></g><g transform="translate(-38,-30) scale(1,1)"><path fill="none" stroke="#000000" d="M 104.5 105 L 104.5 624" stroke-miterlimit="10" stroke-dasharray="3"/></g><g transform="translate(-38,-30) scale(1,1)"><rect fill="#C0C0C0" stroke="none" x="455" y="47" width="111.46630859375" height="39" opacity="0.2"/></g><g transform="translate(-38,-30) scale(1,1)"><rect fill="#ffffff" stroke="none" x="448" y="40" width="111.46630859375" height="39"/></g><g transform="translate(-38,-30) scale(1,1)"><path fill="none" stroke="#000000" d="M 448 40 L 559.46630859375 40 L 559.46630859375 79 L 448 79 L 448 40 Z Z" stroke-miterlimit="10"/></g><g transform="translate(-38,-30) scale(1,1)"><g><path fill="none" stroke="none"/><text fill="#000000" stroke="none" font-family="Arial" font-size="13px" font-style="normal" font-weight="bold" text-decoration="none" x="461.819580078125" y="59.5">BusinessLogic</text></g></g><g transform="translate(-38,-30) scale(1,1)"><path fill="none" stroke="#000000" d="M 504.5 80 L 504.5 624" stroke-miterlimit="10" stroke-dasharray="3"/></g><g transform="translate(-38,-30) scale(1,1)"><rect fill="#C0C0C0" stroke="none" x="647" y="47" width="92.71533203125" height="39" opacity="0.2"/></g><g transform="translate(-38,-30) scale(1,1)"><rect fill="#ffffff" stroke="none" x="640" y="40" width="92.71533203125" height="39"/></g><g transform="translate(-38,-30) scale(1,1)"><path fill="none" stroke="#000000" d="M 640 40 L 732.71533203125 40 L 732.71533203125 79 L 640 79 L 640 40 Z Z" stroke-miterlimit="10"/></g><g transform="translate(-38,-30) scale(1,1)"><g><path fill="none" stroke="none"/><text fill="#000000" stroke="none" font-family="Arial" font-size="13px" font-style="normal" font-weight="bold" text-decoration="none" x="651.67724609375" y="59.5">DataAccess</text></g></g><g transform="translate(-38,-30) scale(1,1)"><path fill="none" stroke="#000000" d="M 687.5 80 L 687.5 624" stroke-miterlimit="10" stroke-dasharray="3"/></g><g transform="translate(-38,-30) scale(1,1)"><rect fill="#C0C0C0" stroke="none" x="239" y="47" width="160.58447265625" height="39" opacity="0.2"/></g><g transform="translate(-38,-30) scale(1,1)"><rect fill="#ffffff" stroke="none" x="232" y="40" width="160.58447265625" height="39"/></g><g transform="translate(-38,-30) scale(1,1)"><path fill="none" stroke="#000000" d="M 232 40 L 392.58447265625 40 L 392.58447265625 79 L 232 79 L 232 40 Z Z" stroke-miterlimit="10"/></g><g transform="translate(-38,-30) scale(1,1)"><g><path fill="none" stroke="none"/><text fill="#000000" stroke="none" font-family="Arial" font-size="13px" font-style="normal" font-weight="bold" text-decoration="none" x="268.591796875" y="59.5">GUIGUserAdm</text></g></g><g transform="translate(-38,-30) scale(1,1)"><path fill="none" stroke="#000000" d="M 313.5 80 L 313.5 616" stroke-miterlimit="10" stroke-dasharray="3"/></g><g transform="translate(-38,-30) scale(1,1)"><path fill="none" stroke="#000000" d="M 72 320 L 735 320 L 735 535 L 72 535 L 72 320" stroke-miterlimit="10"/></g><g transform="translate(-38,-30) scale(1,1)"><path fill="#ffffff" stroke="none" d="M 72 320 L 72 342 L 161.7216796875 342 L 172.7216796875 331 L 172.7216796875 320 L 72 320"/></g><g transform="translate(-38,-30) scale(1,1)"><path fill="none" stroke="#000000" d="M 72 320 L 72 342 L 161.7216796875 342 L 172.7216796875 331 L 172.7216796875 320 L 72 320 L 72 320" stroke-miterlimit="10"/></g><g transform="translate(-38,-30) scale(1,1)"><g><path fill="none" stroke="none"/><text fill="#000000" stroke="none" font-family="Arial" font-size="13px" font-style="normal" font-weight="normal" text-decoration="none" x="103.9599609375" y="337.5">if deleted</text></g></g><g transform="translate(-38,-30) scale(1,1)"><g><path fill="none" stroke="none"/><text fill="#000000" stroke="none" font-family="Arial" font-size="13px" font-style="normal" font-weight="bold" text-decoration="none" x="77" y="337.5">seq</text></g></g><g transform="translate(-38,-30) scale(1,1)"><path fill="none" stroke="#000000" d="M 72 417 L 735 417" stroke-miterlimit="10" stroke-dasharray="10,3"/></g><g transform="translate(-38,-30) scale(1,1)"><path fill="none" stroke="#000000" d="M 104 145 L 306 145" stroke-miterlimit="10"/></g><g transform="translate(-38,-30) scale(1,1)"><path fill="#000000" stroke="none" d="M 295.83732514237585 149.209517756016 L 306 145 L 295.83732514237585 140.790482243984"/></g><g transform="translate(-38,-30) scale(1,1)"><path fill="none" stroke="#000000" d="M 295.83732514237585 149.209517756016 L 306 145 L 295.83732514237585 140.790482243984 L 295.83732514237585 149.209517756016" stroke-miterlimit="10"/></g><g transform="translate(-38,-30) scale(1,1)"><g><path fill="none" stroke="none"/><text fill="#000000" stroke="none" font-family="Arial" font-size="13px" font-style="normal" font-weight="normal" text-decoration="none" x="139.5" y="141.5">1 : Clicks delete button</text></g></g><g transform="translate(-38,-30) scale(1,1)"><rect fill="#ffffff" stroke="none" x="306" y="145" width="13" height="28"/></g><g transform="translate(-38,-30) scale(1,1)"><path fill="none" stroke="#000000" d="M 306 145 L 319 145 L 319 173 L 306 173 L 306 145 Z Z" stroke-miterlimit="10"/></g><g transform="translate(-38,-30) scale(1,1)"><path fill="none" stroke="#000000" d="M 510 291 L 680 291" stroke-miterlimit="10"/></g><g transform="translate(-38,-30) scale(1,1)"><path fill="#000000" stroke="none" d="M 669.8373251423759 295.209517756016 L 680 291 L 669.8373251423758 286.790482243984"/></g><g transform="translate(-38,-30) scale(1,1)"><path fill="none" stroke="#000000" d="M 669.8373251423759 295.209517756016 L 680 291 L 669.8373251423758 286.790482243984 L 669.8373251423759 295.209517756016" stroke-miterlimit="10"/></g><g transform="translate(-38,-30) scale(1,1)"><g><path fill="none" stroke="none"/><text fill="#000000" stroke="none" font-family="Arial" font-size="13px" font-style="normal" font-weight="normal" text-decoration="none" x="538.5" y="287.5">6 : Delete User(ide)</text></g></g><g transform="translate(-38,-30) scale(1,1)"><rect fill="#ffffff" stroke="none" x="680" y="291" width="13" height="149"/></g><g transform="translate(-38,-30) scale(1,1)"><path fill="none" stroke="#000000" d="M 680 291 L 693 291 L 693 440 L 680 440 L 680 291 Z Z" stroke-miterlimit="10"/></g><g transform="translate(-38,-30) scale(1,1)"><path fill="none" stroke="#000000" d="M 680 339 L 510 339" stroke-miterlimit="10" stroke-dasharray="3"/></g><g transform="translate(-38,-30) scale(1,1)"><path fill="none" stroke="#000000" d="M 520.1626748576241 334.790482243984 L 510 339 L 520.1626748576241 343.209517756016" stroke-miterlimit="10"/></g><g transform="translate(-38,-30) scale(1,1)"><g><path fill="none" stroke="none"/><text fill="#000000" stroke="none" font-family="Arial" font-size="13px" font-style="normal" font-weight="normal" text-decoration="none" x="571.5" y="355.5">7 : True</text></g></g><g transform="translate(-38,-30) scale(1,1)"><path fill="none" stroke="#000000" d="M 313 174 L 104 174" stroke-miterlimit="10" stroke-dasharray="3"/></g><g transform="translate(-38,-30) scale(1,1)"><path fill="none" stroke="#000000" d="M 114.16267485762415 169.790482243984 L 104 174 L 114.16267485762415 178.209517756016" stroke-miterlimit="10"/></g><g transform="translate(-38,-30) scale(1,1)"><g><path fill="none" stroke="none"/><text fill="#000000" stroke="none" font-family="Arial" font-size="13px" font-style="normal" font-weight="normal" text-decoration="none" x="137.5" y="190.5">3 : Asks for confirmation</text></g></g><g transform="translate(-38,-30) scale(1,1)"><path fill="none" stroke="#000000" d="M 104 168 L 134 168 L 134 188 L 110 188" stroke-miterlimit="10"/></g><g transform="translate(-38,-30) scale(1,1)"><path fill="#000000" stroke="none" d="M 120.16267485762415 183.790482243984 L 110 188 L 120.16267485762415 192.209517756016"/></g><g transform="translate(-38,-30) scale(1,1)"><path fill="none" stroke="#000000" d="M 120.16267485762415 183.790482243984 L 110 188 L 120.16267485762415 192.209517756016 L 120.16267485762415 183.790482243984" stroke-miterlimit="10"/></g><g transform="translate(-38,-30) scale(1,1)"><g><path fill="none" stroke="none"/><text fill="#000000" stroke="none" font-family="Arial" font-size="13px" font-style="normal" font-weight="normal" text-decoration="none" x="103.5" y="183.5">2 : Message1</text></g></g><g transform="translate(-38,-30) scale(1,1)"><rect fill="#ffffff" stroke="none" x="97" y="188" width="13" height="28"/></g><g transform="translate(-38,-30) scale(1,1)"><path fill="none" stroke="#000000" d="M 97 188 L 110 188 L 110 216 L 97 216 L 97 188 Z Z" stroke-miterlimit="10"/></g><g transform="translate(-38,-30) scale(1,1)"><path fill="none" stroke="#000000" d="M 319 265 L 497 265" stroke-miterlimit="10"/></g><g transform="translate(-38,-30) scale(1,1)"><path fill="#000000" stroke="none" d="M 486.83732514237585 269.209517756016 L 497 265 L 486.83732514237585 260.790482243984"/></g><g transform="translate(-38,-30) scale(1,1)"><path fill="none" stroke="#000000" d="M 486.83732514237585 269.209517756016 L 497 265 L 486.83732514237585 260.790482243984 L 486.83732514237585 269.209517756016" stroke-miterlimit="10"/></g><g transform="translate(-38,-30) scale(1,1)"><g><path fill="none" stroke="none"/><text fill="#000000" stroke="none" font-family="Arial" font-size="13px" font-style="normal" font-weight="normal" text-decoration="none" x="356.75634765625" y="261.5">5 : Delete user(id)</text></g></g><g transform="translate(-38,-30) scale(1,1)"><rect fill="#ffffff" stroke="none" x="497" y="265" width="13" height="207"/></g><g transform="translate(-38,-30) scale(1,1)"><path fill="none" stroke="#000000" d="M 497 265 L 510 265 L 510 472 L 497 472 L 497 265 Z Z" stroke-miterlimit="10"/></g><g transform="translate(-38,-30) scale(1,1)"><path fill="none" stroke="#000000" d="M 110 208 L 306 208" stroke-miterlimit="10"/></g><g transform="translate(-38,-30) scale(1,1)"><path fill="#000000" stroke="none" d="M 295.83732514237585 212.209517756016 L 306 208 L 295.83732514237585 203.790482243984"/></g><g transform="translate(-38,-30) scale(1,1)"><path fill="none" stroke="#000000" d="M 295.83732514237585 212.209517756016 L 306 208 L 295.83732514237585 203.790482243984 L 295.83732514237585 212.209517756016" stroke-miterlimit="10"/></g><g transform="translate(-38,-30) scale(1,1)"><g><path fill="none" stroke="none"/><text fill="#000000" stroke="none" font-family="Arial" font-size="13px" font-style="normal" font-weight="normal" text-decoration="none" x="124.5" y="204.5">4 : Confirms by clicking "Yes"</text></g></g><g transform="translate(-38,-30) scale(1,1)"><rect fill="#ffffff" stroke="none" x="306" y="208" width="13" height="288"/></g><g transform="translate(-38,-30) scale(1,1)"><path fill="none" stroke="#000000" d="M 306 208 L 319 208 L 319 496 L 306 496 L 306 208 Z Z" stroke-miterlimit="10"/></g><g transform="translate(-38,-30) scale(1,1)"><path fill="none" stroke="#000000" d="M 497 471 L 319 471" stroke-miterlimit="10" stroke-dasharray="3"/></g><g transform="translate(-38,-30) scale(1,1)"><path fill="none" stroke="#000000" d="M 329.16267485762415 466.790482243984 L 319 471 L 329.16267485762415 475.209517756016" stroke-miterlimit="10"/></g><g transform="translate(-38,-30) scale(1,1)"><g><path fill="none" stroke="none"/><text fill="#000000" stroke="none" font-family="Arial" font-size="13px" font-style="normal" font-weight="normal" text-decoration="none" x="378.5" y="487.5">11 : False</text></g></g><g transform="translate(-38,-30) scale(1,1)"><path fill="none" stroke="#000000" d="M 306 492 L 110 492" stroke-miterlimit="10"/></g><g transform="translate(-38,-30) scale(1,1)"><path fill="#000000" stroke="none" d="M 120.16267485762415 487.790482243984 L 110 492 L 120.16267485762415 496.209517756016"/></g><g transform="translate(-38,-30) scale(1,1)"><path fill="none" stroke="#000000" d="M 120.16267485762415 487.790482243984 L 110 492 L 120.16267485762415 496.209517756016 L 120.16267485762415 487.790482243984" stroke-miterlimit="10"/></g><g transform="translate(-38,-30) scale(1,1)"><g><path fill="none" stroke="none"/><text fill="#000000" stroke="none" font-family="Arial" font-size="13px" font-style="normal" font-weight="normal" text-decoration="none" x="151.5" y="508.5">12 : Error message</text></g></g><g transform="translate(-38,-30) scale(1,1)"><rect fill="#ffffff" stroke="none" x="97" y="492" width="13" height="28"/></g><g transform="translate(-38,-30) scale(1,1)"><path fill="none" stroke="#000000" d="M 97 492 L 110 492 L 110 520 L 97 520 L 97 492 Z Z" stroke-miterlimit="10"/></g><g transform="translate(-38,-30) scale(1,1)"><path fill="none" stroke="#000000" d="M 680 432 L 510 432" stroke-miterlimit="10" stroke-dasharray="3"/></g><g transform="translate(-38,-30) scale(1,1)"><path fill="none" stroke="#000000" d="M 520.1626748576241 427.790482243984 L 510 432 L 520.1626748576241 436.209517756016" stroke-miterlimit="10"/></g><g transform="translate(-38,-30) scale(1,1)"><g><path fill="none" stroke="none"/><text fill="#000000" stroke="none" font-family="Arial" font-size="13px" font-style="normal" font-weight="normal" text-decoration="none" x="565.5" y="448.5">10 : False</text></g></g><g transform="translate(-38,-30) scale(1,1)"><path fill="none" stroke="#000000" d="M 497 364 L 319 364" stroke-miterlimit="10" stroke-dasharray="3"/></g><g transform="translate(-38,-30) scale(1,1)"><path fill="none" stroke="#000000" d="M 329.16267485762415 359.790482243984 L 319 364 L 329.16267485762415 368.209517756016" stroke-miterlimit="10"/></g><g transform="translate(-38,-30) scale(1,1)"><g><path fill="none" stroke="none"/><text fill="#000000" stroke="none" font-family="Arial" font-size="13px" font-style="normal" font-weight="normal" text-decoration="none" x="384.5" y="380.5">8 : True</text></g></g><g transform="translate(-38,-30) scale(1,1)"><path fill="none" stroke="#000000" d="M 306 384 L 110 384" stroke-miterlimit="10"/></g><g transform="translate(-38,-30) scale(1,1)"><path fill="#000000" stroke="none" d="M 120.16267485762415 379.790482243984 L 110 384 L 120.16267485762415 388.209517756016"/></g><g transform="translate(-38,-30) scale(1,1)"><path fill="none" stroke="#000000" d="M 120.16267485762415 379.790482243984 L 110 384 L 120.16267485762415 388.209517756016 L 120.16267485762415 379.790482243984" stroke-miterlimit="10"/></g><g transform="translate(-38,-30) scale(1,1)"><g><path fill="none" stroke="none"/><text fill="#000000" stroke="none" font-family="Arial" font-size="13px" font-style="normal" font-weight="normal" text-decoration="none" x="145.5" y="400.5">9 : Success message</text></g></g><g transform="translate(-38,-30) scale(1,1)"><rect fill="#ffffff" stroke="none" x="97" y="384" width="13" height="28"/></g><g transform="translate(-38,-30) scale(1,1)"><path fill="none" stroke="#000000" d="M 97 384 L 110 384 L 110 412 L 97 412 L 97 384 Z Z" stroke-miterlimit="10"/></g></g></svg>